<svg xmlns="http://www.w3.org/2000/svg" viewBox="0 0 2883.77 4484.35"><title>BOUNTY LINE ART 3</title><g style="isolation:isolate"><g id="Layer_1" data-name="Layer 1"><g style="mix-blend-mode:overlay"><g id="RIGHT_HAND" data-name="RIGHT HAND"><polygon points="1105.98 4474.55 1176.69 4267.76 1077.74 4323.41 1105.98 4474.55" style="fill:none;stroke:#f3587d;stroke-miterlimit:10;stroke-width:5px"/><polygon points="910.57 4281.1 999.91 4205.18 1077.74 4323.41 910.57 4281.1" style="fill:none;stroke:#f3587d;stroke-miterlimit:10;stroke-width:5px"/><polygon points="699.19 4315.62 910.57 4281.1 903.23 4150.53 699.19 4315.62" style="fill:none;stroke:#f3587d;stroke-miterlimit:10;stroke-width:5px"/><polygon points="596.34 4255.82 602.65 4259.5 699.19 4315.62 656.88 4116.62 596.34 4255.82" style="fill:none;stroke:#f3587d;stroke-miterlimit:10;stroke-width:5px"/><polygon points="160.23 4455.1 263.31 4381.9 422.01 4165.09 425.84 3978.94 291.84 4275.27 160.23 4455.1" style="fill:none;stroke:#f3587d;stroke-miterlimit:10;stroke-width:5px"/><polyline points="644.33 3964.63 422.01 4165.09 494.6 4019.86 633.05 3964.39 573.25 3854.07 495.3 3711.39 650.17 3680.72 579.16 3841.02 496.79 4004.86 411.55 3850.74 487.55 3722.51 377.48 3586.7 428.43 3852.97 439 3979.22 495.41 3980.38 496.52 3743.39 563.46 3598.05 660.24 3679.04" style="fill:none;stroke:#f3587d;stroke-miterlimit:10;stroke-width:5px"/><polygon points="704.6 4052.39 510.55 4037.12 654.25 3970.47 704.6 4052.39" style="fill:none;stroke:#f3587d;stroke-miterlimit:10;stroke-width:5px"/><polygon points="719.96 3763.03 698.33 4042.19 883.38 3773.92 719.96 3763.03" style="fill:none;stroke:#f3587d;stroke-miterlimit:10;stroke-width:5px"/><polygon points="1004.2 3814.02 883.38 3773.92 958.21 3976.72 1004.2 3814.02" style="fill:none;stroke:#f3587d;stroke-miterlimit:10;stroke-width:5px"/><polygon points="1160.38 3902.51 958.21 3976.72 1039.03 4010.36 1160.38 3902.51" style="fill:none;stroke:#f3587d;stroke-miterlimit:10;stroke-width:5px"/><polygon points="1132.04 4061.18 1030.08 4018.64 903.23 4150.53 999.91 4205.18 1031.15 4027.76 1132.04 4061.18" style="fill:none;stroke:#f3587d;stroke-miterlimit:10;stroke-width:5px"/><polygon points="1173.97 4156.1 1132.04 4061.18 1367.64 3916.15 1275.56 4085.7 1176.69 4267.76 1173.97 4156.1" style="fill:none;stroke:#f3587d;stroke-miterlimit:10;stroke-width:5px"/><polyline points="1270.81 4081.59 1173.97 4156.1 1270.02 4074.37 1283.13 3817.88 1367.64 3916.15 1329.51 3666.47 1221.71 3664.25 1283.9 3811 1321.7 3680.1 1058.86 3655.89 1061.08 3548.09 1132.7 3602.23 1225.63 3656.81 1191.44 3550.77 1058.73 3662.16" style="fill:none;stroke:#f3587d;stroke-miterlimit:10;stroke-width:5px"/><polygon points="1064.94 3360.07 1061.08 3548.09 1191.44 3550.77 1064.94 3360.07" style="fill:none;stroke:#f3587d;stroke-miterlimit:10;stroke-width:5px"/><polygon points="1375.58 3530.1 1191.44 3550.77 1286.25 3406.94 1442.94 3410.16 1375.58 3530.1" style="fill:none;stroke:#f3587d;stroke-miterlimit:10;stroke-width:5px"/><path d="M2636.14,3461.51l-65.59,94.58Z" transform="translate(-1284.3 -149.15)" style="fill:none;stroke:#f3587d;stroke-miterlimit:10;stroke-width:5px"/><polyline points="1494.82 3631.31 1560.13 3611.02 1446.66 3777.98 1477.78 3636.6 1506.31 3484.36 1351.84 3312.36 1442.94 3410.16 1609.17 3365.62 1515.95 3472.8 1545.32 3599.43 1583.04 3548.95 1609.17 3365.62 1736.43 3331.24 1582.84 3558.82" style="fill:none;stroke:#f3587d;stroke-miterlimit:10;stroke-width:5px"/><polygon points="718.12 3395.26 560 3537.78 507.46 3348.6 576.92 3538.13 435.41 3513.59 718.12 3395.26" style="fill:none;stroke:#f3587d;stroke-miterlimit:10;stroke-width:5px"/><polygon points="828.74 3137.95 815.44 3141.37 625.15 3190.2 496.67 3187.56 501.13 2970.39 618.66 3170.31 665.08 3047.12 828.74 3137.95" style="fill:none;stroke:#f3587d;stroke-miterlimit:10;stroke-width:5px"/><polygon points="162.37 4351.02 5.8 4372.84 106.24 4245.12 162.37 4351.02" style="fill:none;stroke:#f3587d;stroke-miterlimit:10;stroke-width:5px"/><polygon points="473.56 4310.98 434.49 4381.66 470.78 4446.36 473.56 4310.98" style="fill:none;stroke:#f3587d;stroke-miterlimit:10;stroke-width:5px"/><polygon points="803.01 4389.24 779.65 4452.71 835.54 4453.86 803.01 4389.24" style="fill:none;stroke:#f3587d;stroke-miterlimit:10;stroke-width:5px"/><polygon points="1387.35 4329.77 1315.9 4328.31 1357.67 4400.64 1387.35 4329.77" style="fill:none;stroke:#f3587d;stroke-miterlimit:10;stroke-width:5px"/><polygon points="279.64 3862.14 239.57 3798.3 281.87 3754.03 279.64 3862.14" style="fill:none;stroke:#f3587d;stroke-miterlimit:10;stroke-width:5px"/><polygon points="245.06 3531.31 249.63 3309.44 308.61 3459.73 245.06 3531.31" style="fill:none;stroke:#f3587d;stroke-miterlimit:10;stroke-width:5px"/><polyline points="377.86 3567.9 380.49 3440.04 312.08 3290.98 287.73 2966 387.14 3116.65 331.89 3311.14" style="fill:none;stroke:#f3587d;stroke-miterlimit:10;stroke-width:5px"/><polygon points="501.13 2970.39 387.14 3116.65 390.47 2954.95 501.13 2970.39" style="fill:none;stroke:#f3587d;stroke-miterlimit:10;stroke-width:5px"/><polyline points="151.18 2974.48 138.92 2838.8 43.48 2906.43 147.15 2987.57 70.91 2853.28 202.52 2855.98 200.3 2964.2 137.75 2987.37" style="fill:none;stroke:#f3587d;stroke-miterlimit:10;stroke-width:5px"/><polyline points="507.46 3348.6 709.89 3479.74 729.57 3387.03 576.92 3538.13 696.4 3490.74" style="fill:none;stroke:#f3587d;stroke-miterlimit:10;stroke-width:5px"/><polygon points="390.47 2954.95 450.48 2735.16 343.78 2732.97 390.47 2954.95" style="fill:none;stroke:#f3587d;stroke-miterlimit:10;stroke-width:5px"/><polygon points="287.73 2966 235.77 2702.53 321.3 2842.55 287.73 2966" style="fill:none;stroke:#f3587d;stroke-miterlimit:10;stroke-width:5px"/><line x1="343.78" y1="2732.97" x2="321.3" y2="2842.55" style="fill:none;stroke:#f3587d;stroke-miterlimit:10;stroke-width:5px"/><polygon points="281.12 2647.04 238.67 2561.52 235.77 2702.53 259.62 2823.47 281.12 2647.04" style="fill:none;stroke:#f3587d;stroke-miterlimit:10;stroke-width:5px"/><polyline points="1064.94 3360.07 1014.48 3313.89 1074.11 3219.18 1191.64 3540.9" style="fill:none;stroke:#f3587d;stroke-miterlimit:10;stroke-width:5px"/><polygon points="1110.62 3060.05 1074.11 3219.18 1007.2 3057.92 1110.62 3060.05" style="fill:none;stroke:#f3587d;stroke-miterlimit:10;stroke-width:5px"/><polygon points="1217.04 2915.52 1110.62 3060.05 1167.81 2794.12 1217.04 2915.52" style="fill:none;stroke:#f3587d;stroke-miterlimit:10;stroke-width:5px"/><polygon points="1292.66 3095.3 1217.04 2915.52 1357.62 3031.27 1292.66 3095.3" style="fill:none;stroke:#f3587d;stroke-miterlimit:10;stroke-width:5px"/><polygon points="1410.8 3097.73 1357.62 3031.27 1292.66 3095.3 1410.8 3097.73" style="fill:none;stroke:#f3587d;stroke-miterlimit:10;stroke-width:5px"/><polygon points="1447.83 3172.32 1410.8 3097.73 1531.5 3174.04 1447.83 3172.32" style="fill:none;stroke:#f3587d;stroke-miterlimit:10;stroke-width:5px"/><polygon points="1609.17 3365.62 1531.5 3174.04 1649.24 3211.26 1609.17 3365.62" style="fill:none;stroke:#f3587d;stroke-miterlimit:10;stroke-width:5px"/><polygon points="1904.09 3075.19 1802.41 3241.68 1794.14 3252.9 1658.54 3216.15 1782.82 3072.69 1770.39 3265.48 1736.43 3331.24 1658.23 3231.19 1663.06 2996.17 1768.71 3072.4 1904.09 3075.19" style="fill:none;stroke:#f3587d;stroke-miterlimit:10;stroke-width:5px"/><polygon points="1954.94 2889.31 1904.09 3075.19 1791.25 3074.04 1954.94 2889.31" style="fill:none;stroke:#f3587d;stroke-miterlimit:10;stroke-width:5px"/><polygon points="1909.4 2816.89 1954.94 2889.31 1971.38 2729.76 1909.4 2816.89" style="fill:none;stroke:#f3587d;stroke-miterlimit:10;stroke-width:5px"/><polygon points="1663.06 2996.17 1877.97 2744.77 1772.18 2789.62 1663.06 2996.17" style="fill:none;stroke:#f3587d;stroke-miterlimit:10;stroke-width:5px"/><polygon points="1523.08 3034.67 1577.27 2960.54 1662.7 3013.79 1523.08 3034.67" style="fill:none;stroke:#f3587d;stroke-miterlimit:10;stroke-width:5px"/><polygon points="1465.64 2992.11 1523.08 3034.67 1410.8 3097.73 1465.64 2992.11" style="fill:none;stroke:#f3587d;stroke-miterlimit:10;stroke-width:5px"/><polyline points="1328.49 2930.97 1465.64 2992.11 1357.62 3031.27 1231.68 2889.48 1333.28 2697.83 1390.31 2813.74 1458 2677.82 1354.73 2645.6 1177.93 2713.44 1167.81 2794.12 1320.67 2701.33 1392.82 2691.53 1344.55 2660.44" style="fill:none;stroke:#f3587d;stroke-miterlimit:10;stroke-width:5px"/><polygon points="1026.54 2727.26 1167.81 2794.12 1177.93 2713.44 1026.54 2727.26" style="fill:none;stroke:#f3587d;stroke-miterlimit:10;stroke-width:5px"/><path d="M2233.63,3002.73l218.48-59.46Z" transform="translate(-1284.3 -149.15)" style="fill:none;stroke:#f3587d;stroke-miterlimit:10;stroke-width:5px"/><polyline points="1026.54 2727.26 949.33 2853.58 1110.62 3060.05 899.74 2978.59 881.34 2867.23 802.83 2705.73 892.73 2724.51 930.39 2829.68 901.73 2881.76 728.5 2890.42 884.69 2978.28" style="fill:none;stroke:#f3587d;stroke-miterlimit:10;stroke-width:5px"/><polygon points="538.62 2672.08 728.5 2890.42 802.83 2705.73 804.57 2621.12 757.75 2702.95 653.39 2700.81 650.86 2673.78 638.49 2541.52 513.19 2383.76 432.66 2458.29 489.75 2609 450.48 2735.16 538.62 2672.08" style="fill:none;stroke:#f3587d;stroke-miterlimit:10;stroke-width:5px"/><polyline points="563.63 2675.42 650.86 2673.78 707.58 2866.37 734.35 2605.57 641.13 2569.79 623.11 2321.13 513.19 2383.76 636.11 2657.16 331.28 2357.45 285.3 2443.97 402.75 2460.5 388.77 2259.88 494.74 2366.46 517.72 2163.78 600.37 2306.55 551.26 2057.25 465.4 2055.49 408.12 2096.63 477.21 2304.02 547.43 2243.39 602.69 2193.74 247.9 2113.09 369.34 2107.12 354.1 2230.95 207.08 2177.14 102.12 2341.45 104.67 2217.36 219.88 2377.73 260.77 2561.97 302.81 2232.72 273.7 2139.01 178.64 2187.84 156.73 1972.96 251.72 1926.95 136.7 1803.26 153.65 2122.43 195.72 1814.81 145.16 1803.43 117.24 1606.29 279.04 1673.57 276.68 1788.26 361.27 1722.29 420.53 1858.94 392.52 2123.59 526.39 1925.07 548.43 2042.15 519.06 1915.51 254.62 1785.93 474.41 1799.85 528.5 1913.83" style="fill:none;stroke:#f3587d;stroke-miterlimit:10;stroke-width:5px"/><polyline points="175.19 1532.24 117.24 1606.29 279.04 1673.57 186.28 1541.87 281.55 1551.36 392.32 1675.9 474.41 1799.85 361.27 1722.29 375.57 1667.09 286.83 1683.14 344.38 1720.06" style="fill:none;stroke:#f3587d;stroke-miterlimit:10;stroke-width:5px"/><polyline points="1386.23 2646.25 1460.74 2544.32 1458 2677.82 1662.87 2548.48 1662.7 3013.79 1799.87 2654.76 1532.26 2588.12 1510.66 2449.42 1481.18 2648.2 1465.83 2525.62 1660.13 2132.72 1709.27 2212.74 1653.25 2467.4 1544.22 2555.45 1545.57 2489.64 1807.3 2293.75 1708.79 2327.47 1923.36 2138.14 2154.96 2370.5 1969.98 2523.45 1748.4 2383.46 1701.59 2342.37 1817.94 2486.46 1820.52 2657.06 1955.99 2533.19 1825.41 2480.35 2062.08 2496.5 1959.73 2656.16 1877.97 2744.77 1971.38 2729.76 1958.27 2544.52 1865.22 2739.49 1809.24 2656.83" style="fill:none;stroke:#f3587d;stroke-miterlimit:10;stroke-width:5px"/><polyline points="1807.3 2293.75 1823.58 2211.95 2060.28 2065.71 2063.06 1930.34 1948.59 2100.41 1920.77 2264.11 2102.42 2181.32 2099.15 2340.51 2247.74 2249.52 2062.08 2496.5" style="fill:none;stroke:#f3587d;stroke-miterlimit:10;stroke-width:5px"/><polygon points="1658.81 2105.42 1705.48 2100.25 1873.73 2081.63 1709.27 2212.74 1762.93 2042.67 1954.58 2083.29 1973.59 1982.1 1780.39 2031.74 1683.52 2001.53 1704.34 2086.61 1845.55 1942.79 1831.68 1818.36 1782.6 1924.57 1697.85 1990.54 1785.56 1780.73 1781.32 1986.62 1658.81 2105.42" style="fill:none;stroke:#f3587d;stroke-miterlimit:10;stroke-width:5px"/><polyline points="2288.38 2224.64 2307.28 2200.09 2825.65 1526.55 2853.21 1466.93 2881 1396.02 2859.22 1357.95 2833.28 1338.61 2780.63 1337.53 2709.18 1336.06 2636.73 1383.47 2487.52 1504.55 2063.06 1930.34 2135.43 1978.85 2255.42 1875.98 2122.84 1870.37 2161.38 2058.39 2195.99 2143.74 2275.38 2124.68 2220.82 2216.67 2159.21 2163.68 2330.12 2024.23 2060.28 2065.71" style="fill:none;stroke:#f3587d;stroke-miterlimit:10;stroke-width:5px"/><polyline points="2328.18 2118.24 2311.63 2008.34 2416.38 2037.29 2493.63 1939.19 2495.91 1828.26 2377.06 1936.79 2395.83 2085.03 2444.75 1938.18 2574.88 1829.88 2526.67 1795.97 2678.39 1717.89 2553.97 1566.11 2777.05 1589.7 2759.12 1468.75 2853.21 1466.93 2471.36 1696.08 2444.07 1605.23 2537.77 1622.21 2509.47 1486.74 2683.99 1463.45 2731.75 1336.52 2802.11 1390.64 2691.13 1482.4 2881 1396.02" style="fill:none;stroke:#f3587d;stroke-miterlimit:10;stroke-width:5px"/><polygon points="2427.95 1657.57 2235.73 1757.13 2380.4 1612.01 2427.95 1657.57" style="fill:none;stroke:#f3587d;stroke-miterlimit:10;stroke-width:5px"/><polygon points="2282.25 1790.95 2149.38 1843.76 2256.03 1845.95 2282.25 1790.95" style="fill:none;stroke:#f3587d;stroke-miterlimit:10;stroke-width:5px"/><line x1="2316.77" y1="1758.8" x2="2427.95" y2="1657.57" style="fill:none;stroke:#f3587d;stroke-miterlimit:10;stroke-width:5px"/><polyline points="2097.09 1282.09 2088.71 1323.3 2052.15 1332.85 2152.24 1264.59" style="fill:none;stroke:#f3587d;stroke-miterlimit:10;stroke-width:5px"/><polyline points="1734.61 1902.61 1823.04 1837.05 1931.52 1510.81 1823.33 1696.89 1984.24 1464.11 2052.15 1332.85 2045.61 1392.01" style="fill:none;stroke:#f3587d;stroke-miterlimit:10;stroke-width:5px"/><path d="M3486.6,1437.16l21.06,162.2L3358,1562.42l219.24-142.21-114.55-40,23.91,56.92-23.91-56.92c3.93-2.25,57.34-31.8,102.31-5.42a83.65,83.65,0,0,1,27.67,26.9,67,67,0,0,1,17.25,75.6l-36.08,108.35-49.75,123.13q-54.56,151.42-109.1,302.85l-.42-181.59,68.68-46.86-158.64,15.54-3.37,164.08L3180.9,1987.7l61.17,89.62,83-301.14s-31.67-90.94-44.14-125,99.19,24.61,99.19,24.61L3218.67,1752l-2.7,131-100,84.47,48.27-120.3,20.6-51.34,144.86-245.31,133-170.32c-10.56,27.43-19.73,33.26-26.15,33.5-7.33.27-11.82-6.69-24.53-8.21a42.8,42.8,0,0,0-19.76,2.52L3312,1514.45l-116.49,176.3-125.61,239.13" transform="translate(-1284.3 -149.15)" style="fill:none;stroke:#f3587d;stroke-miterlimit:10;stroke-width:5px"/><path d="M4557.29,3887.56" transform="translate(-1284.3 -149.15)" style="fill:none;stroke:#f3587d;stroke-miterlimit:10;stroke-width:5px"/><polygon points="891.97 3356.51 858.82 3321.97 913.31 3278.89 891.97 3356.51" style="fill:none;stroke:#f3587d;stroke-miterlimit:10;stroke-width:5px"/><polygon points="1366.03 2401.3 1308.93 2304.2 1524.51 2233.39 1372 2331.83 1366.03 2401.3" style="fill:none;stroke:#f3587d;stroke-miterlimit:10;stroke-width:5px"/><path d="M3486.09,2648.52" transform="translate(-1284.3 -149.15)" style="fill:none;stroke:#f3587d;stroke-miterlimit:10;stroke-width:5px"/><polygon points="2066.75 3022.1 2010.28 3110.05 2114.24 3112.19 1964.93 3043.76 2066.75 3022.1" style="fill:none;stroke:#f3587d;stroke-miterlimit:10;stroke-width:5px"/></g><g id="ETH"><polygon points="1108.81 51.84 536.07 963.89 1108.81 678.37 1108.81 51.84" style="fill:none;stroke:#5bf1cd;stroke-miterlimit:10;stroke-width:5px"/><polyline points="826.02 502.17 1040.66 333.57 1108.81 51.84 1108.81 413.46 536.07 963.89 729.45 867.49 707.14 691.47 994.41 609.69 1108.81 678.37 962.26 751.43 822.44 507.87 848.94 807.92 925.97 343.01" style="fill:none;stroke:#5bf1cd;stroke-miterlimit:10;stroke-width:5px"/><polyline points="997.21 602.68 1040.66 333.57 1108.81 678.37" style="fill:none;stroke:#5bf1cd;stroke-miterlimit:10;stroke-width:5px"/><line x1="924.33" y1="352.9" x2="994.41" y2="609.69" style="fill:none;stroke:#5bf1cd;stroke-miterlimit:10;stroke-width:5px"/><circle cx="1108.81" cy="51.84" r="21.84" style="fill:none;stroke:#5bf1cd;stroke-miterlimit:10;stroke-width:60px"/><circle cx="1108.81" cy="678.37" r="21.84" style="fill:none;stroke:#5bf1cd;stroke-miterlimit:10;stroke-width:60px"/><circle cx="536.07" cy="965.97" r="21.84" style="fill:none;stroke:#5bf1cd;stroke-miterlimit:10;stroke-width:60px"/><polygon points="1108.81 51.84 1681.54 963.89 1108.81 678.37 1108.81 51.84" style="fill:none;stroke:#5bf1cd;stroke-miterlimit:10;stroke-width:5px"/><polyline points="1391.59 502.17 1176.95 333.57 1108.81 51.84 1108.81 413.46 1681.54 963.89 1488.16 867.49 1510.47 691.47 1223.2 609.69 1108.81 678.37 1255.36 751.43 1395.17 507.87 1368.67 807.92 1291.65 343.01" style="fill:none;stroke:#5bf1cd;stroke-miterlimit:10;stroke-width:5px"/><polyline points="1220.4 602.68 1176.95 333.57 1108.81 678.37" style="fill:none;stroke:#5bf1cd;stroke-miterlimit:10;stroke-width:5px"/><line x1="1293.29" y1="352.9" x2="1223.2" y2="609.69" style="fill:none;stroke:#5bf1cd;stroke-miterlimit:10;stroke-width:5px"/><circle cx="1108.81" cy="51.84" r="21.84" style="fill:none;stroke:#5bf1cd;stroke-miterlimit:10;stroke-width:60px"/><circle cx="1681.54" cy="965.97" r="21.84" style="fill:none;stroke:#5bf1cd;stroke-miterlimit:10;stroke-width:60px"/><polygon points="1108.81 2063.98 536.07 1151.93 1108.81 1437.45 1108.81 2063.98" style="fill:none;stroke:#5bf1cd;stroke-miterlimit:10;stroke-width:5px"/><polyline points="826.02 1613.66 1040.66 1782.26 1108.81 2063.98 1108.81 1702.36 536.07 1151.93 729.45 1248.34 707.14 1424.36 994.41 1506.13 1108.81 1437.45 962.26 1364.4 822.44 1607.96 848.94 1307.9 925.97 1772.82" style="fill:none;stroke:#5bf1cd;stroke-miterlimit:10;stroke-width:5px"/><polyline points="997.21 1513.14 1040.66 1782.26 1108.81 1437.45" style="fill:none;stroke:#5bf1cd;stroke-miterlimit:10;stroke-width:5px"/><line x1="924.33" y1="1762.92" x2="994.41" y2="1506.14" style="fill:none;stroke:#5bf1cd;stroke-miterlimit:10;stroke-width:5px"/><circle cx="1108.81" cy="2063.98" r="21.84" style="fill:none;stroke:#5bf1cd;stroke-miterlimit:10;stroke-width:60px"/><circle cx="1108.81" cy="1437.46" r="21.84" style="fill:none;stroke:#5bf1cd;stroke-miterlimit:10;stroke-width:60px"/><circle cx="536.07" cy="1149.86" r="21.84" style="fill:none;stroke:#5bf1cd;stroke-miterlimit:10;stroke-width:60px"/><polygon points="1108.81 2063.98 1681.54 1151.93 1108.81 1437.45 1108.81 2063.98" style="fill:none;stroke:#5bf1cd;stroke-miterlimit:10;stroke-width:5px"/><polyline points="1391.59 1613.66 1176.95 1782.26 1108.81 2063.98 1108.81 1702.36 1681.54 1151.93 1488.16 1248.34 1510.47 1424.36 1223.2 1506.13 1108.81 1437.45 1255.36 1364.4 1395.17 1607.96 1368.67 1307.9 1291.65 1772.82" style="fill:none;stroke:#5bf1cd;stroke-miterlimit:10;stroke-width:5px"/><polyline points="1220.4 1513.14 1176.95 1782.26 1108.81 1437.45" style="fill:none;stroke:#5bf1cd;stroke-miterlimit:10;stroke-width:5px"/><line x1="1293.29" y1="1762.92" x2="1223.2" y2="1506.14" style="fill:none;stroke:#5bf1cd;stroke-miterlimit:10;stroke-width:5px"/><circle cx="1108.81" cy="2063.98" r="21.84" style="fill:none;stroke:#5bf1cd;stroke-miterlimit:10;stroke-width:60px"/><circle cx="1681.54" cy="1149.86" r="21.84" style="fill:none;stroke:#5bf1cd;stroke-miterlimit:10;stroke-width:60px"/><polygon points="645.4 1053.34 611.47 1031.67 605.34 1081.82 645.4 1053.34" style="fill:none;stroke:#7f51d6;stroke-miterlimit:10;stroke-width:5px"/><polyline points="654.68 1106.23 645.4 1053.34 666.42 1004.28 757.53 1081.82 652.41 1056.75 672.62 1042.34 822.44 935.56 749.12 1101.69 709.04 1133.11 690.25 1081.82 822.44 1189.19 896.29 1004.28 747.1 1151.93 719.96 977.59 770.85 1023.86 687.45 1057.29 1108.81 1042.08 915.22 1235.08 956.21 859.82 1108.81 1190.66 1004.22 1273.04 1108.81 1262.88 858.31 1206.93 1108.81 857.24 1022.29 826.88 1030.85 1187.85 877.1 977.59 899.8 887.94 936.94 947.51 822.44 1031.67 822.44 926.5 1095.33 995.87 846.73 1201.21 792.57 1081.82 908.91 1109.4 1087.83 817.92 1108.81 783.75 693.06 987.81 625.37 1093.22 1108.81 1323.81 1108.81 823.51 1070.1 817.39 1108.81 810.81" style="fill:none;stroke:#7f51d6;stroke-miterlimit:10;stroke-width:5px"/><polygon points="557.91 1053.78 666.42 1004.28 625.37 1093.22 557.91 1053.78" style="fill:none;stroke:#7f51d6;stroke-miterlimit:10;stroke-width:5px"/><polygon points="1572.21 1052.89 1606.14 1031.22 1612.27 1081.38 1572.21 1052.89" style="fill:none;stroke:#7f51d6;stroke-miterlimit:10;stroke-width:5px"/><polyline points="1562.93 1105.78 1572.21 1052.89 1551.19 1003.83 1460.08 1081.38 1565.2 1056.3 1544.99 1041.89 1395.17 935.11 1468.49 1101.24 1508.57 1132.66 1527.36 1081.38 1395.17 1188.74 1321.32 1003.83 1470.51 1151.48 1497.65 977.14 1446.77 1023.41 1530.16 1056.84 1108.81 1041.63 1302.39 1234.63 1261.4 859.37 1108.81 1190.21 1213.39 1272.59 1108.81 1262.43 1359.31 1206.48 1108.81 856.79 1195.32 826.43 1186.76 1187.4 1340.51 977.14 1317.81 887.5 1280.67 947.06 1395.17 1031.22 1395.17 926.06 1122.29 995.42 1370.88 1200.76 1425.04 1081.38 1308.7 1108.95 1129.78 817.48 1108.81 783.31 1524.56 987.36 1592.24 1092.78 1108.81 1323.36 1108.81 823.06 1147.52 816.95 1108.81 810.37" style="fill:none;stroke:#7f51d6;stroke-miterlimit:10;stroke-width:5px"/><polygon points="1659.7 1053.34 1551.19 1003.83 1592.24 1092.78 1659.7 1053.34" style="fill:none;stroke:#7f51d6;stroke-miterlimit:10;stroke-width:5px"/><polyline points="1078.51 1304.25 1030.85 1187.85 978.16 1261.5 924.33 1165.95 1108.81 1205.55 1067.84 1253.73 803.09 1131.73 557.91 1053.78 1108.81 1219.1 1220.4 1185.52 1528.62 1092.78 1659.7 1053.34 1185.38 1182.32 1121.01 1199.83 1148.88 1304.25 1210.96 1199.83 1258.24 1252.08 1280.34 1180.55 1328.7 1199.83 1350.52 1161.28 1427.51 1149.86 1446.43 1087.69" style="fill:none;stroke:#7f51d6;stroke-miterlimit:10;stroke-width:5px"/></g></g><g id="RIGHT_HAND-2" data-name="RIGHT HAND"><polygon points="1105.98 4474.55 1176.69 4267.76 1077.74 4323.41 1105.98 4474.55" style="fill:none;stroke:#f3587d;stroke-miterlimit:10;stroke-width:5px"/><polygon points="910.57 4281.1 999.91 4205.18 1077.74 4323.41 910.57 4281.1" style="fill:none;stroke:#f3587d;stroke-miterlimit:10;stroke-width:5px"/><polygon points="699.19 4315.62 910.57 4281.1 903.23 4150.53 699.19 4315.62" style="fill:none;stroke:#f3587d;stroke-miterlimit:10;stroke-width:5px"/><polygon points="596.34 4255.82 602.65 4259.5 699.19 4315.62 656.88 4116.62 596.34 4255.82" style="fill:none;stroke:#f3587d;stroke-miterlimit:10;stroke-width:5px"/><polygon points="160.23 4455.1 263.31 4381.9 422.01 4165.09 425.84 3978.94 291.84 4275.27 160.23 4455.1" style="fill:none;stroke:#f3587d;stroke-miterlimit:10;stroke-width:5px"/><polyline points="644.33 3964.63 422.01 4165.09 494.6 4019.86 633.05 3964.39 573.25 3854.07 495.3 3711.39 650.17 3680.72 579.16 3841.02 496.79 4004.86 411.55 3850.74 487.55 3722.51 377.48 3586.7 428.43 3852.97 439 3979.22 495.41 3980.38 496.52 3743.39 563.46 3598.05 660.24 3679.04" style="fill:none;stroke:#f3587d;stroke-miterlimit:10;stroke-width:5px"/><polygon points="704.6 4052.39 510.55 4037.12 654.25 3970.47 704.6 4052.39" style="fill:none;stroke:#f3587d;stroke-miterlimit:10;stroke-width:5px"/><polygon points="719.96 3763.03 698.33 4042.19 883.38 3773.92 719.96 3763.03" style="fill:none;stroke:#f3587d;stroke-miterlimit:10;stroke-width:5px"/><polygon points="1004.2 3814.02 883.38 3773.92 958.21 3976.72 1004.2 3814.02" style="fill:none;stroke:#f3587d;stroke-miterlimit:10;stroke-width:5px"/><polygon points="1160.38 3902.51 958.21 3976.72 1039.03 4010.36 1160.38 3902.51" style="fill:none;stroke:#f3587d;stroke-miterlimit:10;stroke-width:5px"/><polygon points="1132.04 4061.18 1030.08 4018.64 903.23 4150.53 999.91 4205.18 1031.15 4027.76 1132.04 4061.18" style="fill:none;stroke:#f3587d;stroke-miterlimit:10;stroke-width:5px"/><polygon points="1173.97 4156.1 1132.04 4061.18 1367.64 3916.15 1275.56 4085.7 1176.69 4267.76 1173.97 4156.1" style="fill:none;stroke:#f3587d;stroke-miterlimit:10;stroke-width:5px"/><polyline points="1270.81 4081.59 1173.97 4156.1 1270.02 4074.37 1283.13 3817.88 1367.64 3916.15 1329.51 3666.47 1221.71 3664.25 1283.9 3811 1321.7 3680.1 1058.86 3655.89 1061.08 3548.09 1132.7 3602.23 1225.63 3656.81 1191.44 3550.77 1058.73 3662.16" style="fill:none;stroke:#f3587d;stroke-miterlimit:10;stroke-width:5px"/><polygon points="1064.94 3360.07 1061.08 3548.09 1191.44 3550.77 1064.94 3360.07" style="fill:none;stroke:#f3587d;stroke-miterlimit:10;stroke-width:5px"/><polygon points="1375.58 3530.1 1191.44 3550.77 1286.25 3406.94 1442.94 3410.16 1375.58 3530.1" style="fill:none;stroke:#f3587d;stroke-miterlimit:10;stroke-width:5px"/><path d="M2636.14,3461.51l-65.59,94.58Z" transform="translate(-1284.3 -149.15)" style="fill:none;stroke:#f3587d;stroke-miterlimit:10;stroke-width:5px"/><polyline points="1494.82 3631.31 1560.13 3611.02 1446.66 3777.98 1477.78 3636.6 1506.31 3484.36 1351.84 3312.36 1442.94 3410.16 1609.17 3365.62 1515.95 3472.8 1545.32 3599.43 1583.04 3548.95 1609.17 3365.62 1736.43 3331.24 1582.84 3558.82" style="fill:none;stroke:#f3587d;stroke-miterlimit:10;stroke-width:5px"/><polygon points="718.12 3395.26 560 3537.78 507.46 3348.6 576.92 3538.13 435.41 3513.59 718.12 3395.26" style="fill:none;stroke:#f3587d;stroke-miterlimit:10;stroke-width:5px"/><polygon points="828.74 3137.95 815.44 3141.37 625.15 3190.2 496.67 3187.56 501.13 2970.39 618.66 3170.31 665.08 3047.12 828.74 3137.95" style="fill:none;stroke:#f3587d;stroke-miterlimit:10;stroke-width:5px"/><polygon points="162.37 4351.02 5.8 4372.84 106.24 4245.12 162.37 4351.02" style="fill:none;stroke:#f3587d;stroke-miterlimit:10;stroke-width:5px"/><polygon points="473.56 4310.98 434.49 4381.66 470.78 4446.36 473.56 4310.98" style="fill:none;stroke:#f3587d;stroke-miterlimit:10;stroke-width:5px"/><polygon points="803.01 4389.24 779.65 4452.71 835.54 4453.86 803.01 4389.24" style="fill:none;stroke:#f3587d;stroke-miterlimit:10;stroke-width:5px"/><polygon points="1387.35 4329.77 1315.9 4328.31 1357.67 4400.64 1387.35 4329.77" style="fill:none;stroke:#f3587d;stroke-miterlimit:10;stroke-width:5px"/><polygon points="279.64 3862.14 239.57 3798.3 281.87 3754.03 279.64 3862.14" style="fill:none;stroke:#f3587d;stroke-miterlimit:10;stroke-width:5px"/><polygon points="245.06 3531.31 249.63 3309.44 308.61 3459.73 245.06 3531.31" style="fill:none;stroke:#f3587d;stroke-miterlimit:10;stroke-width:5px"/><polyline points="377.86 3567.9 380.49 3440.04 312.08 3290.98 287.73 2966 387.14 3116.65 331.89 3311.14" style="fill:none;stroke:#f3587d;stroke-miterlimit:10;stroke-width:5px"/><polygon points="501.13 2970.39 387.14 3116.65 390.47 2954.95 501.13 2970.39" style="fill:none;stroke:#f3587d;stroke-miterlimit:10;stroke-width:5px"/><polyline points="151.18 2974.48 138.92 2838.8 43.48 2906.43 147.15 2987.57 70.91 2853.28 202.52 2855.98 200.3 2964.2 137.75 2987.37" style="fill:none;stroke:#f3587d;stroke-miterlimit:10;stroke-width:5px"/><polyline points="507.46 3348.6 709.89 3479.74 729.57 3387.03 576.92 3538.13 696.4 3490.74" style="fill:none;stroke:#f3587d;stroke-miterlimit:10;stroke-width:5px"/><polygon points="390.47 2954.95 450.48 2735.16 343.78 2732.97 390.47 2954.95" style="fill:none;stroke:#f3587d;stroke-miterlimit:10;stroke-width:5px"/><polygon points="287.73 2966 235.77 2702.53 321.3 2842.55 287.73 2966" style="fill:none;stroke:#f3587d;stroke-miterlimit:10;stroke-width:5px"/><line x1="343.78" y1="2732.97" x2="321.3" y2="2842.55" style="fill:none;stroke:#f3587d;stroke-miterlimit:10;stroke-width:5px"/><polygon points="281.12 2647.04 238.67 2561.52 235.77 2702.53 259.62 2823.47 281.12 2647.04" style="fill:none;stroke:#f3587d;stroke-miterlimit:10;stroke-width:5px"/><polyline points="1064.94 3360.07 1014.48 3313.89 1074.11 3219.18 1191.64 3540.9" style="fill:none;stroke:#f3587d;stroke-miterlimit:10;stroke-width:5px"/><polygon points="1110.62 3060.05 1074.11 3219.18 1007.2 3057.92 1110.62 3060.05" style="fill:none;stroke:#f3587d;stroke-miterlimit:10;stroke-width:5px"/><polygon points="1217.04 2915.52 1110.62 3060.05 1167.81 2794.12 1217.04 2915.52" style="fill:none;stroke:#f3587d;stroke-miterlimit:10;stroke-width:5px"/><polygon points="1292.66 3095.3 1217.04 2915.52 1357.62 3031.27 1292.66 3095.3" style="fill:none;stroke:#f3587d;stroke-miterlimit:10;stroke-width:5px"/><polygon points="1410.8 3097.73 1357.62 3031.27 1292.66 3095.3 1410.8 3097.73" style="fill:none;stroke:#f3587d;stroke-miterlimit:10;stroke-width:5px"/><polygon points="1447.83 3172.32 1410.8 3097.73 1531.5 3174.04 1447.83 3172.32" style="fill:none;stroke:#f3587d;stroke-miterlimit:10;stroke-width:5px"/><polygon points="1609.17 3365.62 1531.5 3174.04 1649.24 3211.26 1609.17 3365.62" style="fill:none;stroke:#f3587d;stroke-miterlimit:10;stroke-width:5px"/><polygon points="1904.09 3075.19 1802.41 3241.68 1794.14 3252.9 1658.54 3216.15 1782.82 3072.69 1770.39 3265.48 1736.43 3331.24 1658.23 3231.19 1663.06 2996.17 1768.71 3072.4 1904.09 3075.19" style="fill:none;stroke:#f3587d;stroke-miterlimit:10;stroke-width:5px"/><polygon points="1954.94 2889.31 1904.09 3075.19 1791.25 3074.04 1954.94 2889.31" style="fill:none;stroke:#f3587d;stroke-miterlimit:10;stroke-width:5px"/><polygon points="1909.4 2816.89 1954.94 2889.31 1971.38 2729.76 1909.4 2816.89" style="fill:none;stroke:#f3587d;stroke-miterlimit:10;stroke-width:5px"/><polygon points="1663.06 2996.17 1877.97 2744.77 1772.18 2789.62 1663.06 2996.17" style="fill:none;stroke:#f3587d;stroke-miterlimit:10;stroke-width:5px"/><polygon points="1523.08 3034.67 1577.27 2960.54 1662.7 3013.79 1523.08 3034.67" style="fill:none;stroke:#f3587d;stroke-miterlimit:10;stroke-width:5px"/><polygon points="1465.64 2992.11 1523.08 3034.67 1410.8 3097.73 1465.64 2992.11" style="fill:none;stroke:#f3587d;stroke-miterlimit:10;stroke-width:5px"/><polyline points="1328.49 2930.97 1465.64 2992.11 1357.62 3031.27 1231.68 2889.48 1333.28 2697.83 1390.31 2813.74 1458 2677.82 1354.73 2645.6 1177.93 2713.44 1167.81 2794.12 1320.67 2701.33 1392.82 2691.53 1344.55 2660.44" style="fill:none;stroke:#f3587d;stroke-miterlimit:10;stroke-width:5px"/><polygon points="1026.54 2727.26 1167.81 2794.12 1177.93 2713.44 1026.54 2727.26" style="fill:none;stroke:#f3587d;stroke-miterlimit:10;stroke-width:5px"/><path d="M2233.63,3002.73l218.48-59.46Z" transform="translate(-1284.3 -149.15)" style="fill:none;stroke:#f3587d;stroke-miterlimit:10;stroke-width:5px"/><polyline points="1026.54 2727.26 949.33 2853.58 1110.62 3060.05 899.74 2978.59 881.34 2867.23 802.83 2705.73 892.73 2724.51 930.39 2829.68 901.73 2881.76 728.5 2890.42 884.69 2978.28" style="fill:none;stroke:#f3587d;stroke-miterlimit:10;stroke-width:5px"/><polygon points="538.62 2672.08 728.5 2890.42 802.83 2705.73 804.57 2621.12 757.75 2702.95 653.39 2700.81 650.86 2673.78 638.49 2541.52 513.19 2383.76 432.66 2458.29 489.75 2609 450.48 2735.16 538.62 2672.08" style="fill:none;stroke:#f3587d;stroke-miterlimit:10;stroke-width:5px"/><polyline points="563.63 2675.42 650.86 2673.78 707.58 2866.37 734.35 2605.57 641.13 2569.79 623.11 2321.13 513.19 2383.76 636.11 2657.16 331.28 2357.45 285.3 2443.97 402.75 2460.5 388.77 2259.88 494.74 2366.46 517.72 2163.78 600.37 2306.55 551.26 2057.25 465.4 2055.49 408.12 2096.63 477.21 2304.02 547.43 2243.39 602.69 2193.74 247.9 2113.09 369.34 2107.12 354.1 2230.95 207.08 2177.14 102.12 2341.45 104.67 2217.36 219.88 2377.73 260.77 2561.97 302.81 2232.72 273.7 2139.01 178.64 2187.84 156.73 1972.96 251.72 1926.95 136.7 1803.26 153.65 2122.43 195.72 1814.81 145.16 1803.43 117.24 1606.29 279.04 1673.57 276.68 1788.26 361.27 1722.29 420.53 1858.94 392.52 2123.59 526.39 1925.07 548.43 2042.15 519.06 1915.51 254.62 1785.93 474.41 1799.85 528.5 1913.83" style="fill:none;stroke:#f3587d;stroke-miterlimit:10;stroke-width:5px"/><polyline points="175.19 1532.24 117.24 1606.29 279.04 1673.57 186.28 1541.87 281.55 1551.36 392.32 1675.9 474.41 1799.85 361.27 1722.29 375.57 1667.09 286.83 1683.14 344.38 1720.06" style="fill:none;stroke:#f3587d;stroke-miterlimit:10;stroke-width:5px"/><polyline points="1386.23 2646.25 1460.74 2544.32 1458 2677.82 1662.87 2548.48 1662.7 3013.79 1799.87 2654.76 1532.26 2588.12 1510.66 2449.42 1481.18 2648.2 1465.83 2525.62 1660.13 2132.72 1709.27 2212.74 1653.25 2467.4 1544.22 2555.45 1545.57 2489.64 1807.3 2293.75 1708.79 2327.47 1923.36 2138.14 2154.96 2370.5 1969.98 2523.45 1748.4 2383.46 1701.59 2342.37 1817.94 2486.46 1820.52 2657.06 1955.99 2533.19 1825.41 2480.35 2062.08 2496.5 1959.73 2656.16 1877.97 2744.77 1971.38 2729.76 1958.27 2544.52 1865.22 2739.49 1809.24 2656.83" style="fill:none;stroke:#f3587d;stroke-miterlimit:10;stroke-width:5px"/><polyline points="1807.3 2293.75 1823.58 2211.95 2060.28 2065.71 2063.06 1930.34 1948.59 2100.41 1920.77 2264.11 2102.42 2181.32 2099.15 2340.51 2247.74 2249.52 2062.08 2496.5" style="fill:none;stroke:#f3587d;stroke-miterlimit:10;stroke-width:5px"/><polygon points="1658.81 2105.42 1705.48 2100.25 1873.73 2081.63 1709.27 2212.74 1762.93 2042.67 1954.58 2083.29 1973.59 1982.1 1780.39 2031.74 1683.52 2001.53 1704.34 2086.61 1845.55 1942.79 1831.68 1818.36 1782.6 1924.57 1697.85 1990.54 1785.56 1780.73 1781.32 1986.62 1658.81 2105.42" style="fill:none;stroke:#f3587d;stroke-miterlimit:10;stroke-width:5px"/><polyline points="2288.38 2224.64 2307.28 2200.09 2825.65 1526.55 2853.21 1466.93 2881 1396.02 2859.22 1357.95 2833.28 1338.61 2780.63 1337.53 2709.18 1336.06 2636.73 1383.47 2487.52 1504.55 2063.06 1930.34 2135.43 1978.85 2255.42 1875.98 2122.84 1870.37 2161.38 2058.39 2195.99 2143.74 2275.38 2124.68 2220.82 2216.67 2159.21 2163.68 2330.12 2024.23 2060.28 2065.71" style="fill:none;stroke:#f3587d;stroke-miterlimit:10;stroke-width:5px"/><polyline points="2328.18 2118.24 2311.63 2008.34 2416.38 2037.29 2493.63 1939.19 2495.91 1828.26 2377.06 1936.79 2395.83 2085.03 2444.75 1938.18 2574.88 1829.88 2526.67 1795.97 2678.39 1717.89 2553.97 1566.11 2777.05 1589.7 2759.12 1468.75 2853.21 1466.93 2471.36 1696.08 2444.07 1605.23 2537.77 1622.21 2509.47 1486.74 2683.99 1463.45 2731.75 1336.52 2802.11 1390.64 2691.13 1482.4 2881 1396.02" style="fill:none;stroke:#f3587d;stroke-miterlimit:10;stroke-width:5px"/><polygon points="2427.95 1657.57 2235.73 1757.13 2380.4 1612.01 2427.95 1657.57" style="fill:none;stroke:#f3587d;stroke-miterlimit:10;stroke-width:5px"/><polygon points="2282.25 1790.95 2149.38 1843.76 2256.03 1845.95 2282.25 1790.95" style="fill:none;stroke:#f3587d;stroke-miterlimit:10;stroke-width:5px"/><line x1="2316.77" y1="1758.8" x2="2427.95" y2="1657.57" style="fill:none;stroke:#f3587d;stroke-miterlimit:10;stroke-width:5px"/><polyline points="2097.09 1282.09 2088.71 1323.3 2052.15 1332.85 2152.24 1264.59" style="fill:none;stroke:#f3587d;stroke-miterlimit:10;stroke-width:5px"/><polyline points="1734.61 1902.61 1823.04 1837.05 1931.52 1510.81 1823.33 1696.89 1984.24 1464.11 2052.15 1332.85 2045.61 1392.01" style="fill:none;stroke:#f3587d;stroke-miterlimit:10;stroke-width:5px"/><path d="M3486.6,1437.16l21.06,162.2L3358,1562.42l219.24-142.21-114.55-40,23.91,56.92-23.91-56.92c3.93-2.25,57.34-31.8,102.31-5.42a83.65,83.65,0,0,1,27.67,26.9,67,67,0,0,1,17.25,75.6l-36.08,108.35-49.75,123.13q-54.56,151.42-109.1,302.85l-.42-181.59,68.68-46.86-158.64,15.54-3.37,164.08L3180.9,1987.7l61.17,89.62,83-301.14s-31.67-90.94-44.14-125,99.19,24.61,99.19,24.61L3218.67,1752l-2.7,131-100,84.47,48.27-120.3,20.6-51.34,144.86-245.31,133-170.32c-10.56,27.43-19.73,33.26-26.15,33.5-7.33.27-11.82-6.69-24.53-8.21a42.8,42.8,0,0,0-19.76,2.52L3312,1514.45l-116.49,176.3-125.61,239.13" transform="translate(-1284.3 -149.15)" style="fill:none;stroke:#f3587d;stroke-miterlimit:10;stroke-width:5px"/><path d="M4557.29,3887.56" transform="translate(-1284.3 -149.15)" style="fill:none;stroke:#f3587d;stroke-miterlimit:10;stroke-width:5px"/><polygon points="891.97 3356.51 858.82 3321.97 913.31 3278.89 891.97 3356.51" style="fill:none;stroke:#f3587d;stroke-miterlimit:10;stroke-width:5px"/><polygon points="1366.03 2401.3 1308.93 2304.2 1524.51 2233.39 1372 2331.83 1366.03 2401.3" style="fill:none;stroke:#f3587d;stroke-miterlimit:10;stroke-width:5px"/><path d="M3486.09,2648.52" transform="translate(-1284.3 -149.15)" style="fill:none;stroke:#f3587d;stroke-miterlimit:10;stroke-width:5px"/><polygon points="2066.75 3022.1 2010.28 3110.05 2114.24 3112.19 1964.93 3043.76 2066.75 3022.1" style="fill:none;stroke:#f3587d;stroke-miterlimit:10;stroke-width:5px"/></g><g id="ETH-2" data-name="ETH"><polygon points="1108.81 51.84 536.07 963.89 1108.81 678.37 1108.81 51.84" style="fill:none;stroke:#5bf1cd;stroke-miterlimit:10;stroke-width:5px"/><polyline points="826.02 502.17 1040.66 333.57 1108.81 51.84 1108.81 413.46 536.07 963.89 729.45 867.49 707.14 691.47 994.41 609.69 1108.81 678.37 962.26 751.43 822.44 507.87 848.94 807.92 925.97 343.01" style="fill:none;stroke:#5bf1cd;stroke-miterlimit:10;stroke-width:5px"/><polyline points="997.21 602.68 1040.66 333.57 1108.81 678.37" style="fill:none;stroke:#5bf1cd;stroke-miterlimit:10;stroke-width:5px"/><line x1="924.33" y1="352.9" x2="994.41" y2="609.69" style="fill:none;stroke:#5bf1cd;stroke-miterlimit:10;stroke-width:5px"/><circle cx="1108.81" cy="51.84" r="21.84" style="fill:none;stroke:#5bf1cd;stroke-miterlimit:10;stroke-width:60px"/><circle cx="1108.81" cy="678.37" r="21.84" style="fill:none;stroke:#5bf1cd;stroke-miterlimit:10;stroke-width:60px"/><circle cx="536.07" cy="965.97" r="21.84" style="fill:none;stroke:#5bf1cd;stroke-miterlimit:10;stroke-width:60px"/><polygon points="1108.81 51.84 1681.54 963.89 1108.81 678.37 1108.81 51.84" style="fill:none;stroke:#5bf1cd;stroke-miterlimit:10;stroke-width:5px"/><polyline points="1391.59 502.17 1176.95 333.57 1108.81 51.84 1108.81 413.46 1681.54 963.89 1488.16 867.49 1510.47 691.47 1223.2 609.69 1108.81 678.37 1255.36 751.43 1395.17 507.87 1368.67 807.92 1291.65 343.01" style="fill:none;stroke:#5bf1cd;stroke-miterlimit:10;stroke-width:5px"/><polyline points="1220.4 602.68 1176.95 333.57 1108.81 678.37" style="fill:none;stroke:#5bf1cd;stroke-miterlimit:10;stroke-width:5px"/><line x1="1293.29" y1="352.9" x2="1223.2" y2="609.69" style="fill:none;stroke:#5bf1cd;stroke-miterlimit:10;stroke-width:5px"/><circle cx="1108.81" cy="51.84" r="21.84" style="fill:none;stroke:#5bf1cd;stroke-miterlimit:10;stroke-width:60px"/><circle cx="1681.54" cy="965.97" r="21.84" style="fill:none;stroke:#5bf1cd;stroke-miterlimit:10;stroke-width:60px"/><polygon points="1108.81 2063.98 536.07 1151.93 1108.81 1437.45 1108.81 2063.98" style="fill:none;stroke:#5bf1cd;stroke-miterlimit:10;stroke-width:5px"/><polyline points="826.02 1613.66 1040.66 1782.26 1108.81 2063.98 1108.81 1702.36 536.07 1151.93 729.45 1248.34 707.14 1424.36 994.41 1506.13 1108.81 1437.45 962.26 1364.4 822.44 1607.96 848.94 1307.9 925.97 1772.82" style="fill:none;stroke:#5bf1cd;stroke-miterlimit:10;stroke-width:5px"/><polyline points="997.21 1513.14 1040.66 1782.26 1108.81 1437.45" style="fill:none;stroke:#5bf1cd;stroke-miterlimit:10;stroke-width:5px"/><line x1="924.33" y1="1762.92" x2="994.41" y2="1506.14" style="fill:none;stroke:#5bf1cd;stroke-miterlimit:10;stroke-width:5px"/><circle cx="1108.81" cy="2063.98" r="21.84" style="fill:none;stroke:#5bf1cd;stroke-miterlimit:10;stroke-width:60px"/><circle cx="1108.81" cy="1437.46" r="21.84" style="fill:none;stroke:#5bf1cd;stroke-miterlimit:10;stroke-width:60px"/><circle cx="536.07" cy="1149.86" r="21.84" style="fill:none;stroke:#5bf1cd;stroke-miterlimit:10;stroke-width:60px"/><polygon points="1108.81 2063.98 1681.54 1151.93 1108.81 1437.45 1108.81 2063.98" style="fill:none;stroke:#5bf1cd;stroke-miterlimit:10;stroke-width:5px"/><polyline points="1391.59 1613.66 1176.95 1782.26 1108.81 2063.98 1108.81 1702.36 1681.54 1151.93 1488.16 1248.34 1510.47 1424.36 1223.2 1506.13 1108.81 1437.45 1255.36 1364.4 1395.17 1607.96 1368.67 1307.9 1291.65 1772.82" style="fill:none;stroke:#5bf1cd;stroke-miterlimit:10;stroke-width:5px"/><polyline points="1220.4 1513.14 1176.95 1782.26 1108.81 1437.45" style="fill:none;stroke:#5bf1cd;stroke-miterlimit:10;stroke-width:5px"/><line x1="1293.29" y1="1762.92" x2="1223.2" y2="1506.14" style="fill:none;stroke:#5bf1cd;stroke-miterlimit:10;stroke-width:5px"/><circle cx="1108.81" cy="2063.98" r="21.84" style="fill:none;stroke:#5bf1cd;stroke-miterlimit:10;stroke-width:60px"/><circle cx="1681.54" cy="1149.86" r="21.84" style="fill:none;stroke:#5bf1cd;stroke-miterlimit:10;stroke-width:60px"/><polygon points="645.4 1053.34 611.47 1031.67 605.34 1081.82 645.4 1053.34" style="fill:none;stroke:#7f51d6;stroke-miterlimit:10;stroke-width:5px"/><polyline points="654.68 1106.23 645.4 1053.34 666.42 1004.28 757.53 1081.82 652.41 1056.75 672.62 1042.34 822.44 935.56 749.12 1101.69 709.04 1133.11 690.25 1081.82 822.44 1189.19 896.29 1004.28 747.1 1151.93 719.96 977.59 770.85 1023.86 687.45 1057.29 1108.81 1042.08 915.22 1235.08 956.21 859.82 1108.81 1190.66 1004.22 1273.04 1108.81 1262.88 858.31 1206.93 1108.81 857.24 1022.29 826.88 1030.85 1187.85 877.1 977.59 899.8 887.94 936.94 947.51 822.44 1031.67 822.44 926.5 1095.33 995.87 846.73 1201.21 792.57 1081.82 908.91 1109.4 1087.83 817.92 1108.81 783.75 693.06 987.81 625.37 1093.22 1108.81 1323.81 1108.81 823.51 1070.1 817.39 1108.81 810.81" style="fill:none;stroke:#7f51d6;stroke-miterlimit:10;stroke-width:5px"/><polygon points="557.91 1053.78 666.42 1004.28 625.37 1093.22 557.91 1053.78" style="fill:none;stroke:#7f51d6;stroke-miterlimit:10;stroke-width:5px"/><polygon points="1572.21 1052.89 1606.14 1031.22 1612.27 1081.38 1572.21 1052.89" style="fill:none;stroke:#7f51d6;stroke-miterlimit:10;stroke-width:5px"/><polyline points="1562.93 1105.78 1572.21 1052.89 1551.19 1003.83 1460.08 1081.38 1565.2 1056.3 1544.99 1041.89 1395.17 935.11 1468.49 1101.24 1508.57 1132.66 1527.36 1081.38 1395.17 1188.74 1321.32 1003.83 1470.51 1151.48 1497.65 977.14 1446.77 1023.41 1530.16 1056.84 1108.81 1041.63 1302.39 1234.63 1261.4 859.37 1108.81 1190.21 1213.39 1272.59 1108.81 1262.43 1359.31 1206.48 1108.81 856.79 1195.32 826.43 1186.76 1187.4 1340.51 977.14 1317.81 887.5 1280.67 947.06 1395.17 1031.22 1395.17 926.06 1122.29 995.42 1370.88 1200.76 1425.04 1081.38 1308.7 1108.95 1129.78 817.48 1108.81 783.31 1524.56 987.36 1592.24 1092.78 1108.81 1323.36 1108.81 823.06 1147.52 816.95 1108.81 810.37" style="fill:none;stroke:#7f51d6;stroke-miterlimit:10;stroke-width:5px"/><polygon points="1659.7 1053.34 1551.19 1003.83 1592.24 1092.78 1659.7 1053.34" style="fill:none;stroke:#7f51d6;stroke-miterlimit:10;stroke-width:5px"/><polyline points="1078.51 1304.25 1030.85 1187.85 978.16 1261.5 924.33 1165.95 1108.81 1205.55 1067.84 1253.73 803.09 1131.73 557.91 1053.78 1108.81 1219.1 1220.4 1185.52 1528.62 1092.78 1659.7 1053.34 1185.38 1182.32 1121.01 1199.83 1148.88 1304.25 1210.96 1199.83 1258.24 1252.08 1280.34 1180.55 1328.7 1199.83 1350.52 1161.28 1427.51 1149.86 1446.43 1087.69" style="fill:none;stroke:#7f51d6;stroke-miterlimit:10;stroke-width:5px"/></g></g></g></svg>