<svg xmlns="http://www.w3.org/2000/svg" viewBox="0 0 5011.35 2226.77"><title>BOUNTY LINE ART 1</title><g style="isolation:isolate"><g id="Layer_1" data-name="Layer 1"><g style="mix-blend-mode:soft-light"><g id="LEFT_HAND" data-name="LEFT HAND"><polygon points="11.19 1626.78 123.46 1590.95 92.36 1643.68 11.19 1626.78" style="fill:none;stroke:#f3587d;stroke-miterlimit:10;stroke-width:5px"/><polygon points="113.32 1734.28 155.23 1686.95 92.36 1643.68 113.32 1734.28" style="fill:none;stroke:#f3587d;stroke-miterlimit:10;stroke-width:5px"/><polygon points="92.36 1847.85 113.32 1734.28 183.63 1739.68 92.36 1847.85" style="fill:none;stroke:#f3587d;stroke-miterlimit:10;stroke-width:5px"/><polygon points="123.46 1903.97 121.55 1900.52 92.36 1847.85 199.18 1872.87 123.46 1903.97" style="fill:none;stroke:#f3587d;stroke-miterlimit:10;stroke-width:5px"/><polygon points="11.19 2136.87 51.8 2082.11 170.44 1998.95 270.84 1998.95 109.6 2067.91 11.19 2136.87" style="fill:none;stroke:#f3587d;stroke-miterlimit:10;stroke-width:5px"/><polyline points="280.98 1881.32 170.44 1998.95 249.54 1961.43 280.98 1887.4 339.8 1920.87 415.85 1964.47 434.11 1881.32 346.89 1917.83 257.65 1960.42 339.8 2008.08 409.77 1968.53 481.77 2029.37 338.78 1998.95 270.84 1991.85 270.84 1961.43 398.61 1963.46 477.71 1928.98 435.12 1875.91" style="fill:none;stroke:#f3587d;stroke-miterlimit:10;stroke-width:5px"/><polygon points="234.33 1847.85 240.42 1952.64 277.94 1875.91 234.33 1847.85" style="fill:none;stroke:#f3587d;stroke-miterlimit:10;stroke-width:5px"/><polygon points="390.5 1842.78 239.76 1851.35 386.44 1754.56 390.5 1842.78" style="fill:none;stroke:#f3587d;stroke-miterlimit:10;stroke-width:5px"/><polygon points="366.16 1688.98 386.44 1754.56 277.94 1711.97 366.16 1688.98" style="fill:none;stroke:#f3587d;stroke-miterlimit:10;stroke-width:5px"/><polygon points="320.19 1603.8 277.94 1711.97 260.7 1668.02 320.19 1603.8" style="fill:none;stroke:#f3587d;stroke-miterlimit:10;stroke-width:5px"/><polygon points="234.33 1617.32 256.13 1672.76 183.63 1739.68 155.23 1686.95 251.23 1672.08 234.33 1617.32" style="fill:none;stroke:#f3587d;stroke-miterlimit:10;stroke-width:5px"/><polygon points="183.63 1593.66 234.33 1617.32 315.13 1491.91 222.7 1539.67 123.46 1590.95 183.63 1593.66" style="fill:none;stroke:#f3587d;stroke-miterlimit:10;stroke-width:5px"/><polyline points="224.87 1542.28 183.63 1593.66 228.75 1542.78 367.18 1538.56 315.13 1491.91 449.32 1515.23 449.32 1573.37 370.89 1538.22 441.88 1519.29 452.02 1661.26 510.16 1661.26 481.77 1622.05 453.37 1571.35 510.16 1590.95 448.64 1661.26" style="fill:none;stroke:#f3587d;stroke-miterlimit:10;stroke-width:5px"/><polygon points="611.57 1661.26 510.16 1661.26 510.16 1590.95 611.57 1661.26" style="fill:none;stroke:#f3587d;stroke-miterlimit:10;stroke-width:5px"/><polygon points="523.35 1491.91 510.16 1590.95 588.75 1541.43 588.75 1456.92 523.35 1491.91" style="fill:none;stroke:#f3587d;stroke-miterlimit:10;stroke-width:5px"/><path d="M630.8,2573.85l-51.72,34.3Z" transform="translate(9.67 -1066.72)" style="fill:none;stroke:#f3587d;stroke-miterlimit:10;stroke-width:5px"/><polyline points="470.11 1426.5 481.77 1391.52 390.5 1450.84 467.06 1435.63 549.46 1421.94 640.47 1507.12 588.75 1456.92 614.61 1367.8 555.8 1416.87 487.85 1399.63 515.49 1379.85 614.61 1367.8 634.56 1299.57 510.16 1379.85" style="fill:none;stroke:#f3587d;stroke-miterlimit:10;stroke-width:5px"/><polygon points="588.75 1847.85 510.16 1931.52 611.57 1961.94 510.16 1922.39 521.82 1998.95 588.75 1847.85" style="fill:none;stroke:#f3587d;stroke-miterlimit:10;stroke-width:5px"/><polygon points="728.7 1791.06 726.71 1798.2 698.27 1900.25 698.27 1969.54 815.4 1969.54 708.92 1903.97 775.85 1880.3 728.7 1791.06" style="fill:none;stroke:#f3587d;stroke-miterlimit:10;stroke-width:5px"/><polygon points="67.32 2136.87 53.82 2221.04 123.8 2168.3 67.32 2136.87" style="fill:none;stroke:#f3587d;stroke-miterlimit:10;stroke-width:5px"/><polygon points="92.36 1969.54 53.82 1989.83 19.34 1969.54 92.36 1969.54" style="fill:none;stroke:#f3587d;stroke-miterlimit:10;stroke-width:5px"/><polygon points="53.82 1791.06 19.34 1802.95 19.34 1772.81 53.82 1791.06" style="fill:none;stroke:#f3587d;stroke-miterlimit:10;stroke-width:5px"/><polygon points="92.36 1476.7 92.36 1515.23 53.82 1491.91 92.36 1476.7" style="fill:none;stroke:#f3587d;stroke-miterlimit:10;stroke-width:5px"/><polygon points="332.19 2079.06 366.16 2101.37 390.5 2079.06 332.19 2079.06" style="fill:none;stroke:#f3587d;stroke-miterlimit:10;stroke-width:5px"/><polygon points="510.16 2101.37 629.82 2101.37 549.46 2067.91 510.16 2101.37" style="fill:none;stroke:#f3587d;stroke-miterlimit:10;stroke-width:5px"/><polyline points="491.91 2029.37 560.87 2029.37 640.47 2067.91 815.4 2084.64 735.29 2029.37 629.82 2057.01" style="fill:none;stroke:#f3587d;stroke-miterlimit:10;stroke-width:5px"/><polygon points="815.4 1969.54 735.29 2029.37 822.5 2029.37 815.4 1969.54" style="fill:none;stroke:#f3587d;stroke-miterlimit:10;stroke-width:5px"/><polyline points="809.32 2158.16 882.33 2166.28 844.81 2216.98 802.22 2160.19 873.77 2202.78 873.77 2131.8 815.4 2131.8 802.22 2165.26" style="fill:none;stroke:#f3587d;stroke-miterlimit:10;stroke-width:5px"/><polyline points="611.57 1961.94 543.12 1851.35 593.32 1841.77 510.16 1922.39 537.04 1858.5" style="fill:none;stroke:#f3587d;stroke-miterlimit:10;stroke-width:5px"/><polygon points="822.5 2029.37 941.65 1999.46 941.65 2057.01 822.5 2029.37" style="fill:none;stroke:#f3587d;stroke-miterlimit:10;stroke-width:5px"/><polygon points="815.4 2084.64 956.87 2115.57 882.33 2067.91 815.4 2084.64" style="fill:none;stroke:#f3587d;stroke-miterlimit:10;stroke-width:5px"/><line x1="941.66" y1="2057.01" x2="882.33" y2="2067.91" style="fill:none;stroke:#f3587d;stroke-miterlimit:10;stroke-width:5px"/><polygon points="987.29 2091.74 1032.92 2115.57 956.87 2115.57 891.93 2101.37 987.29 2091.74" style="fill:none;stroke:#f3587d;stroke-miterlimit:10;stroke-width:5px"/><polyline points="611.57 1661.26 635.91 1688.98 687.63 1657.88 515.49 1590.95" style="fill:none;stroke:#f3587d;stroke-miterlimit:10;stroke-width:5px"/><polygon points="773.82 1639.97 687.63 1657.88 773.82 1695.74 773.82 1639.97" style="fill:none;stroke:#f3587d;stroke-miterlimit:10;stroke-width:5px"/><polygon points="852.92 1584.19 773.82 1639.97 917.82 1612.08 852.92 1584.19" style="fill:none;stroke:#f3587d;stroke-miterlimit:10;stroke-width:5px"/><polygon points="756.84 1541.43 852.92 1584.19 792.08 1507.12 756.84 1541.43" style="fill:none;stroke:#f3587d;stroke-miterlimit:10;stroke-width:5px"/><polygon points="756.84 1477.71 792.08 1507.12 756.84 1541.43 756.84 1477.71" style="fill:none;stroke:#f3587d;stroke-miterlimit:10;stroke-width:5px"/><polygon points="717.04 1456.92 756.84 1477.71 717.04 1411.8 717.04 1456.92" style="fill:none;stroke:#f3587d;stroke-miterlimit:10;stroke-width:5px"/><polygon points="614.61 1367.8 717.04 1411.8 698.27 1347.91 614.61 1367.8" style="fill:none;stroke:#f3587d;stroke-miterlimit:10;stroke-width:5px"/><polygon points="774.46 1212.02 683.57 1264.99 677.43 1269.33 695.74 1342.84 774.46 1277.43 670.39 1281.99 634.56 1299.57 687.63 1342.84 814.39 1342.84 774.46 1285.04 774.46 1212.02" style="fill:none;stroke:#f3587d;stroke-miterlimit:10;stroke-width:5px"/><polygon points="875.23 1186.67 774.46 1212.02 773.82 1272.87 875.23 1186.67" style="fill:none;stroke:#f3587d;stroke-miterlimit:10;stroke-width:5px"/><polygon points="913.77 1212.02 875.23 1186.67 961.43 1179.57 913.77 1212.02" style="fill:none;stroke:#f3587d;stroke-miterlimit:10;stroke-width:5px"/><polygon points="814.39 1342.84 952.3 1229.77 926.95 1286.3 814.39 1342.84" style="fill:none;stroke:#f3587d;stroke-miterlimit:10;stroke-width:5px"/><polygon points="792.08 1417.88 832.64 1389.49 804.88 1342.84 792.08 1417.88" style="fill:none;stroke:#f3587d;stroke-miterlimit:10;stroke-width:5px"/><polygon points="814.39 1449.32 792.08 1417.88 756.84 1477.71 814.39 1449.32" style="fill:none;stroke:#f3587d;stroke-miterlimit:10;stroke-width:5px"/><polyline points="845.82 1523.94 814.39 1449.32 792.08 1507.12 867.12 1576.59 971.57 1523.94 909.71 1491.91 983.74 1456.92 999.97 1512.95 961.43 1607.52 917.82 1612.08 969.54 1530.7 975.63 1491.91 991.85 1518.28" style="fill:none;stroke:#f3587d;stroke-miterlimit:10;stroke-width:5px"/><polygon points="952.3 1688.98 917.82 1612.08 961.43 1607.52 952.3 1688.98" style="fill:none;stroke:#f3587d;stroke-miterlimit:10;stroke-width:5px"/><path d="M873.67,2795.93l34.48-117.13Z" transform="translate(9.67 -1066.72)" style="fill:none;stroke:#f3587d;stroke-miterlimit:10;stroke-width:5px"/><polyline points="952.3 1688.98 883.35 1729.2 773.82 1639.97 815.4 1754.56 875.23 1765.71 961.43 1809.83 952.3 1761.15 896.02 1739.68 867.63 1754.56 861.04 1847.85 815.4 1762.67" style="fill:none;stroke:#f3587d;stroke-miterlimit:10;stroke-width:5px"/><polygon points="976.64 1952.64 861.04 1847.85 961.43 1809.83 1007.06 1809.83 962.43 1834.16 962.43 1890.44 976.97 1892.11 1048.13 1900.25 1131.8 1969.54 1090.73 2012.13 1010.11 1979.68 941.65 1999.46 976.64 1952.64" style="fill:none;stroke:#f3587d;stroke-miterlimit:10;stroke-width:5px"/><polyline points="975.12 1939.12 976.97 1892.11 873.77 1859.4 1014.67 1847.85 1032.92 1898.51 1166.78 1910.98 1131.8 1969.54 985.77 1900.25 1143.96 2067.91 1096.81 2091.74 1089.2 2028.23 1197.2 2037.99 1140.92 1979.68 1250.44 1969.54 1174.39 1923.4 1308.25 1952.64 1308.25 1998.95 1285.43 2029.37 1174.39 1989.83 1207.85 1952.64 1235.23 1923.4 1274.78 2115.57 1279.35 2050.16 1212.42 2057.01 1239.8 2136.87 1150.05 2191.63 1216.98 2191.63 1131.8 2127.74 1032.92 2103.66 1210.89 2084.64 1261.09 2101.37 1233.71 2152.08 1349.32 2166.28 1375.18 2115.57 1440.59 2178.95 1268.7 2166.28 1435.01 2147.01 1440.59 2174.39 1546.56 2191.63 1512.08 2103.66 1450.22 2103.66 1486.73 2058.78 1413.71 2025.32 1270.73 2037.49 1379.23 1967.52 1316.36 1954.33 1384.3 1971.57 1451.23 2115.57 1446.16 1996.92 1385.32 1966.5" style="fill:none;stroke:#f3587d;stroke-miterlimit:10;stroke-width:5px"/><polyline points="1587.12 2161.2 1546.56 2191.63 1512.08 2103.66 1582.05 2155.12 1577.99 2103.66 1512.08 2042.56 1446.16 1996.92 1486.73 2058.78 1516.64 2051.68 1507.01 2099.35 1487.74 2067.91" style="fill:none;stroke:#f3587d;stroke-miterlimit:10;stroke-width:5px"/><polyline points="999.97 1495.97 1055.74 1456.92 983.74 1456.92 1055.74 1347.91 804.88 1342.84 999.97 1272.87 1032.92 1417.88 1107.46 1431.06 999.97 1444.76 1065.88 1454.39 1279.85 1353.99 1237.26 1326.61 1099.35 1353.99 1050.67 1411.8 1086.16 1411.8 1194.67 1272.87 1175.4 1325.6 1279.85 1212.02 1157.15 1084.59 1072.64 1182.61 1145.65 1303.63 1167.29 1329.32 1090.89 1264.99 998.95 1261.71 1067.23 1190.05 1094.28 1261.04 1088.19 1133.26 1000.98 1186.67 952.3 1229.77 961.43 1179.57 1061.15 1188.7 955.01 1236.7 998.95 1267.8" style="fill:none;stroke:#f3587d;stroke-miterlimit:10;stroke-width:5px"/><polyline points="1194.67 1272.87 1238.95 1264.99 1320.42 1139.01 1393.43 1139.01 1300.47 1198.84 1211.91 1212.02 1258.56 1115.01 1172.7 1115.01 1223.4 1035.91 1088.19 1133.26" style="fill:none;stroke:#f3587d;stroke-miterlimit:10;stroke-width:5px"/><polygon points="1294.56 1355.01 1297.86 1329.9 1309.77 1239.4 1237.26 1326.61 1329.54 1299.57 1309.77 1195.8 1364.53 1186.67 1335.63 1290.28 1350.84 1342.84 1305.2 1330.67 1384.3 1256.13 1451.23 1264.99 1393.43 1290.28 1356.92 1335.23 1471.01 1290.28 1359.96 1290.28 1294.56 1355.01" style="fill:none;stroke:#f3587d;stroke-miterlimit:10;stroke-width:5px"/><polyline points="1237.26 1014.28 1250.71 1004.36 1619.57 732.36 1652.02 718.16 1690.56 703.97 1710.84 716.13 1720.98 730.33 1720.98 758.73 1720.98 797.26 1694.61 835.8 1627.68 914.89 1393.43 1139.01 1368.08 1099.46 1424.87 1035.91 1426.42 1107.44 1325.49 1084.59 1279.85 1064.98 1291.01 1022.39 1240.81 1050.78 1268.7 1084.59 1345.77 993.99 1320.42 1139.01" style="fill:none;stroke:#f3587d;stroke-miterlimit:10;stroke-width:5px"/><polyline points="1295.06 993.99 1354.13 1004.13 1339.68 947.35 1393.43 906.78 1453.26 906.78 1393.43 969.66 1313.72 957.89 1393.43 933.15 1453.26 864.19 1471.01 890.56 1514.79 809.63 1595.23 878.39 1584.99 757.86 1649.99 768.87 1652.02 718.16 1524.25 921.49 1572.92 937.21 1564.81 886.5 1637.53 903.26 1652.02 809.43 1720.98 785.09 1692.59 746.56 1641.88 805.37 1690.56 703.97" style="fill:none;stroke:#f3587d;stroke-miterlimit:10;stroke-width:5px"/><polygon points="1544.53 945.32 1488.72 1047.84 1568.56 971.46 1544.53 945.32" style="fill:none;stroke:#f3587d;stroke-miterlimit:10;stroke-width:5px"/><polygon points="1471.01 1022.39 1441.06 1093.44 1441.06 1035.91 1471.01 1022.39" style="fill:none;stroke:#f3587d;stroke-miterlimit:10;stroke-width:5px"/><line x1="1488.72" y1="1004.13" x2="1544.53" y2="945.32" style="fill:none;stroke:#f3587d;stroke-miterlimit:10;stroke-width:5px"/><polyline points="1743.29 1127.85 1720.98 1131.91 1715.42 1151.52 1753.33 1098.32" style="fill:none;stroke:#f3587d;stroke-miterlimit:10;stroke-width:5px"/><polyline points="1404.74 1316.39 1441.06 1269.44 1618.14 1214.58 1516.62 1270.84 1643.91 1186.67 1715.42 1151.52 1683.46 1154.39" style="fill:none;stroke:#f3587d;stroke-miterlimit:10;stroke-width:5px"/><path d="M1731.59,2137.79l-87.21-13.15q9.12,40.55,18.25,81.09l79.1-116.62,20.28,62.2-30.42-13.52,30.42,13.52c1.26-2.09,17.78-30.56,4.06-55.1a45.2,45.2,0,0,0-14.2-15.21,36.12,36.12,0,0,0-40.57-10.14l-58.81,18.25-66.93,25.46L1421.08,2170l97.89,2.24,26-36.51-10.15,85.35h-88.49l-15,75.38-47.63-34L1547,2221.11s48.68,18.09,66.93,25.19-12.17-53.75-12.17-53.75l-42.89,86.2h-70.68l-46.65,53L1507,2307l27.9-10.54,133.86-75.38,93.3-69.8c-14.91,5.39-18.15,10.27-18.35,13.73-.23,3.94,3.47,6.44,4.15,13.31a23,23,0,0,1-1.58,10.63l-58.25,42.1-96.34,60.85L1461.33,2357" transform="translate(9.67 -1066.72)" style="fill:none;stroke:#f3587d;stroke-miterlimit:10;stroke-width:5px"/><path d="M422.4,1533.39" transform="translate(9.67 -1066.72)" style="fill:none;stroke:#f3587d;stroke-miterlimit:10;stroke-width:5px"/><polygon points="611.57 1754.56 629.82 1772.81 653.65 1743.91 611.57 1754.56" style="fill:none;stroke:#f3587d;stroke-miterlimit:10;stroke-width:5px"/><polygon points="1131.8 1509.57 1183.51 1541.43 1224.08 1425.99 1169.32 1507.12 1131.8 1509.57" style="fill:none;stroke:#f3587d;stroke-miterlimit:10;stroke-width:5px"/><path d="M1078.52,2124.64" transform="translate(9.67 -1066.72)" style="fill:none;stroke:#f3587d;stroke-miterlimit:10;stroke-width:5px"/><polygon points="804.88 1124.92 756.84 1154.39 756.84 1098.32 792.08 1179.57 804.88 1124.92" style="fill:none;stroke:#f3587d;stroke-miterlimit:10;stroke-width:5px"/></g><g id="RIGHT_HAND" data-name="RIGHT HAND"><polygon points="5000.16 1624.78 4887.89 1588.95 4918.99 1641.68 5000.16 1624.78" style="fill:none;stroke:#f3587d;stroke-miterlimit:10;stroke-width:5px"/><polygon points="4898.03 1732.28 4856.12 1684.95 4918.99 1641.68 4898.03 1732.28" style="fill:none;stroke:#f3587d;stroke-miterlimit:10;stroke-width:5px"/><polygon points="4918.99 1845.85 4898.03 1732.28 4827.72 1737.68 4918.99 1845.85" style="fill:none;stroke:#f3587d;stroke-miterlimit:10;stroke-width:5px"/><polygon points="4887.89 1901.97 4889.8 1898.52 4918.99 1845.85 4812.17 1870.87 4887.89 1901.97" style="fill:none;stroke:#f3587d;stroke-miterlimit:10;stroke-width:5px"/><polygon points="5000.16 2134.87 4959.55 2080.11 4840.9 1996.95 4740.51 1996.95 4901.75 2065.91 5000.16 2134.87" style="fill:none;stroke:#f3587d;stroke-miterlimit:10;stroke-width:5px"/><polyline points="4730.37 1879.32 4840.9 1996.95 4761.81 1959.43 4730.37 1885.4 4671.55 1918.87 4595.5 1962.47 4577.24 1879.32 4664.45 1915.83 4753.69 1958.42 4671.55 2006.08 4601.58 1966.53 4529.58 2027.37 4672.57 1996.95 4740.51 1989.85 4740.51 1959.43 4612.73 1961.46 4533.64 1926.98 4576.23 1873.91" style="fill:none;stroke:#f3587d;stroke-miterlimit:10;stroke-width:5px"/><polygon points="4777.02 1845.85 4770.93 1950.64 4733.41 1873.91 4777.02 1845.85" style="fill:none;stroke:#f3587d;stroke-miterlimit:10;stroke-width:5px"/><polygon points="4620.85 1840.78 4771.59 1849.35 4624.9 1752.56 4620.85 1840.78" style="fill:none;stroke:#f3587d;stroke-miterlimit:10;stroke-width:5px"/><polygon points="4645.19 1686.98 4624.9 1752.56 4733.41 1709.97 4645.19 1686.98" style="fill:none;stroke:#f3587d;stroke-miterlimit:10;stroke-width:5px"/><polygon points="4691.16 1601.8 4733.41 1709.97 4750.65 1666.02 4691.16 1601.8" style="fill:none;stroke:#f3587d;stroke-miterlimit:10;stroke-width:5px"/><polygon points="4777.02 1615.32 4755.21 1670.76 4827.72 1737.68 4856.12 1684.95 4760.12 1670.08 4777.02 1615.32" style="fill:none;stroke:#f3587d;stroke-miterlimit:10;stroke-width:5px"/><polygon points="4827.72 1591.66 4777.02 1615.32 4696.22 1489.91 4788.65 1537.67 4887.89 1588.95 4827.72 1591.66" style="fill:none;stroke:#f3587d;stroke-miterlimit:10;stroke-width:5px"/><polyline points="4786.48 1540.28 4827.72 1591.66 4782.6 1540.78 4644.17 1536.56 4696.22 1489.91 4562.03 1513.23 4562.03 1571.37 4640.45 1536.22 4569.47 1517.29 4559.33 1659.26 4501.19 1659.26 4529.58 1620.05 4557.98 1569.35 4501.19 1588.95 4562.71 1659.26" style="fill:none;stroke:#f3587d;stroke-miterlimit:10;stroke-width:5px"/><polygon points="4399.78 1659.26 4501.19 1659.26 4501.19 1588.95 4399.78 1659.26" style="fill:none;stroke:#f3587d;stroke-miterlimit:10;stroke-width:5px"/><polygon points="4488 1489.91 4501.19 1588.95 4422.6 1539.43 4422.6 1454.92 4488 1489.91" style="fill:none;stroke:#f3587d;stroke-miterlimit:10;stroke-width:5px"/><path d="M4361.2,2571.85l51.72,34.3Z" transform="translate(9.67 -1066.72)" style="fill:none;stroke:#f3587d;stroke-miterlimit:10;stroke-width:5px"/><polyline points="4541.24 1424.5 4529.58 1389.52 4620.85 1448.84 4544.28 1433.63 4461.89 1419.94 4370.88 1505.12 4422.6 1454.92 4396.73 1365.8 4455.55 1414.87 4523.5 1397.63 4495.86 1377.85 4396.73 1365.8 4376.79 1297.57 4501.19 1377.85" style="fill:none;stroke:#f3587d;stroke-miterlimit:10;stroke-width:5px"/><polygon points="4422.6 1845.85 4501.19 1929.52 4399.78 1959.94 4501.19 1920.39 4489.52 1996.95 4422.6 1845.85" style="fill:none;stroke:#f3587d;stroke-miterlimit:10;stroke-width:5px"/><polygon points="4282.65 1789.06 4284.64 1796.2 4313.07 1898.25 4313.07 1967.54 4195.95 1967.54 4302.43 1901.97 4235.5 1878.3 4282.65 1789.06" style="fill:none;stroke:#f3587d;stroke-miterlimit:10;stroke-width:5px"/><polygon points="4944.02 2134.87 4957.52 2219.04 4887.55 2166.3 4944.02 2134.87" style="fill:none;stroke:#f3587d;stroke-miterlimit:10;stroke-width:5px"/><polygon points="4918.99 1967.54 4957.52 1987.83 4992 1967.54 4918.99 1967.54" style="fill:none;stroke:#f3587d;stroke-miterlimit:10;stroke-width:5px"/><polygon points="4957.52 1789.06 4992 1800.95 4992 1770.81 4957.52 1789.06" style="fill:none;stroke:#f3587d;stroke-miterlimit:10;stroke-width:5px"/><polygon points="4918.99 1474.7 4918.99 1513.23 4957.52 1489.91 4918.99 1474.7" style="fill:none;stroke:#f3587d;stroke-miterlimit:10;stroke-width:5px"/><polygon points="4679.16 2077.06 4645.19 2099.37 4620.85 2077.06 4679.16 2077.06" style="fill:none;stroke:#f3587d;stroke-miterlimit:10;stroke-width:5px"/><polygon points="4501.19 2099.37 4381.52 2099.37 4461.89 2065.91 4501.19 2099.37" style="fill:none;stroke:#f3587d;stroke-miterlimit:10;stroke-width:5px"/><polyline points="4519.44 2027.37 4450.48 2027.37 4370.88 2065.91 4195.95 2082.64 4276.06 2027.37 4381.52 2055.01" style="fill:none;stroke:#f3587d;stroke-miterlimit:10;stroke-width:5px"/><polygon points="4195.95 1967.54 4276.06 2027.37 4188.85 2027.37 4195.95 1967.54" style="fill:none;stroke:#f3587d;stroke-miterlimit:10;stroke-width:5px"/><polyline points="4202.03 2156.16 4129.02 2164.28 4166.54 2214.98 4209.13 2158.19 4137.58 2200.78 4137.58 2129.8 4195.95 2129.8 4209.13 2163.26" style="fill:none;stroke:#f3587d;stroke-miterlimit:10;stroke-width:5px"/><polyline points="4399.78 1959.94 4468.23 1849.35 4418.03 1839.77 4501.19 1920.39 4474.31 1856.5" style="fill:none;stroke:#f3587d;stroke-miterlimit:10;stroke-width:5px"/><polygon points="4188.85 2027.37 4069.69 1997.46 4069.69 2055.01 4188.85 2027.37" style="fill:none;stroke:#f3587d;stroke-miterlimit:10;stroke-width:5px"/><polygon points="4195.95 2082.64 4054.48 2113.57 4129.02 2065.91 4195.95 2082.64" style="fill:none;stroke:#f3587d;stroke-miterlimit:10;stroke-width:5px"/><line x1="4069.69" y1="2055.01" x2="4129.02" y2="2065.91" style="fill:none;stroke:#f3587d;stroke-miterlimit:10;stroke-width:5px"/><polygon points="4024.06 2089.74 3978.43 2113.57 4054.48 2113.57 4119.42 2099.37 4024.06 2089.74" style="fill:none;stroke:#f3587d;stroke-miterlimit:10;stroke-width:5px"/><polyline points="4399.78 1659.26 4375.44 1686.98 4323.72 1655.88 4495.86 1588.95" style="fill:none;stroke:#f3587d;stroke-miterlimit:10;stroke-width:5px"/><polygon points="4237.52 1637.97 4323.72 1655.88 4237.52 1693.74 4237.52 1637.97" style="fill:none;stroke:#f3587d;stroke-miterlimit:10;stroke-width:5px"/><polygon points="4158.43 1582.19 4237.52 1637.97 4093.52 1610.08 4158.43 1582.19" style="fill:none;stroke:#f3587d;stroke-miterlimit:10;stroke-width:5px"/><polygon points="4254.51 1539.43 4158.43 1582.19 4219.27 1505.12 4254.51 1539.43" style="fill:none;stroke:#f3587d;stroke-miterlimit:10;stroke-width:5px"/><polygon points="4254.51 1475.71 4219.27 1505.12 4254.51 1539.43 4254.51 1475.71" style="fill:none;stroke:#f3587d;stroke-miterlimit:10;stroke-width:5px"/><polygon points="4294.31 1454.92 4254.51 1475.71 4294.31 1409.8 4294.31 1454.92" style="fill:none;stroke:#f3587d;stroke-miterlimit:10;stroke-width:5px"/><polygon points="4396.73 1365.8 4294.31 1409.8 4313.07 1345.91 4396.73 1365.8" style="fill:none;stroke:#f3587d;stroke-miterlimit:10;stroke-width:5px"/><polygon points="4236.89 1210.02 4327.78 1262.99 4333.92 1267.33 4315.61 1340.84 4236.89 1275.43 4340.96 1279.99 4376.79 1297.57 4323.72 1340.84 4196.96 1340.84 4236.89 1283.04 4236.89 1210.02" style="fill:none;stroke:#f3587d;stroke-miterlimit:10;stroke-width:5px"/><polygon points="4136.12 1184.67 4236.89 1210.02 4237.52 1270.87 4136.12 1184.67" style="fill:none;stroke:#f3587d;stroke-miterlimit:10;stroke-width:5px"/><polygon points="4097.58 1210.02 4136.12 1184.67 4049.92 1177.57 4097.58 1210.02" style="fill:none;stroke:#f3587d;stroke-miterlimit:10;stroke-width:5px"/><polygon points="4196.96 1340.84 4059.05 1227.77 4084.4 1284.3 4196.96 1340.84" style="fill:none;stroke:#f3587d;stroke-miterlimit:10;stroke-width:5px"/><polygon points="4219.27 1415.88 4178.71 1387.49 4206.47 1340.84 4219.27 1415.88" style="fill:none;stroke:#f3587d;stroke-miterlimit:10;stroke-width:5px"/><polygon points="4196.96 1447.32 4219.27 1415.88 4254.51 1475.71 4196.96 1447.32" style="fill:none;stroke:#f3587d;stroke-miterlimit:10;stroke-width:5px"/><polyline points="4165.52 1521.94 4196.96 1447.32 4219.27 1505.12 4144.23 1574.59 4039.78 1521.94 4101.64 1489.91 4027.61 1454.92 4011.38 1510.95 4049.92 1605.52 4093.52 1610.08 4041.81 1528.7 4035.72 1489.91 4019.5 1516.28" style="fill:none;stroke:#f3587d;stroke-miterlimit:10;stroke-width:5px"/><polygon points="4059.05 1686.98 4093.52 1610.08 4049.92 1605.52 4059.05 1686.98" style="fill:none;stroke:#f3587d;stroke-miterlimit:10;stroke-width:5px"/><path d="M4118.33,2793.93l-34.48-117.13Z" transform="translate(9.67 -1066.72)" style="fill:none;stroke:#f3587d;stroke-miterlimit:10;stroke-width:5px"/><polyline points="4059.05 1686.98 4128 1727.2 4237.52 1637.97 4195.95 1752.56 4136.12 1763.71 4049.92 1807.83 4059.05 1759.15 4115.33 1737.68 4143.72 1752.56 4150.31 1845.85 4195.95 1760.67" style="fill:none;stroke:#f3587d;stroke-miterlimit:10;stroke-width:5px"/><polygon points="4034.71 1950.64 4150.31 1845.85 4049.92 1807.83 4004.28 1807.83 4048.92 1832.16 4048.92 1888.44 4034.38 1890.11 3963.21 1898.25 3879.55 1967.54 3920.62 2010.13 4001.24 1977.68 4069.69 1997.46 4034.71 1950.64" style="fill:none;stroke:#f3587d;stroke-miterlimit:10;stroke-width:5px"/><polyline points="4036.23 1937.12 4034.38 1890.11 4137.58 1857.4 3996.68 1845.85 3978.43 1896.51 3844.57 1908.98 3879.55 1967.54 4025.58 1898.25 3867.38 2065.91 3914.54 2089.74 3922.14 2026.23 3814.14 2035.99 3870.43 1977.68 3760.9 1967.54 3836.96 1921.4 3703.1 1950.64 3703.1 1996.95 3725.92 2027.37 3836.96 1987.83 3803.5 1950.64 3776.12 1921.4 3736.57 2113.57 3732 2048.16 3798.93 2055.01 3771.55 2134.87 3861.3 2189.63 3794.37 2189.63 3879.55 2125.74 3978.43 2101.66 3800.45 2082.64 3750.26 2099.37 3777.64 2150.08 3662.03 2164.28 3636.17 2113.57 3570.76 2176.95 3742.65 2164.28 3576.34 2145.01 3570.76 2172.39 3464.79 2189.63 3499.27 2101.66 3561.13 2101.66 3524.62 2056.78 3597.64 2023.32 3740.62 2035.49 3632.12 1965.52 3694.99 1952.33 3627.05 1969.57 3560.12 2113.57 3565.19 1994.92 3626.03 1964.5" style="fill:none;stroke:#f3587d;stroke-miterlimit:10;stroke-width:5px"/><polyline points="3424.23 2159.2 3464.79 2189.63 3499.27 2101.66 3429.3 2153.12 3433.36 2101.66 3499.27 2040.56 3565.19 1994.92 3524.62 2056.78 3494.71 2049.68 3504.34 2097.35 3523.61 2065.91" style="fill:none;stroke:#f3587d;stroke-miterlimit:10;stroke-width:5px"/><polyline points="4011.38 1493.97 3955.61 1454.92 4027.61 1454.92 3955.61 1345.91 4206.47 1340.84 4011.38 1270.87 3978.43 1415.88 3903.89 1429.06 4011.38 1442.76 3945.47 1452.39 3731.5 1351.99 3774.09 1324.61 3912 1351.99 3960.68 1409.8 3925.19 1409.8 3816.68 1270.87 3835.95 1323.6 3731.5 1210.02 3854.2 1082.59 3938.71 1180.61 3865.69 1301.63 3844.06 1327.32 3920.45 1262.99 4012.4 1259.71 3944.12 1188.05 3917.07 1259.04 3923.16 1131.26 4010.37 1184.67 4059.05 1227.77 4049.92 1177.57 3950.2 1186.7 4056.34 1234.7 4012.4 1265.8" style="fill:none;stroke:#f3587d;stroke-miterlimit:10;stroke-width:5px"/><polyline points="3816.68 1270.87 3772.4 1262.99 3690.93 1137.01 3617.92 1137.01 3710.88 1196.84 3799.44 1210.02 3752.79 1113.01 3838.65 1113.01 3787.95 1033.91 3923.16 1131.26" style="fill:none;stroke:#f3587d;stroke-miterlimit:10;stroke-width:5px"/><polygon points="3716.79 1353.01 3713.49 1327.9 3701.58 1237.4 3774.09 1324.61 3681.81 1297.57 3701.58 1193.8 3646.82 1184.67 3675.72 1288.28 3660.51 1340.84 3706.14 1328.67 3627.05 1254.13 3560.12 1262.99 3617.92 1288.28 3654.43 1333.23 3540.34 1288.28 3651.38 1288.28 3716.79 1353.01" style="fill:none;stroke:#f3587d;stroke-miterlimit:10;stroke-width:5px"/><polyline points="3774.09 1012.28 3760.64 1002.36 3391.78 730.36 3359.33 716.16 3320.79 701.97 3300.51 714.13 3290.37 728.33 3290.37 756.73 3290.37 795.26 3316.74 833.8 3383.66 912.89 3617.92 1137.01 3643.27 1097.46 3586.48 1033.91 3584.93 1105.44 3685.86 1082.59 3731.5 1062.98 3720.34 1020.39 3770.54 1048.78 3742.65 1082.59 3665.58 991.99 3690.93 1137.01" style="fill:none;stroke:#f3587d;stroke-miterlimit:10;stroke-width:5px"/><polyline points="3716.28 991.99 3657.21 1002.13 3671.66 945.35 3617.92 904.78 3558.09 904.78 3617.92 967.66 3697.63 955.89 3617.92 931.15 3558.09 862.19 3540.34 888.56 3496.56 807.63 3416.12 876.39 3426.36 755.86 3361.36 766.87 3359.33 716.16 3487.1 919.49 3438.43 935.21 3446.54 884.5 3373.82 901.26 3359.33 807.43 3290.37 783.09 3318.76 744.56 3369.47 803.37 3320.79 701.97" style="fill:none;stroke:#f3587d;stroke-miterlimit:10;stroke-width:5px"/><polygon points="3466.82 943.32 3522.63 1045.84 3442.79 969.46 3466.82 943.32" style="fill:none;stroke:#f3587d;stroke-miterlimit:10;stroke-width:5px"/><polygon points="3540.34 1020.39 3570.28 1091.44 3570.28 1033.91 3540.34 1020.39" style="fill:none;stroke:#f3587d;stroke-miterlimit:10;stroke-width:5px"/><line x1="3522.63" y1="1002.13" x2="3466.82" y2="943.32" style="fill:none;stroke:#f3587d;stroke-miterlimit:10;stroke-width:5px"/><polyline points="3268.06 1125.85 3290.37 1129.91 3295.93 1149.52 3258.02 1096.32" style="fill:none;stroke:#f3587d;stroke-miterlimit:10;stroke-width:5px"/><polyline points="3606.61 1314.39 3570.28 1267.44 3393.21 1212.58 3494.72 1268.84 3367.44 1184.67 3295.93 1149.52 3327.89 1152.39" style="fill:none;stroke:#f3587d;stroke-miterlimit:10;stroke-width:5px"/><path d="M3260.41,2135.79l87.21-13.15q-9.12,40.55-18.25,81.09l-79.1-116.62-20.28,62.2,30.42-13.52L3230,2149.31c-1.26-2.09-17.78-30.56-4.06-55.1a45.2,45.2,0,0,1,14.2-15.21,36.12,36.12,0,0,1,40.57-10.14l58.81,18.25,66.93,25.46L3570.92,2168l-97.89,2.24-26-36.51,10.15,85.35h88.49l15,75.38,47.63-34L3445,2219.11s-48.68,18.09-66.93,25.19,12.17-53.75,12.17-53.75l42.89,86.2h70.68l46.65,53L3485.05,2305l-27.9-10.54-133.86-75.38-93.3-69.8c14.91,5.39,18.15,10.27,18.35,13.73.23,3.94-3.47,6.44-4.15,13.31a23,23,0,0,0,1.58,10.63l58.25,42.1,96.34,60.85L3530.67,2355" transform="translate(9.67 -1066.72)" style="fill:none;stroke:#f3587d;stroke-miterlimit:10;stroke-width:5px"/><path d="M4569.6,1531.39" transform="translate(9.67 -1066.72)" style="fill:none;stroke:#f3587d;stroke-miterlimit:10;stroke-width:5px"/><polygon points="4399.78 1752.56 4381.52 1770.81 4357.69 1741.91 4399.78 1752.56" style="fill:none;stroke:#f3587d;stroke-miterlimit:10;stroke-width:5px"/><polygon points="3879.55 1507.57 3827.83 1539.43 3787.27 1423.99 3842.03 1505.12 3879.55 1507.57" style="fill:none;stroke:#f3587d;stroke-miterlimit:10;stroke-width:5px"/><path d="M3913.48,2122.64" transform="translate(9.67 -1066.72)" style="fill:none;stroke:#f3587d;stroke-miterlimit:10;stroke-width:5px"/><polygon points="4206.47 1122.92 4254.51 1152.39 4254.51 1096.32 4219.27 1177.57 4206.47 1122.92" style="fill:none;stroke:#f3587d;stroke-miterlimit:10;stroke-width:5px"/></g><g id="ETH"><polygon points="2485.61 51.84 1912.88 963.89 2485.61 678.37 2485.61 51.84" style="fill:none;stroke:#54d8d0;stroke-miterlimit:10;stroke-width:5px"/><polyline points="2202.83 502.17 2417.47 333.57 2485.61 51.84 2485.61 413.46 1912.88 963.89 2106.26 867.49 2083.95 691.47 2371.22 609.69 2485.61 678.37 2339.07 751.43 2199.25 507.87 2225.75 807.92 2302.77 343.01" style="fill:none;stroke:#54d8d0;stroke-miterlimit:10;stroke-width:5px"/><polyline points="2374.02 602.68 2417.47 333.57 2485.61 678.37" style="fill:none;stroke:#54d8d0;stroke-miterlimit:10;stroke-width:5px"/><line x1="2301.13" y1="352.9" x2="2371.22" y2="609.69" style="fill:none;stroke:#54d8d0;stroke-miterlimit:10;stroke-width:5px"/><circle cx="2485.61" cy="51.84" r="21.84" style="fill:none;stroke:#54d8d0;stroke-miterlimit:10;stroke-width:60px"/><circle cx="2485.61" cy="678.37" r="21.84" style="fill:none;stroke:#54d8d0;stroke-miterlimit:10;stroke-width:60px"/><circle cx="1912.88" cy="965.97" r="21.84" style="fill:none;stroke:#54d8d0;stroke-miterlimit:10;stroke-width:60px"/><polygon points="2485.61 51.84 3058.34 963.89 2485.61 678.37 2485.61 51.84" style="fill:none;stroke:#54d8d0;stroke-miterlimit:10;stroke-width:5px"/><polyline points="2768.4 502.17 2553.76 333.57 2485.61 51.84 2485.61 413.46 3058.34 963.89 2864.97 867.49 2887.27 691.47 2600.01 609.69 2485.61 678.37 2632.16 751.43 2771.98 507.87 2745.48 807.92 2668.45 343.01" style="fill:none;stroke:#54d8d0;stroke-miterlimit:10;stroke-width:5px"/><polyline points="2597.21 602.68 2553.76 333.57 2485.61 678.37" style="fill:none;stroke:#54d8d0;stroke-miterlimit:10;stroke-width:5px"/><line x1="2670.09" y1="352.9" x2="2600.01" y2="609.69" style="fill:none;stroke:#54d8d0;stroke-miterlimit:10;stroke-width:5px"/><circle cx="2485.61" cy="51.84" r="21.84" style="fill:none;stroke:#54d8d0;stroke-miterlimit:10;stroke-width:60px"/><circle cx="3058.35" cy="965.97" r="21.84" style="fill:none;stroke:#54d8d0;stroke-miterlimit:10;stroke-width:60px"/><polygon points="2485.61 2063.98 1912.88 1151.93 2485.61 1437.45 2485.61 2063.98" style="fill:none;stroke:#54d8d0;stroke-miterlimit:10;stroke-width:5px"/><polyline points="2202.83 1613.66 2417.47 1782.26 2485.61 2063.98 2485.61 1702.36 1912.88 1151.93 2106.26 1248.34 2083.95 1424.36 2371.22 1506.13 2485.61 1437.45 2339.07 1364.4 2199.25 1607.96 2225.75 1307.9 2302.77 1772.82" style="fill:none;stroke:#54d8d0;stroke-miterlimit:10;stroke-width:5px"/><polyline points="2374.02 1513.14 2417.47 1782.26 2485.61 1437.45" style="fill:none;stroke:#54d8d0;stroke-miterlimit:10;stroke-width:5px"/><line x1="2301.13" y1="1762.92" x2="2371.22" y2="1506.14" style="fill:none;stroke:#54d8d0;stroke-miterlimit:10;stroke-width:5px"/><circle cx="2485.61" cy="2063.98" r="21.84" style="fill:none;stroke:#54d8d0;stroke-miterlimit:10;stroke-width:60px"/><circle cx="2485.61" cy="1437.46" r="21.84" style="fill:none;stroke:#54d8d0;stroke-miterlimit:10;stroke-width:60px"/><circle cx="1912.88" cy="1149.86" r="21.84" style="fill:none;stroke:#54d8d0;stroke-miterlimit:10;stroke-width:60px"/><polygon points="2485.61 2063.98 3058.34 1151.93 2485.61 1437.45 2485.61 2063.98" style="fill:none;stroke:#54d8d0;stroke-miterlimit:10;stroke-width:5px"/><polyline points="2768.4 1613.66 2553.76 1782.26 2485.61 2063.98 2485.61 1702.36 3058.34 1151.93 2864.97 1248.34 2887.27 1424.36 2600.01 1506.13 2485.61 1437.45 2632.16 1364.4 2771.98 1607.96 2745.48 1307.9 2668.45 1772.82" style="fill:none;stroke:#54d8d0;stroke-miterlimit:10;stroke-width:5px"/><polyline points="2597.21 1513.14 2553.76 1782.26 2485.61 1437.45" style="fill:none;stroke:#54d8d0;stroke-miterlimit:10;stroke-width:5px"/><line x1="2670.09" y1="1762.92" x2="2600.01" y2="1506.14" style="fill:none;stroke:#54d8d0;stroke-miterlimit:10;stroke-width:5px"/><circle cx="2485.61" cy="2063.98" r="21.84" style="fill:none;stroke:#54d8d0;stroke-miterlimit:10;stroke-width:60px"/><circle cx="3058.35" cy="1149.86" r="21.84" style="fill:none;stroke:#54d8d0;stroke-miterlimit:10;stroke-width:60px"/><polygon points="2022.21 1053.34 1988.28 1031.67 1982.15 1081.82 2022.21 1053.34" style="fill:none;stroke:#7f51d6;stroke-miterlimit:10;stroke-width:5px"/><polyline points="2031.49 1106.23 2022.21 1053.34 2043.23 1004.28 2134.34 1081.82 2029.22 1056.75 2049.43 1042.34 2199.25 935.56 2125.93 1101.69 2085.85 1133.11 2067.06 1081.82 2199.25 1189.19 2273.1 1004.28 2123.91 1151.93 2096.77 977.59 2147.66 1023.86 2064.26 1057.29 2485.61 1042.08 2292.03 1235.08 2333.02 859.82 2485.61 1190.66 2381.03 1273.04 2485.61 1262.88 2235.11 1206.93 2485.61 857.24 2399.1 826.88 2407.66 1187.85 2253.91 977.59 2276.61 887.94 2313.75 947.51 2199.25 1031.67 2199.25 926.5 2472.13 995.87 2223.54 1201.21 2169.38 1081.82 2285.72 1109.4 2464.64 817.92 2485.61 783.75 2069.86 987.81 2002.18 1093.22 2485.61 1323.81 2485.61 823.51 2446.9 817.39 2485.61 810.81" style="fill:none;stroke:#7f51d6;stroke-miterlimit:10;stroke-width:5px"/><polygon points="1934.72 1053.78 2043.23 1004.28 2002.18 1093.22 1934.72 1053.78" style="fill:none;stroke:#7f51d6;stroke-miterlimit:10;stroke-width:5px"/><polygon points="2949.02 1052.89 2982.95 1031.22 2989.08 1081.38 2949.02 1052.89" style="fill:none;stroke:#7f51d6;stroke-miterlimit:10;stroke-width:5px"/><polyline points="2939.74 1105.78 2949.02 1052.89 2928 1003.83 2836.89 1081.38 2942.01 1056.3 2921.8 1041.89 2771.98 935.11 2845.3 1101.24 2885.37 1132.66 2904.17 1081.38 2771.98 1188.74 2698.13 1003.83 2847.32 1151.48 2874.46 977.14 2823.57 1023.41 2906.97 1056.84 2485.61 1041.63 2679.2 1234.63 2638.21 859.37 2485.61 1190.21 2590.2 1272.59 2485.61 1262.43 2736.11 1206.48 2485.61 856.79 2572.13 826.43 2563.57 1187.4 2717.32 977.14 2694.62 887.5 2657.48 947.06 2771.98 1031.22 2771.98 926.06 2499.09 995.42 2747.69 1200.76 2801.85 1081.38 2685.51 1108.95 2506.59 817.48 2485.61 783.31 2901.36 987.36 2969.05 1092.78 2485.61 1323.36 2485.61 823.06 2524.32 816.95 2485.61 810.37" style="fill:none;stroke:#7f51d6;stroke-miterlimit:10;stroke-width:5px"/><polygon points="3036.51 1053.34 2928 1003.83 2969.05 1092.78 3036.51 1053.34" style="fill:none;stroke:#7f51d6;stroke-miterlimit:10;stroke-width:5px"/><polyline points="2455.31 1304.25 2407.66 1187.85 2354.97 1261.5 2301.13 1165.95 2485.61 1205.55 2444.64 1253.73 2179.89 1131.73 1934.72 1053.78 2485.61 1219.1 2597.21 1185.52 2905.43 1092.78 3036.51 1053.34 2562.19 1182.32 2497.82 1199.83 2525.69 1304.25 2587.77 1199.83 2635.05 1252.08 2657.15 1180.55 2705.5 1199.83 2727.33 1161.28 2804.32 1149.86 2823.24 1087.69" style="fill:none;stroke:#7f51d6;stroke-miterlimit:10;stroke-width:5px"/></g></g><g id="LEFT_HAND-2" data-name="LEFT HAND"><polygon points="11.19 1626.78 123.46 1590.95 92.36 1643.68 11.19 1626.78" style="fill:none;stroke:#f3587d;stroke-miterlimit:10;stroke-width:5px"/><polygon points="113.32 1734.28 155.23 1686.95 92.36 1643.68 113.32 1734.28" style="fill:none;stroke:#f3587d;stroke-miterlimit:10;stroke-width:5px"/><polygon points="92.36 1847.85 113.32 1734.28 183.63 1739.68 92.36 1847.85" style="fill:none;stroke:#f3587d;stroke-miterlimit:10;stroke-width:5px"/><polygon points="123.46 1903.97 121.55 1900.52 92.36 1847.85 199.18 1872.87 123.46 1903.97" style="fill:none;stroke:#f3587d;stroke-miterlimit:10;stroke-width:5px"/><polygon points="11.19 2136.87 51.8 2082.11 170.44 1998.95 270.84 1998.95 109.6 2067.91 11.19 2136.87" style="fill:none;stroke:#f3587d;stroke-miterlimit:10;stroke-width:5px"/><polyline points="280.98 1881.32 170.44 1998.95 249.54 1961.43 280.98 1887.4 339.8 1920.87 415.85 1964.47 434.11 1881.32 346.89 1917.83 257.65 1960.42 339.8 2008.08 409.77 1968.53 481.77 2029.37 338.78 1998.95 270.84 1991.85 270.84 1961.43 398.61 1963.46 477.71 1928.98 435.12 1875.91" style="fill:none;stroke:#f3587d;stroke-miterlimit:10;stroke-width:5px"/><polygon points="234.33 1847.85 240.42 1952.64 277.94 1875.91 234.33 1847.85" style="fill:none;stroke:#f3587d;stroke-miterlimit:10;stroke-width:5px"/><polygon points="390.5 1842.78 239.76 1851.35 386.44 1754.56 390.5 1842.78" style="fill:none;stroke:#f3587d;stroke-miterlimit:10;stroke-width:5px"/><polygon points="366.16 1688.98 386.44 1754.56 277.94 1711.97 366.16 1688.98" style="fill:none;stroke:#f3587d;stroke-miterlimit:10;stroke-width:5px"/><polygon points="320.19 1603.8 277.94 1711.97 260.7 1668.02 320.19 1603.8" style="fill:none;stroke:#f3587d;stroke-miterlimit:10;stroke-width:5px"/><polygon points="234.33 1617.32 256.13 1672.76 183.63 1739.68 155.23 1686.95 251.23 1672.08 234.33 1617.32" style="fill:none;stroke:#f3587d;stroke-miterlimit:10;stroke-width:5px"/><polygon points="183.63 1593.66 234.33 1617.32 315.13 1491.91 222.7 1539.67 123.46 1590.95 183.63 1593.66" style="fill:none;stroke:#f3587d;stroke-miterlimit:10;stroke-width:5px"/><polyline points="224.87 1542.28 183.63 1593.66 228.75 1542.78 367.18 1538.56 315.13 1491.91 449.32 1515.23 449.32 1573.37 370.89 1538.22 441.88 1519.29 452.02 1661.26 510.16 1661.26 481.77 1622.05 453.37 1571.35 510.16 1590.95 448.64 1661.26" style="fill:none;stroke:#f3587d;stroke-miterlimit:10;stroke-width:5px"/><polygon points="611.57 1661.26 510.16 1661.26 510.16 1590.95 611.57 1661.26" style="fill:none;stroke:#f3587d;stroke-miterlimit:10;stroke-width:5px"/><polygon points="523.35 1491.91 510.16 1590.95 588.75 1541.43 588.75 1456.92 523.35 1491.91" style="fill:none;stroke:#f3587d;stroke-miterlimit:10;stroke-width:5px"/><path d="M630.8,2573.85l-51.72,34.3Z" transform="translate(9.67 -1066.72)" style="fill:none;stroke:#f3587d;stroke-miterlimit:10;stroke-width:5px"/><polyline points="470.11 1426.5 481.77 1391.52 390.5 1450.84 467.06 1435.63 549.46 1421.94 640.47 1507.12 588.75 1456.92 614.61 1367.8 555.8 1416.87 487.85 1399.63 515.49 1379.85 614.61 1367.8 634.56 1299.57 510.16 1379.85" style="fill:none;stroke:#f3587d;stroke-miterlimit:10;stroke-width:5px"/><polygon points="588.75 1847.85 510.16 1931.52 611.57 1961.94 510.16 1922.39 521.82 1998.95 588.75 1847.85" style="fill:none;stroke:#f3587d;stroke-miterlimit:10;stroke-width:5px"/><polygon points="728.7 1791.06 726.71 1798.2 698.27 1900.25 698.27 1969.54 815.4 1969.54 708.92 1903.97 775.85 1880.3 728.7 1791.06" style="fill:none;stroke:#f3587d;stroke-miterlimit:10;stroke-width:5px"/><polygon points="67.32 2136.87 53.82 2221.04 123.8 2168.3 67.32 2136.87" style="fill:none;stroke:#f3587d;stroke-miterlimit:10;stroke-width:5px"/><polygon points="92.36 1969.54 53.82 1989.83 19.34 1969.54 92.36 1969.54" style="fill:none;stroke:#f3587d;stroke-miterlimit:10;stroke-width:5px"/><polygon points="53.82 1791.06 19.34 1802.95 19.34 1772.81 53.82 1791.06" style="fill:none;stroke:#f3587d;stroke-miterlimit:10;stroke-width:5px"/><polygon points="92.36 1476.7 92.36 1515.23 53.82 1491.91 92.36 1476.7" style="fill:none;stroke:#f3587d;stroke-miterlimit:10;stroke-width:5px"/><polygon points="332.19 2079.06 366.16 2101.37 390.5 2079.06 332.19 2079.06" style="fill:none;stroke:#f3587d;stroke-miterlimit:10;stroke-width:5px"/><polygon points="510.16 2101.37 629.82 2101.37 549.46 2067.91 510.16 2101.37" style="fill:none;stroke:#f3587d;stroke-miterlimit:10;stroke-width:5px"/><polyline points="491.91 2029.37 560.87 2029.37 640.47 2067.91 815.4 2084.64 735.29 2029.37 629.82 2057.01" style="fill:none;stroke:#f3587d;stroke-miterlimit:10;stroke-width:5px"/><polygon points="815.4 1969.54 735.29 2029.37 822.5 2029.37 815.4 1969.54" style="fill:none;stroke:#f3587d;stroke-miterlimit:10;stroke-width:5px"/><polyline points="809.32 2158.16 882.33 2166.28 844.81 2216.98 802.22 2160.19 873.77 2202.78 873.77 2131.8 815.4 2131.8 802.22 2165.26" style="fill:none;stroke:#f3587d;stroke-miterlimit:10;stroke-width:5px"/><polyline points="611.57 1961.94 543.12 1851.35 593.32 1841.77 510.16 1922.39 537.04 1858.5" style="fill:none;stroke:#f3587d;stroke-miterlimit:10;stroke-width:5px"/><polygon points="822.5 2029.37 941.65 1999.46 941.65 2057.01 822.5 2029.37" style="fill:none;stroke:#f3587d;stroke-miterlimit:10;stroke-width:5px"/><polygon points="815.4 2084.64 956.87 2115.57 882.33 2067.91 815.4 2084.64" style="fill:none;stroke:#f3587d;stroke-miterlimit:10;stroke-width:5px"/><line x1="941.66" y1="2057.01" x2="882.33" y2="2067.91" style="fill:none;stroke:#f3587d;stroke-miterlimit:10;stroke-width:5px"/><polygon points="987.29 2091.74 1032.92 2115.57 956.87 2115.57 891.93 2101.37 987.29 2091.74" style="fill:none;stroke:#f3587d;stroke-miterlimit:10;stroke-width:5px"/><polyline points="611.57 1661.26 635.91 1688.98 687.63 1657.88 515.49 1590.95" style="fill:none;stroke:#f3587d;stroke-miterlimit:10;stroke-width:5px"/><polygon points="773.82 1639.97 687.63 1657.88 773.82 1695.74 773.82 1639.97" style="fill:none;stroke:#f3587d;stroke-miterlimit:10;stroke-width:5px"/><polygon points="852.92 1584.19 773.82 1639.97 917.82 1612.08 852.92 1584.19" style="fill:none;stroke:#f3587d;stroke-miterlimit:10;stroke-width:5px"/><polygon points="756.84 1541.43 852.92 1584.19 792.08 1507.12 756.84 1541.43" style="fill:none;stroke:#f3587d;stroke-miterlimit:10;stroke-width:5px"/><polygon points="756.84 1477.71 792.08 1507.12 756.84 1541.43 756.84 1477.71" style="fill:none;stroke:#f3587d;stroke-miterlimit:10;stroke-width:5px"/><polygon points="717.04 1456.92 756.84 1477.71 717.04 1411.8 717.04 1456.92" style="fill:none;stroke:#f3587d;stroke-miterlimit:10;stroke-width:5px"/><polygon points="614.61 1367.8 717.04 1411.8 698.27 1347.91 614.61 1367.8" style="fill:none;stroke:#f3587d;stroke-miterlimit:10;stroke-width:5px"/><polygon points="774.46 1212.02 683.57 1264.99 677.43 1269.33 695.74 1342.84 774.46 1277.43 670.39 1281.99 634.56 1299.57 687.63 1342.84 814.39 1342.84 774.46 1285.04 774.46 1212.02" style="fill:none;stroke:#f3587d;stroke-miterlimit:10;stroke-width:5px"/><polygon points="875.23 1186.67 774.46 1212.02 773.82 1272.87 875.23 1186.67" style="fill:none;stroke:#f3587d;stroke-miterlimit:10;stroke-width:5px"/><polygon points="913.77 1212.02 875.23 1186.67 961.43 1179.57 913.77 1212.02" style="fill:none;stroke:#f3587d;stroke-miterlimit:10;stroke-width:5px"/><polygon points="814.39 1342.84 952.3 1229.77 926.95 1286.3 814.39 1342.84" style="fill:none;stroke:#f3587d;stroke-miterlimit:10;stroke-width:5px"/><polygon points="792.08 1417.88 832.64 1389.49 804.88 1342.84 792.08 1417.88" style="fill:none;stroke:#f3587d;stroke-miterlimit:10;stroke-width:5px"/><polygon points="814.39 1449.32 792.08 1417.88 756.84 1477.71 814.39 1449.32" style="fill:none;stroke:#f3587d;stroke-miterlimit:10;stroke-width:5px"/><polyline points="845.82 1523.94 814.39 1449.32 792.08 1507.12 867.12 1576.59 971.57 1523.94 909.71 1491.91 983.74 1456.92 999.97 1512.95 961.43 1607.52 917.82 1612.08 969.54 1530.7 975.63 1491.91 991.85 1518.28" style="fill:none;stroke:#f3587d;stroke-miterlimit:10;stroke-width:5px"/><polygon points="952.3 1688.98 917.82 1612.08 961.43 1607.52 952.3 1688.98" style="fill:none;stroke:#f3587d;stroke-miterlimit:10;stroke-width:5px"/><path d="M873.67,2795.93l34.48-117.13Z" transform="translate(9.67 -1066.72)" style="fill:none;stroke:#f3587d;stroke-miterlimit:10;stroke-width:5px"/><polyline points="952.3 1688.98 883.35 1729.2 773.82 1639.97 815.4 1754.56 875.23 1765.71 961.43 1809.83 952.3 1761.15 896.02 1739.68 867.63 1754.56 861.04 1847.85 815.4 1762.67" style="fill:none;stroke:#f3587d;stroke-miterlimit:10;stroke-width:5px"/><polygon points="976.64 1952.64 861.04 1847.85 961.43 1809.83 1007.06 1809.83 962.43 1834.16 962.43 1890.44 976.97 1892.11 1048.13 1900.25 1131.8 1969.54 1090.73 2012.13 1010.11 1979.68 941.65 1999.46 976.64 1952.64" style="fill:none;stroke:#f3587d;stroke-miterlimit:10;stroke-width:5px"/><polyline points="975.12 1939.12 976.97 1892.11 873.77 1859.4 1014.67 1847.85 1032.92 1898.51 1166.78 1910.98 1131.8 1969.54 985.77 1900.25 1143.96 2067.91 1096.81 2091.74 1089.2 2028.23 1197.2 2037.99 1140.92 1979.68 1250.44 1969.54 1174.39 1923.4 1308.25 1952.64 1308.25 1998.95 1285.43 2029.37 1174.39 1989.83 1207.85 1952.64 1235.23 1923.4 1274.78 2115.57 1279.35 2050.16 1212.42 2057.01 1239.8 2136.87 1150.05 2191.63 1216.98 2191.63 1131.8 2127.74 1032.92 2103.66 1210.89 2084.64 1261.09 2101.37 1233.71 2152.08 1349.32 2166.28 1375.18 2115.57 1440.59 2178.95 1268.7 2166.28 1435.01 2147.01 1440.59 2174.39 1546.56 2191.63 1512.08 2103.66 1450.22 2103.66 1486.73 2058.78 1413.71 2025.32 1270.73 2037.49 1379.23 1967.52 1316.36 1954.33 1384.3 1971.57 1451.23 2115.57 1446.16 1996.92 1385.32 1966.5" style="fill:none;stroke:#f3587d;stroke-miterlimit:10;stroke-width:5px"/><polyline points="1587.12 2161.2 1546.56 2191.63 1512.08 2103.66 1582.05 2155.12 1577.99 2103.66 1512.08 2042.56 1446.16 1996.92 1486.73 2058.78 1516.64 2051.68 1507.01 2099.35 1487.74 2067.91" style="fill:none;stroke:#f3587d;stroke-miterlimit:10;stroke-width:5px"/><polyline points="999.97 1495.97 1055.74 1456.92 983.74 1456.92 1055.74 1347.91 804.88 1342.84 999.97 1272.87 1032.92 1417.88 1107.46 1431.06 999.97 1444.76 1065.88 1454.39 1279.85 1353.99 1237.26 1326.61 1099.35 1353.99 1050.67 1411.8 1086.16 1411.8 1194.67 1272.87 1175.4 1325.6 1279.85 1212.02 1157.15 1084.59 1072.64 1182.61 1145.65 1303.63 1167.29 1329.32 1090.89 1264.99 998.95 1261.71 1067.23 1190.05 1094.28 1261.04 1088.19 1133.26 1000.98 1186.67 952.3 1229.77 961.43 1179.57 1061.15 1188.7 955.01 1236.7 998.95 1267.8" style="fill:none;stroke:#f3587d;stroke-miterlimit:10;stroke-width:5px"/><polyline points="1194.67 1272.87 1238.95 1264.99 1320.42 1139.01 1393.43 1139.01 1300.47 1198.84 1211.91 1212.02 1258.56 1115.01 1172.7 1115.01 1223.4 1035.91 1088.19 1133.26" style="fill:none;stroke:#f3587d;stroke-miterlimit:10;stroke-width:5px"/><polygon points="1294.56 1355.01 1297.86 1329.9 1309.77 1239.4 1237.26 1326.61 1329.54 1299.57 1309.77 1195.8 1364.53 1186.67 1335.63 1290.28 1350.84 1342.84 1305.2 1330.67 1384.3 1256.13 1451.23 1264.99 1393.43 1290.28 1356.92 1335.23 1471.01 1290.28 1359.96 1290.28 1294.56 1355.01" style="fill:none;stroke:#f3587d;stroke-miterlimit:10;stroke-width:5px"/><polyline points="1237.26 1014.28 1250.71 1004.36 1619.57 732.36 1652.02 718.16 1690.56 703.97 1710.84 716.13 1720.98 730.33 1720.98 758.73 1720.98 797.26 1694.61 835.8 1627.68 914.89 1393.43 1139.01 1368.08 1099.46 1424.87 1035.91 1426.42 1107.44 1325.49 1084.59 1279.85 1064.98 1291.01 1022.39 1240.81 1050.78 1268.7 1084.59 1345.77 993.99 1320.42 1139.01" style="fill:none;stroke:#f3587d;stroke-miterlimit:10;stroke-width:5px"/><polyline points="1295.06 993.99 1354.13 1004.13 1339.68 947.35 1393.43 906.78 1453.26 906.78 1393.43 969.66 1313.72 957.89 1393.43 933.15 1453.26 864.19 1471.01 890.56 1514.79 809.63 1595.23 878.39 1584.99 757.86 1649.99 768.87 1652.02 718.16 1524.25 921.49 1572.92 937.21 1564.81 886.5 1637.53 903.26 1652.02 809.43 1720.98 785.09 1692.59 746.56 1641.88 805.37 1690.56 703.97" style="fill:none;stroke:#f3587d;stroke-miterlimit:10;stroke-width:5px"/><polygon points="1544.53 945.32 1488.72 1047.84 1568.56 971.46 1544.53 945.32" style="fill:none;stroke:#f3587d;stroke-miterlimit:10;stroke-width:5px"/><polygon points="1471.01 1022.39 1441.06 1093.44 1441.06 1035.91 1471.01 1022.39" style="fill:none;stroke:#f3587d;stroke-miterlimit:10;stroke-width:5px"/><line x1="1488.72" y1="1004.13" x2="1544.53" y2="945.32" style="fill:none;stroke:#f3587d;stroke-miterlimit:10;stroke-width:5px"/><polyline points="1743.29 1127.85 1720.98 1131.91 1715.42 1151.52 1753.33 1098.32" style="fill:none;stroke:#f3587d;stroke-miterlimit:10;stroke-width:5px"/><polyline points="1404.74 1316.39 1441.06 1269.44 1618.14 1214.58 1516.62 1270.84 1643.91 1186.67 1715.42 1151.52 1683.46 1154.39" style="fill:none;stroke:#f3587d;stroke-miterlimit:10;stroke-width:5px"/><path d="M1731.59,2137.79l-87.21-13.15q9.12,40.55,18.25,81.09l79.1-116.62,20.28,62.2-30.42-13.52,30.42,13.52c1.26-2.09,17.78-30.56,4.06-55.1a45.2,45.2,0,0,0-14.2-15.21,36.12,36.12,0,0,0-40.57-10.14l-58.81,18.25-66.93,25.46L1421.08,2170l97.89,2.24,26-36.51-10.15,85.35h-88.49l-15,75.38-47.63-34L1547,2221.11s48.68,18.09,66.93,25.19-12.17-53.75-12.17-53.75l-42.89,86.2h-70.68l-46.65,53L1507,2307l27.9-10.54,133.86-75.38,93.3-69.8c-14.91,5.39-18.15,10.27-18.35,13.73-.23,3.94,3.47,6.44,4.15,13.31a23,23,0,0,1-1.58,10.63l-58.25,42.1-96.34,60.85L1461.33,2357" transform="translate(9.67 -1066.72)" style="fill:none;stroke:#f3587d;stroke-miterlimit:10;stroke-width:5px"/><path d="M422.4,1533.39" transform="translate(9.67 -1066.72)" style="fill:none;stroke:#f3587d;stroke-miterlimit:10;stroke-width:5px"/><polygon points="611.57 1754.56 629.82 1772.81 653.65 1743.91 611.57 1754.56" style="fill:none;stroke:#f3587d;stroke-miterlimit:10;stroke-width:5px"/><polygon points="1131.8 1509.57 1183.51 1541.43 1224.08 1425.99 1169.32 1507.12 1131.8 1509.57" style="fill:none;stroke:#f3587d;stroke-miterlimit:10;stroke-width:5px"/><path d="M1078.52,2124.64" transform="translate(9.67 -1066.72)" style="fill:none;stroke:#f3587d;stroke-miterlimit:10;stroke-width:5px"/><polygon points="804.88 1124.92 756.84 1154.39 756.84 1098.32 792.08 1179.57 804.88 1124.92" style="fill:none;stroke:#f3587d;stroke-miterlimit:10;stroke-width:5px"/></g><g id="RIGHT_HAND-2" data-name="RIGHT HAND"><polygon points="5000.16 1624.78 4887.89 1588.95 4918.99 1641.68 5000.16 1624.78" style="fill:none;stroke:#f3587d;stroke-miterlimit:10;stroke-width:5px"/><polygon points="4898.03 1732.28 4856.12 1684.95 4918.99 1641.68 4898.03 1732.28" style="fill:none;stroke:#f3587d;stroke-miterlimit:10;stroke-width:5px"/><polygon points="4918.99 1845.85 4898.03 1732.28 4827.72 1737.68 4918.99 1845.85" style="fill:none;stroke:#f3587d;stroke-miterlimit:10;stroke-width:5px"/><polygon points="4887.89 1901.97 4889.8 1898.52 4918.99 1845.85 4812.17 1870.87 4887.89 1901.97" style="fill:none;stroke:#f3587d;stroke-miterlimit:10;stroke-width:5px"/><polygon points="5000.16 2134.87 4959.55 2080.11 4840.9 1996.95 4740.51 1996.95 4901.75 2065.91 5000.16 2134.87" style="fill:none;stroke:#f3587d;stroke-miterlimit:10;stroke-width:5px"/><polyline points="4730.37 1879.32 4840.9 1996.95 4761.81 1959.43 4730.37 1885.4 4671.55 1918.87 4595.5 1962.47 4577.24 1879.32 4664.45 1915.83 4753.69 1958.42 4671.55 2006.08 4601.58 1966.53 4529.58 2027.37 4672.57 1996.95 4740.51 1989.85 4740.51 1959.43 4612.73 1961.46 4533.64 1926.98 4576.23 1873.91" style="fill:none;stroke:#f3587d;stroke-miterlimit:10;stroke-width:5px"/><polygon points="4777.02 1845.85 4770.93 1950.64 4733.41 1873.91 4777.02 1845.85" style="fill:none;stroke:#f3587d;stroke-miterlimit:10;stroke-width:5px"/><polygon points="4620.85 1840.78 4771.59 1849.35 4624.9 1752.56 4620.85 1840.78" style="fill:none;stroke:#f3587d;stroke-miterlimit:10;stroke-width:5px"/><polygon points="4645.19 1686.98 4624.9 1752.56 4733.41 1709.97 4645.19 1686.98" style="fill:none;stroke:#f3587d;stroke-miterlimit:10;stroke-width:5px"/><polygon points="4691.16 1601.8 4733.41 1709.97 4750.65 1666.02 4691.16 1601.8" style="fill:none;stroke:#f3587d;stroke-miterlimit:10;stroke-width:5px"/><polygon points="4777.02 1615.32 4755.21 1670.76 4827.72 1737.68 4856.12 1684.95 4760.12 1670.08 4777.02 1615.32" style="fill:none;stroke:#f3587d;stroke-miterlimit:10;stroke-width:5px"/><polygon points="4827.72 1591.66 4777.02 1615.32 4696.22 1489.91 4788.65 1537.67 4887.89 1588.95 4827.72 1591.66" style="fill:none;stroke:#f3587d;stroke-miterlimit:10;stroke-width:5px"/><polyline points="4786.48 1540.28 4827.72 1591.66 4782.6 1540.78 4644.17 1536.56 4696.22 1489.91 4562.03 1513.23 4562.03 1571.37 4640.45 1536.22 4569.47 1517.29 4559.33 1659.26 4501.19 1659.26 4529.58 1620.05 4557.98 1569.35 4501.19 1588.95 4562.71 1659.26" style="fill:none;stroke:#f3587d;stroke-miterlimit:10;stroke-width:5px"/><polygon points="4399.78 1659.26 4501.19 1659.26 4501.19 1588.95 4399.78 1659.26" style="fill:none;stroke:#f3587d;stroke-miterlimit:10;stroke-width:5px"/><polygon points="4488 1489.91 4501.19 1588.95 4422.6 1539.43 4422.6 1454.92 4488 1489.91" style="fill:none;stroke:#f3587d;stroke-miterlimit:10;stroke-width:5px"/><path d="M4361.2,2571.85l51.72,34.3Z" transform="translate(9.67 -1066.72)" style="fill:none;stroke:#f3587d;stroke-miterlimit:10;stroke-width:5px"/><polyline points="4541.24 1424.5 4529.58 1389.52 4620.85 1448.84 4544.28 1433.63 4461.89 1419.94 4370.88 1505.12 4422.6 1454.92 4396.73 1365.8 4455.55 1414.87 4523.5 1397.63 4495.86 1377.85 4396.73 1365.8 4376.79 1297.57 4501.19 1377.85" style="fill:none;stroke:#f3587d;stroke-miterlimit:10;stroke-width:5px"/><polygon points="4422.6 1845.85 4501.19 1929.52 4399.78 1959.94 4501.19 1920.39 4489.52 1996.95 4422.6 1845.85" style="fill:none;stroke:#f3587d;stroke-miterlimit:10;stroke-width:5px"/><polygon points="4282.65 1789.06 4284.64 1796.2 4313.07 1898.25 4313.07 1967.54 4195.95 1967.54 4302.43 1901.97 4235.5 1878.3 4282.65 1789.06" style="fill:none;stroke:#f3587d;stroke-miterlimit:10;stroke-width:5px"/><polygon points="4944.02 2134.87 4957.52 2219.04 4887.55 2166.3 4944.02 2134.87" style="fill:none;stroke:#f3587d;stroke-miterlimit:10;stroke-width:5px"/><polygon points="4918.99 1967.54 4957.52 1987.83 4992 1967.54 4918.99 1967.54" style="fill:none;stroke:#f3587d;stroke-miterlimit:10;stroke-width:5px"/><polygon points="4957.52 1789.06 4992 1800.95 4992 1770.81 4957.52 1789.06" style="fill:none;stroke:#f3587d;stroke-miterlimit:10;stroke-width:5px"/><polygon points="4918.99 1474.7 4918.99 1513.23 4957.52 1489.91 4918.99 1474.7" style="fill:none;stroke:#f3587d;stroke-miterlimit:10;stroke-width:5px"/><polygon points="4679.16 2077.06 4645.19 2099.37 4620.85 2077.06 4679.16 2077.06" style="fill:none;stroke:#f3587d;stroke-miterlimit:10;stroke-width:5px"/><polygon points="4501.19 2099.37 4381.52 2099.37 4461.89 2065.91 4501.19 2099.37" style="fill:none;stroke:#f3587d;stroke-miterlimit:10;stroke-width:5px"/><polyline points="4519.44 2027.37 4450.48 2027.37 4370.88 2065.91 4195.95 2082.64 4276.06 2027.37 4381.52 2055.01" style="fill:none;stroke:#f3587d;stroke-miterlimit:10;stroke-width:5px"/><polygon points="4195.95 1967.54 4276.06 2027.37 4188.85 2027.37 4195.95 1967.54" style="fill:none;stroke:#f3587d;stroke-miterlimit:10;stroke-width:5px"/><polyline points="4202.03 2156.16 4129.02 2164.28 4166.54 2214.98 4209.13 2158.19 4137.58 2200.78 4137.58 2129.8 4195.95 2129.8 4209.13 2163.26" style="fill:none;stroke:#f3587d;stroke-miterlimit:10;stroke-width:5px"/><polyline points="4399.78 1959.94 4468.23 1849.35 4418.03 1839.77 4501.19 1920.39 4474.31 1856.5" style="fill:none;stroke:#f3587d;stroke-miterlimit:10;stroke-width:5px"/><polygon points="4188.85 2027.37 4069.69 1997.46 4069.69 2055.01 4188.85 2027.37" style="fill:none;stroke:#f3587d;stroke-miterlimit:10;stroke-width:5px"/><polygon points="4195.95 2082.64 4054.48 2113.57 4129.02 2065.91 4195.95 2082.64" style="fill:none;stroke:#f3587d;stroke-miterlimit:10;stroke-width:5px"/><line x1="4069.69" y1="2055.01" x2="4129.02" y2="2065.91" style="fill:none;stroke:#f3587d;stroke-miterlimit:10;stroke-width:5px"/><polygon points="4024.06 2089.74 3978.43 2113.57 4054.48 2113.57 4119.42 2099.37 4024.06 2089.74" style="fill:none;stroke:#f3587d;stroke-miterlimit:10;stroke-width:5px"/><polyline points="4399.78 1659.26 4375.44 1686.98 4323.72 1655.88 4495.86 1588.95" style="fill:none;stroke:#f3587d;stroke-miterlimit:10;stroke-width:5px"/><polygon points="4237.52 1637.97 4323.72 1655.88 4237.52 1693.74 4237.52 1637.97" style="fill:none;stroke:#f3587d;stroke-miterlimit:10;stroke-width:5px"/><polygon points="4158.43 1582.19 4237.52 1637.97 4093.52 1610.08 4158.43 1582.19" style="fill:none;stroke:#f3587d;stroke-miterlimit:10;stroke-width:5px"/><polygon points="4254.51 1539.43 4158.43 1582.19 4219.27 1505.12 4254.51 1539.43" style="fill:none;stroke:#f3587d;stroke-miterlimit:10;stroke-width:5px"/><polygon points="4254.51 1475.71 4219.27 1505.12 4254.51 1539.43 4254.51 1475.71" style="fill:none;stroke:#f3587d;stroke-miterlimit:10;stroke-width:5px"/><polygon points="4294.31 1454.92 4254.51 1475.71 4294.31 1409.8 4294.31 1454.92" style="fill:none;stroke:#f3587d;stroke-miterlimit:10;stroke-width:5px"/><polygon points="4396.73 1365.8 4294.31 1409.8 4313.07 1345.91 4396.73 1365.8" style="fill:none;stroke:#f3587d;stroke-miterlimit:10;stroke-width:5px"/><polygon points="4236.89 1210.02 4327.78 1262.99 4333.92 1267.33 4315.61 1340.84 4236.89 1275.43 4340.96 1279.99 4376.79 1297.57 4323.72 1340.84 4196.96 1340.84 4236.89 1283.04 4236.89 1210.02" style="fill:none;stroke:#f3587d;stroke-miterlimit:10;stroke-width:5px"/><polygon points="4136.12 1184.67 4236.89 1210.02 4237.52 1270.87 4136.12 1184.67" style="fill:none;stroke:#f3587d;stroke-miterlimit:10;stroke-width:5px"/><polygon points="4097.58 1210.02 4136.12 1184.67 4049.92 1177.57 4097.58 1210.02" style="fill:none;stroke:#f3587d;stroke-miterlimit:10;stroke-width:5px"/><polygon points="4196.96 1340.84 4059.05 1227.77 4084.4 1284.3 4196.96 1340.84" style="fill:none;stroke:#f3587d;stroke-miterlimit:10;stroke-width:5px"/><polygon points="4219.27 1415.88 4178.71 1387.49 4206.47 1340.84 4219.27 1415.88" style="fill:none;stroke:#f3587d;stroke-miterlimit:10;stroke-width:5px"/><polygon points="4196.96 1447.32 4219.27 1415.88 4254.51 1475.71 4196.96 1447.32" style="fill:none;stroke:#f3587d;stroke-miterlimit:10;stroke-width:5px"/><polyline points="4165.52 1521.94 4196.96 1447.32 4219.27 1505.12 4144.23 1574.59 4039.78 1521.94 4101.64 1489.91 4027.61 1454.92 4011.38 1510.95 4049.92 1605.52 4093.52 1610.08 4041.81 1528.7 4035.72 1489.91 4019.5 1516.28" style="fill:none;stroke:#f3587d;stroke-miterlimit:10;stroke-width:5px"/><polygon points="4059.05 1686.98 4093.52 1610.08 4049.92 1605.52 4059.05 1686.98" style="fill:none;stroke:#f3587d;stroke-miterlimit:10;stroke-width:5px"/><path d="M4118.33,2793.93l-34.48-117.13Z" transform="translate(9.67 -1066.72)" style="fill:none;stroke:#f3587d;stroke-miterlimit:10;stroke-width:5px"/><polyline points="4059.05 1686.98 4128 1727.2 4237.52 1637.97 4195.95 1752.56 4136.12 1763.71 4049.92 1807.83 4059.05 1759.15 4115.33 1737.68 4143.72 1752.56 4150.31 1845.85 4195.95 1760.67" style="fill:none;stroke:#f3587d;stroke-miterlimit:10;stroke-width:5px"/><polygon points="4034.71 1950.64 4150.31 1845.85 4049.92 1807.83 4004.28 1807.83 4048.92 1832.16 4048.92 1888.44 4034.38 1890.11 3963.21 1898.25 3879.55 1967.54 3920.62 2010.13 4001.24 1977.68 4069.69 1997.46 4034.71 1950.64" style="fill:none;stroke:#f3587d;stroke-miterlimit:10;stroke-width:5px"/><polyline points="4036.23 1937.12 4034.38 1890.11 4137.58 1857.4 3996.68 1845.85 3978.43 1896.51 3844.57 1908.98 3879.55 1967.54 4025.58 1898.25 3867.38 2065.91 3914.54 2089.74 3922.14 2026.23 3814.14 2035.99 3870.43 1977.68 3760.9 1967.54 3836.96 1921.4 3703.1 1950.64 3703.1 1996.95 3725.92 2027.37 3836.96 1987.83 3803.5 1950.64 3776.12 1921.4 3736.57 2113.57 3732 2048.16 3798.93 2055.01 3771.55 2134.87 3861.3 2189.63 3794.37 2189.63 3879.55 2125.74 3978.43 2101.66 3800.45 2082.64 3750.26 2099.37 3777.64 2150.08 3662.03 2164.28 3636.17 2113.57 3570.76 2176.95 3742.65 2164.28 3576.34 2145.01 3570.76 2172.39 3464.79 2189.63 3499.27 2101.66 3561.13 2101.66 3524.62 2056.78 3597.64 2023.32 3740.62 2035.49 3632.12 1965.52 3694.99 1952.33 3627.05 1969.57 3560.12 2113.57 3565.19 1994.92 3626.03 1964.5" style="fill:none;stroke:#f3587d;stroke-miterlimit:10;stroke-width:5px"/><polyline points="3424.23 2159.2 3464.79 2189.63 3499.27 2101.66 3429.3 2153.12 3433.36 2101.66 3499.27 2040.56 3565.19 1994.92 3524.62 2056.78 3494.71 2049.68 3504.34 2097.35 3523.61 2065.91" style="fill:none;stroke:#f3587d;stroke-miterlimit:10;stroke-width:5px"/><polyline points="4011.38 1493.97 3955.61 1454.92 4027.61 1454.92 3955.61 1345.91 4206.47 1340.84 4011.38 1270.87 3978.43 1415.88 3903.89 1429.06 4011.38 1442.76 3945.47 1452.39 3731.5 1351.99 3774.09 1324.61 3912 1351.99 3960.68 1409.8 3925.19 1409.8 3816.68 1270.87 3835.95 1323.6 3731.5 1210.02 3854.2 1082.59 3938.71 1180.61 3865.69 1301.63 3844.06 1327.32 3920.45 1262.99 4012.4 1259.71 3944.12 1188.05 3917.07 1259.04 3923.16 1131.26 4010.37 1184.67 4059.05 1227.77 4049.92 1177.57 3950.2 1186.7 4056.34 1234.7 4012.4 1265.8" style="fill:none;stroke:#f3587d;stroke-miterlimit:10;stroke-width:5px"/><polyline points="3816.68 1270.87 3772.4 1262.99 3690.93 1137.01 3617.92 1137.01 3710.88 1196.84 3799.44 1210.02 3752.79 1113.01 3838.65 1113.01 3787.95 1033.91 3923.16 1131.26" style="fill:none;stroke:#f3587d;stroke-miterlimit:10;stroke-width:5px"/><polygon points="3716.79 1353.01 3713.49 1327.9 3701.58 1237.4 3774.09 1324.61 3681.81 1297.57 3701.58 1193.8 3646.82 1184.67 3675.72 1288.28 3660.51 1340.84 3706.14 1328.67 3627.05 1254.13 3560.12 1262.99 3617.92 1288.28 3654.43 1333.23 3540.34 1288.28 3651.38 1288.28 3716.79 1353.01" style="fill:none;stroke:#f3587d;stroke-miterlimit:10;stroke-width:5px"/><polyline points="3774.09 1012.28 3760.64 1002.36 3391.78 730.36 3359.33 716.16 3320.79 701.97 3300.51 714.13 3290.37 728.33 3290.37 756.73 3290.37 795.26 3316.74 833.8 3383.66 912.89 3617.92 1137.01 3643.27 1097.46 3586.48 1033.91 3584.93 1105.44 3685.86 1082.59 3731.5 1062.98 3720.34 1020.39 3770.54 1048.78 3742.65 1082.59 3665.58 991.99 3690.93 1137.01" style="fill:none;stroke:#f3587d;stroke-miterlimit:10;stroke-width:5px"/><polyline points="3716.28 991.99 3657.21 1002.13 3671.66 945.35 3617.92 904.78 3558.09 904.78 3617.92 967.66 3697.63 955.89 3617.92 931.15 3558.09 862.19 3540.34 888.56 3496.56 807.63 3416.12 876.39 3426.36 755.86 3361.36 766.87 3359.33 716.16 3487.1 919.49 3438.43 935.21 3446.54 884.5 3373.82 901.26 3359.33 807.43 3290.37 783.09 3318.76 744.56 3369.47 803.37 3320.79 701.97" style="fill:none;stroke:#f3587d;stroke-miterlimit:10;stroke-width:5px"/><polygon points="3466.82 943.32 3522.63 1045.84 3442.79 969.46 3466.82 943.32" style="fill:none;stroke:#f3587d;stroke-miterlimit:10;stroke-width:5px"/><polygon points="3540.34 1020.39 3570.28 1091.44 3570.28 1033.91 3540.34 1020.39" style="fill:none;stroke:#f3587d;stroke-miterlimit:10;stroke-width:5px"/><line x1="3522.63" y1="1002.13" x2="3466.82" y2="943.32" style="fill:none;stroke:#f3587d;stroke-miterlimit:10;stroke-width:5px"/><polyline points="3268.06 1125.85 3290.37 1129.91 3295.93 1149.52 3258.02 1096.32" style="fill:none;stroke:#f3587d;stroke-miterlimit:10;stroke-width:5px"/><polyline points="3606.61 1314.39 3570.28 1267.44 3393.21 1212.58 3494.72 1268.84 3367.44 1184.67 3295.93 1149.52 3327.89 1152.39" style="fill:none;stroke:#f3587d;stroke-miterlimit:10;stroke-width:5px"/><path d="M3260.41,2135.79l87.21-13.15q-9.12,40.55-18.25,81.09l-79.1-116.62-20.28,62.2,30.42-13.52L3230,2149.31c-1.26-2.09-17.78-30.56-4.06-55.1a45.2,45.2,0,0,1,14.2-15.21,36.12,36.12,0,0,1,40.57-10.14l58.81,18.25,66.93,25.46L3570.92,2168l-97.89,2.24-26-36.51,10.15,85.35h88.49l15,75.38,47.63-34L3445,2219.11s-48.68,18.09-66.93,25.19,12.17-53.75,12.17-53.75l42.89,86.2h70.68l46.65,53L3485.05,2305l-27.9-10.54-133.86-75.38-93.3-69.8c14.91,5.39,18.15,10.27,18.35,13.73.23,3.94-3.47,6.44-4.15,13.31a23,23,0,0,0,1.58,10.63l58.25,42.1,96.34,60.85L3530.67,2355" transform="translate(9.67 -1066.72)" style="fill:none;stroke:#f3587d;stroke-miterlimit:10;stroke-width:5px"/><path d="M4569.6,1531.39" transform="translate(9.67 -1066.72)" style="fill:none;stroke:#f3587d;stroke-miterlimit:10;stroke-width:5px"/><polygon points="4399.78 1752.56 4381.52 1770.81 4357.69 1741.91 4399.78 1752.56" style="fill:none;stroke:#f3587d;stroke-miterlimit:10;stroke-width:5px"/><polygon points="3879.55 1507.57 3827.83 1539.43 3787.27 1423.99 3842.03 1505.12 3879.55 1507.57" style="fill:none;stroke:#f3587d;stroke-miterlimit:10;stroke-width:5px"/><path d="M3913.48,2122.64" transform="translate(9.67 -1066.72)" style="fill:none;stroke:#f3587d;stroke-miterlimit:10;stroke-width:5px"/><polygon points="4206.47 1122.92 4254.51 1152.39 4254.51 1096.32 4219.27 1177.57 4206.47 1122.92" style="fill:none;stroke:#f3587d;stroke-miterlimit:10;stroke-width:5px"/></g><g id="ETH-2" data-name="ETH"><polygon points="2485.61 51.84 1912.88 963.89 2485.61 678.37 2485.61 51.84" style="fill:none;stroke:#54d8d0;stroke-miterlimit:10;stroke-width:5px"/><polyline points="2202.83 502.17 2417.47 333.57 2485.61 51.84 2485.61 413.46 1912.88 963.89 2106.26 867.49 2083.95 691.47 2371.22 609.69 2485.61 678.37 2339.07 751.43 2199.25 507.87 2225.75 807.92 2302.77 343.01" style="fill:none;stroke:#54d8d0;stroke-miterlimit:10;stroke-width:5px"/><polyline points="2374.02 602.68 2417.47 333.57 2485.61 678.37" style="fill:none;stroke:#54d8d0;stroke-miterlimit:10;stroke-width:5px"/><line x1="2301.13" y1="352.9" x2="2371.22" y2="609.69" style="fill:none;stroke:#54d8d0;stroke-miterlimit:10;stroke-width:5px"/><circle cx="2485.61" cy="51.84" r="21.84" style="fill:none;stroke:#54d8d0;stroke-miterlimit:10;stroke-width:60px"/><circle cx="2485.61" cy="678.37" r="21.84" style="fill:none;stroke:#54d8d0;stroke-miterlimit:10;stroke-width:60px"/><circle cx="1912.88" cy="965.97" r="21.84" style="fill:none;stroke:#54d8d0;stroke-miterlimit:10;stroke-width:60px"/><polygon points="2485.61 51.84 3058.34 963.89 2485.61 678.37 2485.61 51.84" style="fill:none;stroke:#54d8d0;stroke-miterlimit:10;stroke-width:5px"/><polyline points="2768.4 502.17 2553.76 333.57 2485.61 51.84 2485.61 413.46 3058.34 963.89 2864.97 867.49 2887.27 691.47 2600.01 609.69 2485.61 678.37 2632.16 751.43 2771.98 507.87 2745.48 807.92 2668.45 343.01" style="fill:none;stroke:#54d8d0;stroke-miterlimit:10;stroke-width:5px"/><polyline points="2597.21 602.68 2553.76 333.57 2485.61 678.37" style="fill:none;stroke:#54d8d0;stroke-miterlimit:10;stroke-width:5px"/><line x1="2670.09" y1="352.9" x2="2600.01" y2="609.69" style="fill:none;stroke:#54d8d0;stroke-miterlimit:10;stroke-width:5px"/><circle cx="2485.61" cy="51.84" r="21.84" style="fill:none;stroke:#54d8d0;stroke-miterlimit:10;stroke-width:60px"/><circle cx="3058.35" cy="965.97" r="21.84" style="fill:none;stroke:#54d8d0;stroke-miterlimit:10;stroke-width:60px"/><polygon points="2485.61 2063.98 1912.88 1151.93 2485.61 1437.45 2485.61 2063.98" style="fill:none;stroke:#54d8d0;stroke-miterlimit:10;stroke-width:5px"/><polyline points="2202.83 1613.66 2417.47 1782.26 2485.61 2063.98 2485.61 1702.36 1912.88 1151.93 2106.26 1248.34 2083.95 1424.36 2371.22 1506.13 2485.61 1437.45 2339.07 1364.4 2199.25 1607.96 2225.75 1307.9 2302.77 1772.82" style="fill:none;stroke:#54d8d0;stroke-miterlimit:10;stroke-width:5px"/><polyline points="2374.02 1513.14 2417.47 1782.26 2485.61 1437.45" style="fill:none;stroke:#54d8d0;stroke-miterlimit:10;stroke-width:5px"/><line x1="2301.13" y1="1762.92" x2="2371.22" y2="1506.14" style="fill:none;stroke:#54d8d0;stroke-miterlimit:10;stroke-width:5px"/><circle cx="2485.61" cy="2063.98" r="21.84" style="fill:none;stroke:#54d8d0;stroke-miterlimit:10;stroke-width:60px"/><circle cx="2485.61" cy="1437.46" r="21.84" style="fill:none;stroke:#54d8d0;stroke-miterlimit:10;stroke-width:60px"/><circle cx="1912.88" cy="1149.86" r="21.84" style="fill:none;stroke:#54d8d0;stroke-miterlimit:10;stroke-width:60px"/><polygon points="2485.61 2063.98 3058.34 1151.93 2485.61 1437.45 2485.61 2063.98" style="fill:none;stroke:#54d8d0;stroke-miterlimit:10;stroke-width:5px"/><polyline points="2768.4 1613.66 2553.76 1782.26 2485.61 2063.98 2485.61 1702.36 3058.34 1151.93 2864.97 1248.34 2887.27 1424.36 2600.01 1506.13 2485.61 1437.45 2632.16 1364.4 2771.98 1607.96 2745.48 1307.9 2668.45 1772.82" style="fill:none;stroke:#54d8d0;stroke-miterlimit:10;stroke-width:5px"/><polyline points="2597.21 1513.14 2553.76 1782.26 2485.61 1437.45" style="fill:none;stroke:#54d8d0;stroke-miterlimit:10;stroke-width:5px"/><line x1="2670.09" y1="1762.92" x2="2600.01" y2="1506.14" style="fill:none;stroke:#54d8d0;stroke-miterlimit:10;stroke-width:5px"/><circle cx="2485.61" cy="2063.98" r="21.84" style="fill:none;stroke:#54d8d0;stroke-miterlimit:10;stroke-width:60px"/><circle cx="3058.35" cy="1149.86" r="21.84" style="fill:none;stroke:#54d8d0;stroke-miterlimit:10;stroke-width:60px"/><polygon points="2022.21 1053.34 1988.28 1031.67 1982.15 1081.82 2022.21 1053.34" style="fill:none;stroke:#7f51d6;stroke-miterlimit:10;stroke-width:5px"/><polyline points="2031.49 1106.23 2022.21 1053.34 2043.23 1004.28 2134.34 1081.82 2029.22 1056.75 2049.43 1042.34 2199.25 935.56 2125.93 1101.69 2085.85 1133.11 2067.06 1081.82 2199.25 1189.19 2273.1 1004.28 2123.91 1151.93 2096.77 977.59 2147.66 1023.86 2064.26 1057.29 2485.61 1042.08 2292.03 1235.08 2333.02 859.82 2485.61 1190.66 2381.03 1273.04 2485.61 1262.88 2235.11 1206.93 2485.61 857.24 2399.1 826.88 2407.66 1187.85 2253.91 977.59 2276.61 887.94 2313.75 947.51 2199.25 1031.67 2199.25 926.5 2472.13 995.87 2223.54 1201.21 2169.38 1081.82 2285.72 1109.4 2464.64 817.92 2485.61 783.75 2069.86 987.81 2002.18 1093.22 2485.61 1323.81 2485.61 823.51 2446.9 817.39 2485.61 810.81" style="fill:none;stroke:#7f51d6;stroke-miterlimit:10;stroke-width:5px"/><polygon points="1934.72 1053.78 2043.23 1004.28 2002.18 1093.22 1934.72 1053.78" style="fill:none;stroke:#7f51d6;stroke-miterlimit:10;stroke-width:5px"/><polygon points="2949.02 1052.89 2982.95 1031.22 2989.08 1081.38 2949.02 1052.89" style="fill:none;stroke:#7f51d6;stroke-miterlimit:10;stroke-width:5px"/><polyline points="2939.74 1105.78 2949.02 1052.89 2928 1003.83 2836.89 1081.38 2942.01 1056.3 2921.8 1041.89 2771.98 935.11 2845.3 1101.24 2885.37 1132.66 2904.17 1081.38 2771.98 1188.74 2698.13 1003.83 2847.32 1151.48 2874.46 977.14 2823.57 1023.41 2906.97 1056.84 2485.61 1041.63 2679.2 1234.63 2638.21 859.37 2485.61 1190.21 2590.2 1272.59 2485.61 1262.43 2736.11 1206.48 2485.61 856.79 2572.13 826.43 2563.57 1187.4 2717.32 977.14 2694.62 887.5 2657.48 947.06 2771.98 1031.22 2771.98 926.06 2499.09 995.42 2747.69 1200.76 2801.85 1081.38 2685.51 1108.95 2506.59 817.48 2485.61 783.31 2901.36 987.36 2969.05 1092.78 2485.61 1323.36 2485.61 823.06 2524.32 816.95 2485.61 810.37" style="fill:none;stroke:#7f51d6;stroke-miterlimit:10;stroke-width:5px"/><polygon points="3036.51 1053.34 2928 1003.83 2969.05 1092.78 3036.51 1053.34" style="fill:none;stroke:#7f51d6;stroke-miterlimit:10;stroke-width:5px"/><polyline points="2455.31 1304.25 2407.66 1187.85 2354.97 1261.5 2301.13 1165.95 2485.61 1205.55 2444.64 1253.73 2179.89 1131.73 1934.72 1053.78 2485.61 1219.1 2597.21 1185.52 2905.43 1092.78 3036.51 1053.34 2562.19 1182.32 2497.82 1199.83 2525.69 1304.25 2587.77 1199.83 2635.05 1252.08 2657.15 1180.55 2705.5 1199.83 2727.33 1161.28 2804.32 1149.86 2823.24 1087.69" style="fill:none;stroke:#7f51d6;stroke-miterlimit:10;stroke-width:5px"/></g></g></g></svg>