<svg xmlns="http://www.w3.org/2000/svg" viewBox="0 0 5000 5023.98"><title>BOUNTY LINE ART 2</title><g style="isolation:isolate"><g id="Layer_1" data-name="Layer 1"><g style="mix-blend-mode:soft-light"><g id="LEFT_HAND" data-name="LEFT HAND"><polygon points="17.52 2835.05 129.23 2799.39 98.28 2851.86 17.52 2835.05" style="fill:none;stroke:#f3587d;stroke-miterlimit:10;stroke-width:5px"/><polygon points="119.14 2942 160.84 2894.91 98.28 2851.86 119.14 2942" style="fill:none;stroke:#f3587d;stroke-miterlimit:10;stroke-width:5px"/><polygon points="98.28 3055.01 119.14 2942 189.09 2947.38 98.28 3055.01" style="fill:none;stroke:#f3587d;stroke-miterlimit:10;stroke-width:5px"/><polygon points="129.23 3110.84 127.33 3107.41 98.28 3055.01 204.56 3079.9 129.23 3110.84" style="fill:none;stroke:#f3587d;stroke-miterlimit:10;stroke-width:5px"/><polygon points="17.52 3342.57 57.92 3288.09 175.98 3205.35 275.87 3205.35 115.44 3273.96 17.52 3342.57" style="fill:none;stroke:#f3587d;stroke-miterlimit:10;stroke-width:5px"/><polyline points="285.96 3088.3 175.98 3205.35 254.68 3168.01 285.96 3094.36 344.48 3127.66 420.15 3171.04 438.32 3088.3 351.54 3124.63 262.75 3167.01 344.48 3214.43 414.1 3175.08 485.74 3235.62 343.47 3205.35 275.87 3198.28 275.87 3168.01 403 3170.03 481.7 3135.73 439.33 3082.92" style="fill:none;stroke:#f3587d;stroke-miterlimit:10;stroke-width:5px"/><polygon points="239.54 3055.01 245.6 3159.27 282.93 3082.92 239.54 3055.01" style="fill:none;stroke:#f3587d;stroke-miterlimit:10;stroke-width:5px"/><polygon points="394.93 3049.96 244.95 3058.48 390.89 2962.18 394.93 3049.96" style="fill:none;stroke:#f3587d;stroke-miterlimit:10;stroke-width:5px"/><polygon points="370.71 2896.93 390.89 2962.18 282.93 2919.8 370.71 2896.93" style="fill:none;stroke:#f3587d;stroke-miterlimit:10;stroke-width:5px"/><polygon points="324.97 2812.17 282.93 2919.8 265.78 2876.08 324.97 2812.17" style="fill:none;stroke:#f3587d;stroke-miterlimit:10;stroke-width:5px"/><polygon points="239.54 2825.63 261.24 2880.79 189.09 2947.38 160.84 2894.91 256.36 2880.11 239.54 2825.63" style="fill:none;stroke:#f3587d;stroke-miterlimit:10;stroke-width:5px"/><polygon points="189.09 2802.08 239.54 2825.63 319.94 2700.85 227.97 2748.37 129.23 2799.39 189.09 2802.08" style="fill:none;stroke:#f3587d;stroke-miterlimit:10;stroke-width:5px"/><polyline points="230.13 2750.96 189.09 2802.08 233.99 2751.47 371.72 2747.26 319.94 2700.85 453.45 2724.05 453.45 2781.9 375.42 2746.93 446.05 2728.09 456.14 2869.35 513.99 2869.35 485.74 2830.34 457.49 2779.89 513.99 2799.39 452.78 2869.35" style="fill:none;stroke:#f3587d;stroke-miterlimit:10;stroke-width:5px"/><polygon points="614.89 2869.35 513.99 2869.35 513.99 2799.39 614.89 2869.35" style="fill:none;stroke:#f3587d;stroke-miterlimit:10;stroke-width:5px"/><polygon points="527.11 2700.85 513.99 2799.39 592.19 2750.12 592.19 2666.04 527.11 2700.85" style="fill:none;stroke:#f3587d;stroke-miterlimit:10;stroke-width:5px"/><path d="M643.65,2716l-51.46,34.14Z" transform="translate(0 0)" style="fill:none;stroke:#f3587d;stroke-miterlimit:10;stroke-width:5px"/><polyline points="474.14 2635.77 485.74 2600.96 394.93 2659.98 471.11 2644.85 553.09 2631.23 643.65 2715.98 592.19 2666.04 617.92 2577.36 559.4 2626.18 491.79 2609.03 519.29 2589.35 617.92 2577.36 637.76 2509.47 513.99 2589.35" style="fill:none;stroke:#f3587d;stroke-miterlimit:10;stroke-width:5px"/><polygon points="592.19 3055.01 513.99 3138.25 614.89 3168.52 513.99 3129.17 525.6 3205.35 592.19 3055.01" style="fill:none;stroke:#f3587d;stroke-miterlimit:10;stroke-width:5px"/><polygon points="731.43 2998.5 729.45 3005.6 701.16 3107.14 701.16 3176.09 817.7 3176.09 711.76 3110.84 778.35 3087.3 731.43 2998.5" style="fill:none;stroke:#f3587d;stroke-miterlimit:10;stroke-width:5px"/><polygon points="73.37 3342.57 59.94 3426.32 129.56 3373.85 73.37 3342.57" style="fill:none;stroke:#f3587d;stroke-miterlimit:10;stroke-width:5px"/><polygon points="98.28 3176.09 59.94 3196.27 25.64 3176.09 98.28 3176.09" style="fill:none;stroke:#f3587d;stroke-miterlimit:10;stroke-width:5px"/><polygon points="59.94 2998.5 25.64 3010.33 25.64 2980.34 59.94 2998.5" style="fill:none;stroke:#f3587d;stroke-miterlimit:10;stroke-width:5px"/><polygon points="98.28 2685.71 98.28 2724.05 59.94 2700.85 98.28 2685.71" style="fill:none;stroke:#f3587d;stroke-miterlimit:10;stroke-width:5px"/><polygon points="336.91 3285.06 370.71 3307.26 394.93 3285.06 336.91 3285.06" style="fill:none;stroke:#f3587d;stroke-miterlimit:10;stroke-width:5px"/><polygon points="513.99 3307.26 633.05 3307.26 553.09 3273.96 513.99 3307.26" style="fill:none;stroke:#f3587d;stroke-miterlimit:10;stroke-width:5px"/><polyline points="495.83 3235.62 564.44 3235.62 643.65 3273.96 817.7 3290.61 737.99 3235.62 633.05 3263.11" style="fill:none;stroke:#f3587d;stroke-miterlimit:10;stroke-width:5px"/><polygon points="817.7 3176.09 737.99 3235.62 824.76 3235.62 817.7 3176.09" style="fill:none;stroke:#f3587d;stroke-miterlimit:10;stroke-width:5px"/><polyline points="811.65 3363.76 884.3 3371.83 846.96 3422.28 804.59 3365.78 875.78 3408.16 875.78 3337.53 817.7 3337.53 804.59 3370.82" style="fill:none;stroke:#f3587d;stroke-miterlimit:10;stroke-width:5px"/><polyline points="614.89 3168.52 546.78 3058.48 596.73 3048.95 513.99 3129.17 540.73 3065.6" style="fill:none;stroke:#f3587d;stroke-miterlimit:10;stroke-width:5px"/><polygon points="824.76 3235.62 943.32 3205.85 943.32 3263.11 824.76 3235.62" style="fill:none;stroke:#f3587d;stroke-miterlimit:10;stroke-width:5px"/><polygon points="817.7 3290.61 958.46 3321.38 884.3 3273.96 817.7 3290.61" style="fill:none;stroke:#f3587d;stroke-miterlimit:10;stroke-width:5px"/><line x1="943.32" y1="3263.11" x2="884.3" y2="3273.96" style="fill:none;stroke:#f3587d;stroke-miterlimit:10;stroke-width:5px"/><polygon points="988.73 3297.67 1034.13 3321.38 958.46 3321.38 893.85 3307.26 988.73 3297.67" style="fill:none;stroke:#f3587d;stroke-miterlimit:10;stroke-width:5px"/><polyline points="614.89 2869.35 639.11 2896.93 690.57 2865.99 519.29 2799.39" style="fill:none;stroke:#f3587d;stroke-miterlimit:10;stroke-width:5px"/><polygon points="776.33 2848.16 690.57 2865.99 776.33 2903.66 776.33 2848.16" style="fill:none;stroke:#f3587d;stroke-miterlimit:10;stroke-width:5px"/><polygon points="855.03 2792.67 776.33 2848.16 919.61 2820.41 855.03 2792.67" style="fill:none;stroke:#f3587d;stroke-miterlimit:10;stroke-width:5px"/><polygon points="759.43 2750.12 855.03 2792.67 794.5 2715.98 759.43 2750.12" style="fill:none;stroke:#f3587d;stroke-miterlimit:10;stroke-width:5px"/><polygon points="759.43 2686.72 794.5 2715.98 759.43 2750.12 759.43 2686.72" style="fill:none;stroke:#f3587d;stroke-miterlimit:10;stroke-width:5px"/><polygon points="719.83 2666.04 759.43 2686.72 719.83 2621.14 719.83 2666.04" style="fill:none;stroke:#f3587d;stroke-miterlimit:10;stroke-width:5px"/><polygon points="617.92 2577.36 719.83 2621.14 701.16 2557.57 617.92 2577.36" style="fill:none;stroke:#f3587d;stroke-miterlimit:10;stroke-width:5px"/><polygon points="776.96 2422.36 686.53 2475.07 680.42 2479.38 698.64 2552.52 776.96 2487.44 673.41 2491.98 637.76 2509.47 690.57 2552.52 816.69 2552.52 776.96 2495.01 776.96 2422.36" style="fill:none;stroke:#f3587d;stroke-miterlimit:10;stroke-width:5px"/><polygon points="877.23 2397.14 776.96 2422.36 776.33 2482.9 877.23 2397.14" style="fill:none;stroke:#f3587d;stroke-miterlimit:10;stroke-width:5px"/><polygon points="915.58 2422.36 877.23 2397.14 963 2390.07 915.58 2422.36" style="fill:none;stroke:#f3587d;stroke-miterlimit:10;stroke-width:5px"/><polygon points="816.69 2552.52 953.92 2440.02 928.69 2496.27 816.69 2552.52" style="fill:none;stroke:#f3587d;stroke-miterlimit:10;stroke-width:5px"/><polygon points="794.5 2627.19 834.86 2598.94 807.23 2552.52 794.5 2627.19" style="fill:none;stroke:#f3587d;stroke-miterlimit:10;stroke-width:5px"/><polygon points="816.69 2658.47 794.5 2627.19 759.43 2686.72 816.69 2658.47" style="fill:none;stroke:#f3587d;stroke-miterlimit:10;stroke-width:5px"/><polyline points="847.97 2732.72 816.69 2658.47 794.5 2715.98 869.16 2785.1 973.09 2732.72 911.54 2700.85 985.2 2666.04 1001.34 2721.78 963 2815.87 919.61 2820.41 971.07 2739.44 977.12 2700.85 993.27 2727.08" style="fill:none;stroke:#f3587d;stroke-miterlimit:10;stroke-width:5px"/><polygon points="953.92 2896.93 919.61 2820.41 963 2815.87 953.92 2896.93" style="fill:none;stroke:#f3587d;stroke-miterlimit:10;stroke-width:5px"/><path d="M885.3,2937l34.31-116.54Z" transform="translate(0 0)" style="fill:none;stroke:#f3587d;stroke-miterlimit:10;stroke-width:5px"/><polyline points="953.92 2896.93 885.3 2936.95 776.33 2848.16 817.7 2962.18 877.23 2973.28 963 3017.17 953.92 2968.74 897.92 2947.38 869.66 2962.18 863.11 3055.01 817.7 2970.25" style="fill:none;stroke:#f3587d;stroke-miterlimit:10;stroke-width:5px"/><polygon points="978.13 3159.27 863.11 3055.01 963 3017.17 1008.4 3017.17 963.99 3041.39 963.99 3097.39 978.46 3099.04 1049.27 3107.14 1132.51 3176.09 1091.65 3218.47 1011.43 3186.18 943.32 3205.85 978.13 3159.27" style="fill:none;stroke:#f3587d;stroke-miterlimit:10;stroke-width:5px"/><polyline points="976.62 3145.82 978.46 3099.04 875.78 3066.49 1015.97 3055.01 1034.13 3105.41 1167.32 3117.82 1132.51 3176.09 987.21 3107.14 1144.62 3273.96 1097.7 3297.67 1090.13 3234.48 1197.59 3244.2 1141.59 3186.18 1250.56 3176.09 1174.89 3130.18 1308.08 3159.27 1308.08 3205.35 1285.37 3235.62 1174.89 3196.27 1208.18 3159.27 1235.43 3130.18 1274.78 3321.38 1279.32 3256.3 1212.73 3263.11 1239.97 3342.57 1150.67 3397.06 1217.27 3397.06 1132.51 3333.49 1034.13 3309.53 1211.21 3290.61 1261.16 3307.26 1233.91 3357.71 1348.94 3371.83 1374.67 3321.38 1439.75 3384.45 1268.73 3371.83 1434.2 3352.66 1439.75 3379.91 1545.19 3397.06 1510.89 3309.53 1449.34 3309.53 1485.66 3264.88 1413.01 3231.58 1270.74 3243.69 1378.71 3174.07 1316.15 3160.95 1383.75 3178.11 1450.35 3321.38 1445.3 3203.33 1384.76 3173.06" style="fill:none;stroke:#f3587d;stroke-miterlimit:10;stroke-width:5px"/><polyline points="1585.55 3366.79 1545.19 3397.06 1510.89 3309.53 1580.51 3360.74 1576.47 3309.53 1510.89 3248.74 1445.3 3203.33 1485.66 3264.88 1515.43 3257.82 1505.84 3305.24 1486.67 3273.96" style="fill:none;stroke:#f3587d;stroke-miterlimit:10;stroke-width:5px"/><polyline points="1001.34 2704.88 1056.84 2666.04 985.2 2666.04 1056.84 2557.57 807.23 2552.52 1001.34 2482.9 1034.13 2627.19 1108.29 2640.31 1001.34 2653.93 1066.92 2663.51 1279.83 2563.62 1237.45 2536.38 1100.22 2563.62 1051.79 2621.14 1087.11 2621.14 1195.07 2482.9 1175.9 2535.37 1279.83 2422.36 1157.73 2295.57 1073.65 2393.1 1146.3 2513.51 1167.83 2539.07 1091.81 2475.07 1000.33 2471.8 1068.27 2400.5 1095.18 2471.13 1089.12 2344 1002.35 2397.14 953.92 2440.02 963 2390.07 1062.22 2399.16 956.61 2446.91 1000.33 2477.86" style="fill:none;stroke:#f3587d;stroke-miterlimit:10;stroke-width:5px"/><polyline points="1195.07 2482.9 1239.13 2475.07 1320.18 2349.72 1392.83 2349.72 1300.34 2409.25 1212.22 2422.36 1258.64 2325.84 1173.21 2325.84 1223.66 2247.13 1089.12 2344" style="fill:none;stroke:#f3587d;stroke-miterlimit:10;stroke-width:5px"/><polygon points="1294.45 2564.63 1297.74 2539.65 1309.59 2449.61 1237.45 2536.38 1329.27 2509.47 1309.59 2406.22 1364.08 2397.14 1335.32 2500.22 1350.45 2552.52 1305.05 2540.42 1383.75 2466.26 1450.35 2475.07 1392.83 2500.22 1356.51 2544.96 1470.02 2500.22 1359.54 2500.22 1294.45 2564.63" style="fill:none;stroke:#f3587d;stroke-miterlimit:10;stroke-width:5px"/><polyline points="1237.45 2225.61 1250.83 2215.74 1617.84 1945.11 1650.13 1930.98 1688.47 1916.85 1708.65 1928.96 1718.74 1943.09 1718.74 1971.34 1718.74 2009.68 1692.51 2048.02 1625.91 2126.72 1392.83 2349.72 1367.61 2310.36 1424.11 2247.13 1425.66 2318.31 1325.23 2295.57 1279.83 2276.06 1290.92 2233.68 1240.98 2261.93 1268.73 2295.57 1345.41 2205.43 1320.18 2349.72" style="fill:none;stroke:#f3587d;stroke-miterlimit:10;stroke-width:5px"/><polyline points="1294.96 2205.43 1353.73 2215.52 1339.36 2159.01 1392.83 2118.65 1452.36 2118.65 1392.83 2181.21 1313.52 2169.51 1392.83 2144.89 1452.36 2076.28 1470.02 2102.51 1513.58 2021.99 1593.62 2090.4 1583.43 1970.48 1648.11 1981.43 1650.13 1930.98 1522.99 2133.28 1571.43 2148.92 1563.35 2098.47 1635.71 2115.15 1650.13 2021.79 1718.74 1997.57 1690.49 1959.23 1640.04 2017.75 1688.47 1916.85" style="fill:none;stroke:#f3587d;stroke-miterlimit:10;stroke-width:5px"/><polygon points="1543.17 2156.99 1487.64 2259.01 1567.09 2183 1543.17 2156.99" style="fill:none;stroke:#f3587d;stroke-miterlimit:10;stroke-width:5px"/><polygon points="1470.02 2233.68 1440.23 2304.37 1440.23 2247.13 1470.02 2233.68" style="fill:none;stroke:#f3587d;stroke-miterlimit:10;stroke-width:5px"/><line x1="1487.65" y1="2215.52" x2="1543.17" y2="2157" style="fill:none;stroke:#f3587d;stroke-miterlimit:10;stroke-width:5px"/><polyline points="1740.94 2338.62 1718.74 2342.65 1713.21 2362.16 1750.93 2309.23" style="fill:none;stroke:#f3587d;stroke-miterlimit:10;stroke-width:5px"/><polyline points="1404.08 2526.21 1440.23 2479.49 1616.42 2424.91 1515.41 2480.89 1642.06 2397.14 1713.21 2362.16 1681.41 2365.02" style="fill:none;stroke:#f3587d;stroke-miterlimit:10;stroke-width:5px"/><path d="M1738.92,2282.11,1652.15,2269q9.07,40.33,18.16,80.68l78.7-116q10.1,30.95,20.18,61.89l-30.27-13.46,30.27,13.46c1.25-2.09,17.69-30.41,4-54.83a44.83,44.83,0,0,0-14.13-15.13,35.91,35.91,0,0,0-40.36-10.09l-58.52,18.16-66.6,25.33L1430,2314.19l97.4,2.23,25.89-36.33L1543.17,2365h-88.05l-14.89,75-47.4-33.8,162.45-41.2s48.43,18,66.6,25.05-12.11-53.47-12.11-53.47l-42.68,85.76h-70.33l-46.41,52.71,65.06-24.57,27.76-10.48,133.19-75,92.83-69.45c-14.83,5.36-18.06,10.21-18.26,13.66-.23,3.92,3.46,6.41,4.13,13.24a22.88,22.88,0,0,1-1.57,10.57l-58,41.9-95.85,60.54L1470,2500.22" transform="translate(0 0)" style="fill:none;stroke:#f3587d;stroke-miterlimit:10;stroke-width:5px"/><polygon points="614.89 2962.18 633.05 2980.34 656.77 2951.58 614.89 2962.18" style="fill:none;stroke:#f3587d;stroke-miterlimit:10;stroke-width:5px"/><polygon points="1132.51 2718.42 1183.97 2750.12 1224.33 2635.26 1169.84 2715.98 1132.51 2718.42" style="fill:none;stroke:#f3587d;stroke-miterlimit:10;stroke-width:5px"/><path d="M1089.12,2269" transform="translate(0 0)" style="fill:none;stroke:#f3587d;stroke-miterlimit:10;stroke-width:5px"/><polygon points="807.23 2335.69 759.43 2365.02 759.43 2309.23 794.5 2390.07 807.23 2335.69" style="fill:none;stroke:#f3587d;stroke-miterlimit:10;stroke-width:5px"/></g><g id="RIGHT_HAND" data-name="RIGHT HAND"><polygon points="4981.48 2833.05 4869.78 2797.4 4900.72 2849.87 4981.48 2833.05" style="fill:none;stroke:#f3587d;stroke-miterlimit:10;stroke-width:5px"/><polygon points="4879.87 2940.01 4838.16 2892.92 4900.72 2849.87 4879.87 2940.01" style="fill:none;stroke:#f3587d;stroke-miterlimit:10;stroke-width:5px"/><polygon points="4900.72 3053.02 4879.87 2940.01 4809.91 2945.39 4900.72 3053.02" style="fill:none;stroke:#f3587d;stroke-miterlimit:10;stroke-width:5px"/><polygon points="4869.78 3108.85 4871.68 3105.42 4900.72 3053.02 4794.44 3077.91 4869.78 3108.85" style="fill:none;stroke:#f3587d;stroke-miterlimit:10;stroke-width:5px"/><polygon points="4981.48 3340.58 4941.08 3286.1 4823.03 3203.36 4723.14 3203.36 4883.57 3271.97 4981.48 3340.58" style="fill:none;stroke:#f3587d;stroke-miterlimit:10;stroke-width:5px"/><polyline points="4713.05 3086.31 4823.03 3203.36 4744.33 3166.03 4713.05 3092.37 4654.52 3125.66 4578.85 3169.05 4560.69 3086.31 4647.46 3122.64 4736.25 3165.02 4654.52 3212.44 4584.9 3173.09 4513.27 3233.63 4655.53 3203.36 4723.14 3196.3 4723.14 3166.03 4596 3168.04 4517.3 3133.74 4559.68 3080.93" style="fill:none;stroke:#f3587d;stroke-miterlimit:10;stroke-width:5px"/><polygon points="4759.46 3053.02 4753.41 3157.28 4716.07 3080.93 4759.46 3053.02" style="fill:none;stroke:#f3587d;stroke-miterlimit:10;stroke-width:5px"/><polygon points="4604.07 3047.97 4754.06 3056.49 4608.11 2960.19 4604.07 3047.97" style="fill:none;stroke:#f3587d;stroke-miterlimit:10;stroke-width:5px"/><polygon points="4628.29 2894.94 4608.11 2960.19 4716.07 2917.81 4628.29 2894.94" style="fill:none;stroke:#f3587d;stroke-miterlimit:10;stroke-width:5px"/><polygon points="4674.03 2810.18 4716.07 2917.81 4733.23 2874.09 4674.03 2810.18" style="fill:none;stroke:#f3587d;stroke-miterlimit:10;stroke-width:5px"/><polygon points="4759.46 2823.64 4737.77 2878.8 4809.91 2945.39 4838.16 2892.92 4742.65 2878.12 4759.46 2823.64" style="fill:none;stroke:#f3587d;stroke-miterlimit:10;stroke-width:5px"/><polygon points="4809.91 2800.09 4759.46 2823.64 4679.07 2698.86 4771.03 2746.38 4869.78 2797.4 4809.91 2800.09" style="fill:none;stroke:#f3587d;stroke-miterlimit:10;stroke-width:5px"/><polyline points="4768.88 2748.97 4809.91 2800.09 4765.01 2749.48 4627.28 2745.27 4679.07 2698.86 4545.55 2722.07 4545.55 2779.91 4623.58 2744.93 4552.95 2726.1 4542.86 2867.36 4485.01 2867.36 4513.27 2828.35 4541.52 2777.9 4485.01 2797.4 4546.23 2867.36" style="fill:none;stroke:#f3587d;stroke-miterlimit:10;stroke-width:5px"/><polygon points="4384.11 2867.36 4485.01 2867.36 4485.01 2797.4 4384.11 2867.36" style="fill:none;stroke:#f3587d;stroke-miterlimit:10;stroke-width:5px"/><polygon points="4471.9 2698.86 4485.01 2797.4 4406.81 2748.13 4406.81 2664.05 4471.9 2698.86" style="fill:none;stroke:#f3587d;stroke-miterlimit:10;stroke-width:5px"/><path d="M4355.36,2714l51.46,34.14Z" transform="translate(0 0)" style="fill:none;stroke:#f3587d;stroke-miterlimit:10;stroke-width:5px"/><polyline points="4524.87 2633.78 4513.27 2598.97 4604.07 2657.99 4527.9 2642.86 4445.91 2629.24 4355.36 2713.99 4406.81 2664.05 4381.09 2575.37 4439.61 2624.19 4507.21 2607.04 4479.72 2587.36 4381.09 2575.37 4361.24 2507.48 4485.01 2587.36" style="fill:none;stroke:#f3587d;stroke-miterlimit:10;stroke-width:5px"/><polygon points="4406.81 3053.02 4485.01 3136.26 4384.11 3166.53 4485.01 3127.18 4473.41 3203.36 4406.81 3053.02" style="fill:none;stroke:#f3587d;stroke-miterlimit:10;stroke-width:5px"/><polygon points="4267.57 2996.51 4269.55 3003.61 4297.84 3105.15 4297.84 3174.1 4181.3 3174.1 4287.25 3108.85 4220.65 3085.3 4267.57 2996.51" style="fill:none;stroke:#f3587d;stroke-miterlimit:10;stroke-width:5px"/><polygon points="4925.63 3340.58 4939.06 3424.33 4869.44 3371.86 4925.63 3340.58" style="fill:none;stroke:#f3587d;stroke-miterlimit:10;stroke-width:5px"/><polygon points="4900.72 3174.1 4939.06 3194.28 4973.37 3174.1 4900.72 3174.1" style="fill:none;stroke:#f3587d;stroke-miterlimit:10;stroke-width:5px"/><polygon points="4939.06 2996.51 4973.37 3008.34 4973.37 2978.35 4939.06 2996.51" style="fill:none;stroke:#f3587d;stroke-miterlimit:10;stroke-width:5px"/><polygon points="4900.72 2683.72 4900.72 2722.07 4939.06 2698.86 4900.72 2683.72" style="fill:none;stroke:#f3587d;stroke-miterlimit:10;stroke-width:5px"/><polygon points="4662.09 3283.07 4628.29 3305.27 4604.07 3283.07 4662.09 3283.07" style="fill:none;stroke:#f3587d;stroke-miterlimit:10;stroke-width:5px"/><polygon points="4485.01 3305.27 4365.95 3305.27 4445.91 3271.97 4485.01 3305.27" style="fill:none;stroke:#f3587d;stroke-miterlimit:10;stroke-width:5px"/><polyline points="4503.18 3233.63 4434.56 3233.63 4355.36 3271.97 4181.3 3288.62 4261.01 3233.63 4365.95 3261.12" style="fill:none;stroke:#f3587d;stroke-miterlimit:10;stroke-width:5px"/><polygon points="4181.3 3174.1 4261.01 3233.63 4174.24 3233.63 4181.3 3174.1" style="fill:none;stroke:#f3587d;stroke-miterlimit:10;stroke-width:5px"/><polyline points="4187.36 3361.77 4114.71 3369.84 4152.04 3420.29 4194.42 3363.79 4123.23 3406.17 4123.23 3335.54 4181.3 3335.54 4194.42 3368.84" style="fill:none;stroke:#f3587d;stroke-miterlimit:10;stroke-width:5px"/><polyline points="4384.11 3166.53 4452.22 3056.49 4402.27 3046.96 4485.01 3127.18 4458.27 3063.61" style="fill:none;stroke:#f3587d;stroke-miterlimit:10;stroke-width:5px"/><polygon points="4174.24 3233.63 4055.68 3203.86 4055.68 3261.12 4174.24 3233.63" style="fill:none;stroke:#f3587d;stroke-miterlimit:10;stroke-width:5px"/><polygon points="4181.3 3288.62 4040.55 3319.39 4114.71 3271.97 4181.3 3288.62" style="fill:none;stroke:#f3587d;stroke-miterlimit:10;stroke-width:5px"/><line x1="4055.68" y1="3261.12" x2="4114.71" y2="3271.97" style="fill:none;stroke:#f3587d;stroke-miterlimit:10;stroke-width:5px"/><polygon points="4010.28 3295.68 3964.87 3319.39 4040.55 3319.39 4105.16 3305.27 4010.28 3295.68" style="fill:none;stroke:#f3587d;stroke-miterlimit:10;stroke-width:5px"/><polyline points="4384.11 2867.36 4359.9 2894.94 4308.44 2864 4479.72 2797.4" style="fill:none;stroke:#f3587d;stroke-miterlimit:10;stroke-width:5px"/><polygon points="4222.67 2846.17 4308.44 2864 4222.67 2901.67 4222.67 2846.17" style="fill:none;stroke:#f3587d;stroke-miterlimit:10;stroke-width:5px"/><polygon points="4143.97 2790.68 4222.67 2846.17 4079.39 2818.42 4143.97 2790.68" style="fill:none;stroke:#f3587d;stroke-miterlimit:10;stroke-width:5px"/><polygon points="4239.57 2748.13 4143.97 2790.68 4204.51 2713.99 4239.57 2748.13" style="fill:none;stroke:#f3587d;stroke-miterlimit:10;stroke-width:5px"/><polygon points="4239.57 2684.73 4204.51 2713.99 4239.57 2748.13 4239.57 2684.73" style="fill:none;stroke:#f3587d;stroke-miterlimit:10;stroke-width:5px"/><polygon points="4279.18 2664.05 4239.57 2684.73 4279.18 2619.15 4279.18 2664.05" style="fill:none;stroke:#f3587d;stroke-miterlimit:10;stroke-width:5px"/><polygon points="4381.09 2575.37 4279.18 2619.15 4297.84 2555.58 4381.09 2575.37" style="fill:none;stroke:#f3587d;stroke-miterlimit:10;stroke-width:5px"/><polygon points="4222.04 2420.37 4312.47 2473.08 4318.58 2477.39 4300.37 2550.53 4222.04 2485.45 4325.59 2489.99 4361.24 2507.48 4308.44 2550.53 4182.31 2550.53 4222.04 2493.02 4222.04 2420.37" style="fill:none;stroke:#f3587d;stroke-miterlimit:10;stroke-width:5px"/><polygon points="4121.77 2395.15 4222.04 2420.37 4222.67 2480.91 4121.77 2395.15" style="fill:none;stroke:#f3587d;stroke-miterlimit:10;stroke-width:5px"/><polygon points="4083.43 2420.37 4121.77 2395.15 4036.01 2388.09 4083.43 2420.37" style="fill:none;stroke:#f3587d;stroke-miterlimit:10;stroke-width:5px"/><polygon points="4182.31 2550.53 4045.09 2438.03 4070.31 2494.28 4182.31 2550.53" style="fill:none;stroke:#f3587d;stroke-miterlimit:10;stroke-width:5px"/><polygon points="4204.51 2625.2 4164.15 2596.95 4191.77 2550.53 4204.51 2625.2" style="fill:none;stroke:#f3587d;stroke-miterlimit:10;stroke-width:5px"/><polygon points="4182.31 2656.48 4204.51 2625.2 4239.57 2684.73 4182.31 2656.48" style="fill:none;stroke:#f3587d;stroke-miterlimit:10;stroke-width:5px"/><polyline points="4151.03 2730.72 4182.31 2656.48 4204.51 2713.99 4129.84 2783.11 4025.92 2730.72 4087.47 2698.86 4013.81 2664.05 3997.66 2719.79 4036.01 2813.88 4079.39 2818.42 4027.93 2737.45 4021.88 2698.86 4005.74 2725.09" style="fill:none;stroke:#f3587d;stroke-miterlimit:10;stroke-width:5px"/><polygon points="4045.09 2894.94 4079.39 2818.42 4036.01 2813.88 4045.09 2894.94" style="fill:none;stroke:#f3587d;stroke-miterlimit:10;stroke-width:5px"/><path d="M4113.7,2935l-34.31-116.54Z" transform="translate(0 0)" style="fill:none;stroke:#f3587d;stroke-miterlimit:10;stroke-width:5px"/><polyline points="4045.09 2894.94 4113.7 2934.96 4222.67 2846.17 4181.3 2960.19 4121.77 2971.29 4036.01 3015.18 4045.09 2966.75 4101.09 2945.39 4129.34 2960.19 4135.9 3053.02 4181.3 2968.26" style="fill:none;stroke:#f3587d;stroke-miterlimit:10;stroke-width:5px"/><polygon points="4020.87 3157.28 4135.9 3053.02 4036.01 3015.18 3990.6 3015.18 4035.01 3039.4 4035.01 3095.39 4020.54 3097.05 3949.74 3105.15 3866.49 3174.1 3907.36 3216.47 3987.57 3184.19 4055.68 3203.86 4020.87 3157.28" style="fill:none;stroke:#f3587d;stroke-miterlimit:10;stroke-width:5px"/><polyline points="4022.39 3143.83 4020.54 3097.05 4123.23 3064.5 3983.03 3053.02 3964.87 3103.42 3831.68 3115.83 3866.49 3174.1 4011.79 3105.15 3854.39 3271.97 3901.3 3295.68 3908.87 3232.49 3801.41 3242.2 3857.41 3184.19 3748.44 3174.1 3824.12 3128.19 3690.93 3157.28 3690.93 3203.36 3713.63 3233.63 3824.12 3194.28 3790.82 3157.28 3763.58 3128.19 3724.22 3319.39 3719.68 3254.31 3786.28 3261.12 3759.04 3340.58 3848.33 3395.07 3781.74 3395.07 3866.49 3331.5 3964.87 3307.54 3787.79 3288.62 3737.85 3305.27 3765.09 3355.72 3650.06 3369.84 3624.33 3319.39 3559.25 3382.46 3730.28 3369.84 3564.8 3350.67 3559.25 3377.92 3453.81 3395.07 3488.12 3307.54 3549.67 3307.54 3513.34 3262.89 3585.99 3229.59 3728.26 3241.7 3620.3 3172.08 3682.86 3158.96 3615.25 3176.11 3548.66 3319.39 3553.7 3201.34 3614.24 3171.07" style="fill:none;stroke:#f3587d;stroke-miterlimit:10;stroke-width:5px"/><polyline points="3413.45 3364.8 3453.81 3395.07 3488.12 3307.54 3418.5 3358.74 3422.53 3307.54 3488.12 3246.75 3553.7 3201.34 3513.34 3262.89 3483.58 3255.83 3493.16 3303.25 3512.34 3271.97" style="fill:none;stroke:#f3587d;stroke-miterlimit:10;stroke-width:5px"/><polyline points="3997.66 2702.89 3942.17 2664.05 4013.81 2664.05 3942.17 2555.58 4191.77 2550.53 3997.66 2480.91 3964.87 2625.2 3890.71 2638.32 3997.66 2651.94 3932.08 2661.52 3719.18 2561.63 3761.56 2534.39 3898.78 2561.63 3947.22 2619.15 3911.9 2619.15 3803.94 2480.91 3823.11 2533.38 3719.18 2420.37 3841.27 2293.57 3925.35 2391.11 3852.7 2511.52 3831.18 2537.08 3907.19 2473.08 3998.67 2469.81 3930.74 2398.51 3903.83 2469.14 3909.88 2342.01 3996.66 2395.15 4045.09 2438.03 4036.01 2388.09 3936.79 2397.17 4042.4 2444.93 3998.67 2475.87" style="fill:none;stroke:#f3587d;stroke-miterlimit:10;stroke-width:5px"/><polyline points="3803.94 2480.91 3759.88 2473.08 3678.82 2347.72 3606.17 2347.72 3698.66 2407.26 3786.78 2420.37 3740.37 2323.84 3825.8 2323.84 3775.35 2245.14 3909.88 2342.01" style="fill:none;stroke:#f3587d;stroke-miterlimit:10;stroke-width:5px"/><polygon points="3704.55 2562.64 3701.26 2537.66 3689.41 2447.62 3761.56 2534.39 3669.74 2507.48 3689.41 2404.23 3634.93 2395.15 3663.68 2498.23 3648.55 2550.53 3693.95 2538.43 3615.25 2464.26 3548.66 2473.08 3606.17 2498.23 3642.5 2542.97 3528.98 2498.23 3639.47 2498.23 3704.55 2562.64" style="fill:none;stroke:#f3587d;stroke-miterlimit:10;stroke-width:5px"/><polyline points="3761.56 2223.62 3748.18 2213.75 3381.16 1943.12 3348.88 1928.99 3310.53 1914.86 3290.36 1926.97 3280.26 1941.1 3280.26 1969.35 3280.26 2007.69 3306.5 2046.03 3373.09 2124.74 3606.17 2347.72 3631.4 2308.37 3574.89 2245.14 3573.35 2316.32 3673.78 2293.57 3719.18 2274.07 3708.08 2231.69 3758.03 2259.94 3730.28 2293.57 3653.59 2203.44 3678.82 2347.72" style="fill:none;stroke:#f3587d;stroke-miterlimit:10;stroke-width:5px"/><polyline points="3704.05 2203.44 3645.27 2213.53 3659.65 2157.02 3606.17 2116.66 3546.64 2116.66 3606.17 2179.22 3685.48 2167.52 3606.17 2142.9 3546.64 2074.28 3528.98 2100.52 3485.43 2020 3405.38 2088.41 3415.57 1968.49 3350.89 1979.44 3348.88 1928.99 3476.01 2131.29 3427.58 2146.93 3435.65 2096.48 3363.3 2113.16 3348.88 2019.8 3280.26 1995.58 3308.52 1957.24 3358.97 2015.76 3310.53 1914.86" style="fill:none;stroke:#f3587d;stroke-miterlimit:10;stroke-width:5px"/><polygon points="3455.83 2155.01 3511.36 2257.02 3431.92 2181.01 3455.83 2155.01" style="fill:none;stroke:#f3587d;stroke-miterlimit:10;stroke-width:5px"/><polygon points="3528.98 2231.69 3558.78 2302.38 3558.78 2245.14 3528.98 2231.69" style="fill:none;stroke:#f3587d;stroke-miterlimit:10;stroke-width:5px"/><line x1="3511.36" y1="2213.53" x2="3455.83" y2="2155.01" style="fill:none;stroke:#f3587d;stroke-miterlimit:10;stroke-width:5px"/><polyline points="3258.07 2336.63 3280.26 2340.66 3285.79 2360.17 3248.07 2307.24" style="fill:none;stroke:#f3587d;stroke-miterlimit:10;stroke-width:5px"/><polyline points="3594.92 2524.22 3558.78 2477.51 3382.59 2422.92 3483.59 2478.89 3356.95 2395.15 3285.79 2360.17 3317.6 2363.03" style="fill:none;stroke:#f3587d;stroke-miterlimit:10;stroke-width:5px"/><path d="M3260.08,2280.12l86.78-13.08q-9.09,40.34-18.16,80.68l-78.71-116q-10.08,30.95-20.18,61.89l30.27-13.46-30.27,13.46c-1.25-2.09-17.69-30.41-4-54.83a44.81,44.81,0,0,1,14.12-15.13,35.92,35.92,0,0,1,40.36-10.09l58.53,18.16,66.59,25.33L3569,2312.2l-97.4,2.23-25.9-36.33,10.09,84.93h88.05l14.9,75,47.39-33.8L3443.72,2363s-48.43,18-66.59,25,12.11-53.47,12.11-53.47l42.68,85.76h70.32l46.42,52.71-65.06-24.57L3455.83,2438l-133.19-75-92.83-69.45c14.84,5.36,18.06,10.21,18.26,13.66.23,3.92-3.45,6.41-4.13,13.24a23,23,0,0,0,1.57,10.57l58,41.9,95.86,60.54L3529,2498.23" transform="translate(0 0)" style="fill:none;stroke:#f3587d;stroke-miterlimit:10;stroke-width:5px"/><polygon points="4384.11 2960.19 4365.95 2978.35 4342.24 2949.59 4384.11 2960.19" style="fill:none;stroke:#f3587d;stroke-miterlimit:10;stroke-width:5px"/><polygon points="3866.49 2716.43 3815.04 2748.13 3774.68 2633.27 3829.16 2713.99 3866.49 2716.43" style="fill:none;stroke:#f3587d;stroke-miterlimit:10;stroke-width:5px"/><path d="M3909.88,2267" transform="translate(0 0)" style="fill:none;stroke:#f3587d;stroke-miterlimit:10;stroke-width:5px"/><polygon points="4191.77 2333.7 4239.57 2363.03 4239.57 2307.24 4204.51 2388.09 4191.77 2333.7" style="fill:none;stroke:#f3587d;stroke-miterlimit:10;stroke-width:5px"/></g><polygon points="1902.89 1916.85 2005.81 2184.27 2036.08 1969.27 1902.89 1916.85" style="fill:none;stroke:#42afa9;stroke-miterlimit:10;stroke-width:5px"/><polygon points="1421.59 2066.18 1515.41 1975.32 1606.24 1878.45 1506.85 1916.85 1421.59 2066.18" style="fill:none;stroke:#42afa9;stroke-miterlimit:10;stroke-width:5px"/><polygon points="1851.43 1560.62 1778.62 1624.19 1815.02 1645.38 1851.43 1560.62" style="fill:none;stroke:#42afa9;stroke-miterlimit:10;stroke-width:5px"/><polygon points="1675.86 1711.97 1606.24 1878.45 1815.02 1645.38 1675.86 1711.97" style="fill:none;stroke:#42afa9;stroke-miterlimit:10;stroke-width:5px"/><polyline points="1778.62 1624.19 1675.86 1711.97 1506.85 1916.85 1732.07 1724.08 1851.43 1715 1851.43 1575.75 1981.59 1603 1902.89 1518.24 1981.59 1478.89 1981.59 1584.84 2084.51 1663.54 1815.02 1645.38 2193.48 1478.89 2411.43 1463.76 2523.91 1539.43 2277.56 1527.32 2414.79 1463.76" style="fill:none;stroke:#42afa9;stroke-miterlimit:10;stroke-width:5px"/><polygon points="2274.87 1378.66 2277.56 1527.32 2166.57 1470.14 2274.87 1378.66" style="fill:none;stroke:#42afa9;stroke-miterlimit:10;stroke-width:5px"/><path d="M2218.37,1392.79l-51.8,77.36,127.81-61.89L2441,1427.77l-59.86-67.94-103.93,12.11L2215,1390.77l-236.92,89.87,181.76-11.17L2441,1431.13l44.57-15.81-93.84-47.42-10.59-8.07a678.23,678.23,0,0,1,117-7.07c15.94.46,25.94,1.34,81.39,4.38,29.83,1.63,54.39,2.88,71,3.7l-126.65,34.81-95.84-17,177.08,85.09,45.41,71.14,72.65-101.41-109,30.27,12.11-51.45-81.73-12.11,119.57-36.33-30.27,40.87,89.3,19.67-4.38-57.17-48.6-33.64,6.06,53s-24.22-18.84,59-7.91,125.63,21.53,125.63,21.53l-62.06,71.13L2758,1421.38l-22.71,21.19v-63.91l119.57,97.2,46.92-33.29-112-8.33,122.59-25,62.06,25-10.6,50.7-48.43-40.86,86.27,8.91,46.92,19.85-77.19,28.75s40.87,81.73,43.89,93.84l43.89,7.57-19.67,62-3-8.86L3018.34,1603l-56-13.62v-90.06L2870,1477.38l151.35,174,27.24-178.59" transform="translate(0 0)" style="fill:none;stroke:#42afa9;stroke-miterlimit:10;stroke-width:5px"/><path d="M2222.07,1690.3,2135,1729.12l87.11,32.8Z" transform="translate(0 0)" style="fill:none;stroke:#42afa9;stroke-miterlimit:10;stroke-width:5px"/><path d="M3078.88,1489.48l69.12,155.9,72.39-73Z" transform="translate(0 0)" style="fill:none;stroke:#42afa9;stroke-miterlimit:10;stroke-width:5px"/><polygon points="3341.72 1678.76 3220.39 1572.35 3285.79 1878.45 3341.72 1678.76" style="fill:none;stroke:#42afa9;stroke-miterlimit:10;stroke-width:5px"/><polygon points="3072.83 1716.51 3189.37 1787.64 3189.37 1716.51 3072.83 1716.51" style="fill:none;stroke:#42afa9;stroke-miterlimit:10;stroke-width:5px"/><polygon points="2998.66 1752.08 3189.37 1787.64 3072.83 1716.51 2998.66 1752.08" style="fill:none;stroke:#42afa9;stroke-miterlimit:10;stroke-width:5px"/><polygon points="3148 1645.38 3265.29 1782.51 3244.68 1686.06 3148 1645.38" style="fill:none;stroke:#42afa9;stroke-miterlimit:10;stroke-width:5px"/><path d="M3305.91,1665.05l-148.33-19.67q-4.6-55.17-9.22-110.33l72,37.3,121.33,106.41Z" transform="translate(0 0)" style="fill:none;stroke:#42afa9;stroke-miterlimit:10;stroke-width:5px"/><path d="M3285.79,1878.45,3480,1861.3l-22.2-31.28-116-151.26,85.27,177-109-48.43-6.05-99.89-67.28-21.37,59.15,128,98.94-35.45,40.86,136.25,50.45-35.4,42.38,51.46q17.65,25.74,35.32,51.46l57.51,75.68-175.06-93.34,82.23-33.8q10.61,32.3,21.19,64.58l-45.4,23.21L3648,2081.26q-45.16-42.87-90.31-85.76l-86.23-100.13-6.6,40.6,57.52-22.2" transform="translate(0 0)" style="fill:none;stroke:#42afa9;stroke-miterlimit:10;stroke-width:5px"/><polygon points="1636.51 2783.11 1558.65 3017.17 1750.93 2903.66 1636.51 2783.11" style="fill:none;stroke:#42afa9;stroke-miterlimit:10;stroke-width:5px"/><polygon points="1392.83 2823.64 1392.83 2818.84 1392.83 2690.7 1636.51 2783.11 1495.72 2806.53 1392.83 2823.64" style="fill:none;stroke:#42afa9;stroke-miterlimit:10;stroke-width:5px"/><polygon points="1311.24 2548.02 1315.48 2555.45 1392.83 2690.7 1334.82 2769.4 1311.24 2548.02" style="fill:none;stroke:#42afa9;stroke-miterlimit:10;stroke-width:5px"/><polygon points="1363.07 2900.14 1334.82 2769.4 1385.27 2818.84 1363.07 2900.14" style="fill:none;stroke:#42afa9;stroke-miterlimit:10;stroke-width:5px"/><polygon points="3727.16 2575.68 3727.16 2625.2 3719.18 2717.94 3710.01 2827.93 3662.59 2684.73 3713.04 2737.45 3727.16 2575.68" style="fill:none;stroke:#42afa9;stroke-miterlimit:10;stroke-width:5px"/><polygon points="3713.04 2599.89 3662.59 2684.73 3606.17 2528.65 3713.04 2599.89" style="fill:none;stroke:#42afa9;stroke-miterlimit:10;stroke-width:5px"/><polyline points="3373 2737.45 3280.26 2761.33 3280.26 2656.48 3543.88 2721.98 3434.55 2785.55 3381.08 2737.45 3602.05 2702.89 3662.59 2684.73 3606.17 2528.65 3543.88 2713.99 3602.05 2876.69 3666.62 2846.17 3713.04 2599.89 3727.16 2575.68" style="fill:none;stroke:#42afa9;stroke-miterlimit:10;stroke-width:5px"/><polyline points="3333.65 2701.8 3280.26 2656.48 3599.38 2869.24 3528.98 3053.02 3616.17 2987.85 3607.92 2873.92 3645.27 2887.96 3629.8 3006.01 3678.23 2894.94 3710.01 2827.93 3666.62 2846.17 3553.7 3174.1 3617.69 3065.04 3614.66 3015.18 3461.8 2901.67 3434.55 2785.55 3339.2 2915.29 3402.77 3115.83 3440.36 3121.04 3460.28 2915.29 3348.28 2915.29 3470.88 2915.29 3517.8 3115.83 3483.58 3192.18 3594.92 3015.18 3517.8 3203.86 3483.58 3201.34 3440.36 3128.61 3522.34 3063.53 3528.98 3101.36" style="fill:none;stroke:#42afa9;stroke-miterlimit:10;stroke-width:5px"/><polyline points="3402.77 3127.09 3375.53 3271.97 3419.42 3266.55 3440.36 3128.61 3495.14 3233.63 3364.93 3279.96 3358.88 3377.92 3413.45 3279.96 3469.36 3307.54 3483.58 3184.61 3548.12 3209.85 3489.01 3282.69 3387.63 3402.55 3302.88 3479.74 3148 3591.74 3111.67 3609.9 3065.26 3640.17 3047.1 3619.99 3085.44 3611.92 3154.05 3527.16 3186.67 3515.65 3256.97 3490.84 3337.69 3408.1 3374.01 3395.07 3394.19 3353.62 3311.45 3395.07 3186.34 3440.39 2960.32 3541.29 2990.59 3589.72 3125.8 3543.31 3194.41 3474.7 3280.26 3420.29 3254.22 3468.64 3127.82 3509 3075.35 3539.27 2960.32 3523.13 3192.39 3307.54 3339.71 3367.74 3188.36 3216.47 3361.91 3261.12 3212.57 3307.54" style="fill:none;stroke:#42afa9;stroke-miterlimit:10;stroke-width:5px"/><polyline points="3178.27 3216.47 3178.27 3541.29 3217.76 3541.29 3141.94 3575.6 2877.58 3712.82 2990.59 3589.72 3065.26 3640.17 3006.74 3664.39 2903.82 3628.06 2831.17 3670.44 2859.42 3712.82 2742.38 3741.07 2637.44 3755.2 2833.19 3640.17 2960.32 3541.29" style="fill:none;stroke:#42afa9;stroke-miterlimit:10;stroke-width:5px"/><polygon points="2651.57 3383.63 2819.06 3640.17 2764.58 3718.87 2615.24 3668.42 2764.58 3587.7 2729.89 3700.88 2566.81 3597.79 2503.48 3513.04 2752.47 3551.25 2455.82 3670.44 2482.05 3595.78 2482.05 3515.06 2651.57 3383.63" style="fill:none;stroke:#42afa9;stroke-miterlimit:10;stroke-width:5px"/><polyline points="2637.44 3755.2 2553.69 3767.31 2432.61 3767.31 2432.61 3740.06 2455.82 3670.44 2599.1 3755.2 2615.24 3668.42 2384.18 3668.42 2482.05 3595.78 2482.05 3515.06 2275.21 3515.06 2637.44 3397.06" style="fill:none;stroke:#42afa9;stroke-miterlimit:10;stroke-width:5px"/><path d="M2039.1,3377.92,2287.32,3401h0l-124.11,57.51Z" transform="translate(0 0)" style="fill:none;stroke:#42afa9;stroke-miterlimit:10;stroke-width:5px"/><polygon points="2102.67 3485.84 1957.37 3551.25 2039.1 3377.92 2102.67 3485.84" style="fill:none;stroke:#42afa9;stroke-miterlimit:10;stroke-width:5px"/><polyline points="2163.21 3582.18 2102.67 3485.84 2163.21 3597.79 2250.99 3625.04 2275.21 3515.06 2163.21 3458.55 2117.8 3485.84" style="fill:none;stroke:#42afa9;stroke-miterlimit:10;stroke-width:5px"/><polygon points="2432.61 3767.31 2226.78 3730.98 2356.94 3691.63 2432.61 3767.31" style="fill:none;stroke:#42afa9;stroke-miterlimit:10;stroke-width:5px"/><polygon points="2384.18 3668.42 2250.99 3625.04 2356.94 3691.63 2384.18 3668.42" style="fill:none;stroke:#42afa9;stroke-miterlimit:10;stroke-width:5px"/><line x1="2432.61" y1="3767.31" x2="2384.18" y2="3668.42" style="fill:none;stroke:#42afa9;stroke-miterlimit:10;stroke-width:5px"/><polyline points="2217.7 3700.71 2137.01 3697.25 2138.99 3668.42 2039.1 3625.04 1993.7 3640.17 2060.29 3668.42 2226.78 3730.98 2235.87 3691.63 2317.59 3755.2 2603.89 3729.47 2455.82 3743.09" style="fill:none;stroke:#42afa9;stroke-miterlimit:10;stroke-width:5px"/><path d="M2080.47,3668.42l-110.39-101.66,23.62,73.41L1920,3592.75l-129.15-78.7,154.38,37.2L2063.32,3625s39.35,24.27,125.62-42.86l86.27-67.12-45.41,203.81-40.86-113.09-231.57-41.28L1915,3446.44l124.1-68.52" transform="translate(0 0)" style="fill:none;stroke:#42afa9;stroke-miterlimit:10;stroke-width:5px"/><polyline points="1708.15 3404.07 1945.27 3551.25 1781.81 3512.03 1851.43 3428.28 1702.1 3404.07 1649.63 3404.07 1715.21 3464.59 1772.73 3506.98" style="fill:none;stroke:#42afa9;stroke-miterlimit:10;stroke-width:5px"/><polygon points="1667.79 3482.77 1715.21 3582.18 1760.62 3532.47 1667.79 3482.77" style="fill:none;stroke:#42afa9;stroke-miterlimit:10;stroke-width:5px"/><polygon points="1681.92 3203.33 1681.92 3321.33 1593.12 3246.66 1681.92 3190.16 1558.65 3017.17 1490.21 3038.81 1681.92 3203.33" style="fill:none;stroke:#42afa9;stroke-miterlimit:10;stroke-width:5px"/><polygon points="1477.09 3158.88 1482.13 3034.77 1593.12 3246.66 1477.09 3158.88" style="fill:none;stroke:#42afa9;stroke-miterlimit:10;stroke-width:5px"/><polygon points="1429.67 3055.01 1477.09 3158.88 1482.13 3034.77 1445.3 3008.54 1429.67 3055.01" style="fill:none;stroke:#42afa9;stroke-miterlimit:10;stroke-width:5px"/><polyline points="1423.61 2988.36 1429.67 3055.01 1445.3 3008.54 1387.29 2951.02 1421.59 3048.9 1482.13 3040.82" style="fill:none;stroke:#42afa9;stroke-miterlimit:10;stroke-width:5px"/><polyline points="1470.03 2911.67 1387.29 2823.64 1495.72 2806.53 1392.83 2704.88" style="fill:none;stroke:#42afa9;stroke-miterlimit:10;stroke-width:5px"/><polyline points="1553.77 3008.54 1495.72 2812.79 1451.86 3003.01 1412.13 2975.65 1490.21 2801.08" style="fill:none;stroke:#42afa9;stroke-miterlimit:10;stroke-width:5px"/><polyline points="1363.07 2900.14 1385.27 2959.1 1387.29 2823.64 1416.55 2951.02" style="fill:none;stroke:#42afa9;stroke-miterlimit:10;stroke-width:5px"/><polyline points="1077.53 2677.58 1132.51 2718.42 1146.14 2642.51 1257.13 2627.19 1311.24 2692.69 1279.35 2697.96 1237.45 2704.88 1249.06 2769.4 1194.38 2757.17 1311.24 2823.64 1319.68 2754.32 1279.83 2799.39" style="fill:none;stroke:#f3587d;stroke-miterlimit:10;stroke-width:5px"/><path d="M1215.76,2120.62" transform="translate(0 0)" style="fill:none;stroke:#6a43b3;stroke-miterlimit:10;stroke-width:3px;fill-rule:evenodd"/><path d="M2637.93,2140.2a113.67,113.67,0,0,1,0,131.8l28.72,21.87a149.82,149.82,0,0,0-2.16-178.29L2648,2130.43Z" transform="translate(0 0)" style="fill:none;stroke:#6a43b3;stroke-miterlimit:10;stroke-width:5px;fill-rule:evenodd"/><path d="M2690.06,2311.63l-96.61-73.48a55.83,55.83,0,0,0,2.75-63.83l46.24-41.77,48.41-45.31A7.86,7.86,0,0,0,2691,2076l-6.69-6.69a191,191,0,0,0-129.66-56.74l.19-26.6a16.17,16.17,0,0,0-.39-5.31,13.73,13.73,0,0,0-2.56-4.73,11.64,11.64,0,0,0-4.33-3.15,11.59,11.59,0,0,0-10.23,0,13.51,13.51,0,0,0-4.33,3.15,11.59,11.59,0,0,0-2.55,4.53,9.88,9.88,0,0,0-.4,5.32l-.19,27.38a186.54,186.54,0,0,0-34.44,6.7l.2-34.08a16.21,16.21,0,0,0-.39-5.32,13.82,13.82,0,0,0-2.56-4.73,11.75,11.75,0,0,0-4.33-3.15,11.68,11.68,0,0,0-10.23,0,13.55,13.55,0,0,0-4.33,3.15,11.69,11.69,0,0,0-2.56,4.53,9.79,9.79,0,0,0-.39,5.32l-.59,43.54a192.08,192.08,0,0,0,74.37,367.41l140.69.59a7.9,7.9,0,0,0,7.87-7.88v-71.12A8.3,8.3,0,0,0,2690.06,2311.63Zm-142.65,50.63a157.79,157.79,0,0,1-77.72-294.52l-.2,51.81a16.21,16.21,0,0,0,.39,5.32,13.82,13.82,0,0,0,2.56,4.73,11.75,11.75,0,0,0,4.33,3.15,11.68,11.68,0,0,0,10.23,0,13.55,13.55,0,0,0,4.33-3.15,11.82,11.82,0,0,0,2.56-4.53,9.79,9.79,0,0,0,.39-5.32l.2-63.63a157.67,157.67,0,0,1,54.11-9.26,155.55,155.55,0,0,1,94,31.72,4,4,0,0,1,.39,6.1l-73.59,67.57a56.27,56.27,0,0,0-21.25-4.33,57.86,57.86,0,0,0-23.61,4.92,55.72,55.72,0,0,0-19.28,14.39,58.24,58.24,0,0,0-11.61,21.08,55.24,55.24,0,0,0-1.77,24,56.26,56.26,0,0,0,47.81,48.26,54.8,54.8,0,0,0,24-1.77l94.05,71.51a4.12,4.12,0,0,1,1.57,3.15l-.19,25.22a4,4,0,0,1-3.94,3.94Zm23-157.6a23.53,23.53,0,0,1-3.74,12.41,22.84,22.84,0,0,1-10,8.27,20.53,20.53,0,0,1-12.79,1.18,23.92,23.92,0,0,1-11.42-6.1,21.95,21.95,0,0,1-4.72-24.24,22.91,22.91,0,0,1,8.26-10,23.38,23.38,0,0,1,12.4-3.74,22.17,22.17,0,0,1,22,22.26Z" transform="translate(0 0)" style="fill:none;stroke:#6a43b3;stroke-miterlimit:10;stroke-width:5px;fill-rule:evenodd"/><path d="M2239.89,2140.8c3.63,33.78,19.94,145.68,114,234.08,72.35,68,151.65,85.38,168.51,88.8,115.93,23.46,207.47-21.9,234.08-36.33-9.28,26.91-23.71,67.07-43.21,115.09-39.81,98.06-74,163-85.94,187.61-27.7,57.21-54.22,142.92-55.44,273-.26,28,.65,58,3,90.26H2445.73c11.75-143.2-6-253.24-24.22-326.91-33.94-137.41-81.05-186.63-135.59-385.36A1559.37,1559.37,0,0,1,2239.89,2140.8Z" transform="translate(0 0)" style="fill:none;stroke:#6a43b3;stroke-miterlimit:10;stroke-width:5px;fill-rule:evenodd"/><path d="M2306.87,2362.15c7.8,27.13,17.1,58.27,28,92.65,10.77,33.95,18.85,57.67,31.14,93.63,25.17,73.67,37.81,110.49,40.49,109.77,3.92-1.06-13.28-63.07-25.35-162.24-3.64-29.81-5.79-54.6-7.07-71.64-7.35-5.37-14.91-11.28-22.57-17.77A398.69,398.69,0,0,1,2306.87,2362.15Z" transform="translate(0 0)" style="fill:none;stroke:#6a43b3;stroke-miterlimit:10;stroke-width:5px;fill-rule:evenodd"/><rect x="2421.52" y="3093.29" width="174.56" height="47.42" rx="16.73" style="fill:none;stroke:#6a43b3;stroke-miterlimit:10;stroke-width:5px"/><rect x="2399.32" y="3140.72" width="216.94" height="47.42" rx="16.73" style="fill:none;stroke:#6a43b3;stroke-miterlimit:10;stroke-width:5px"/><polygon points="2518.65 3034.77 2579.42 3093.29 2570.43 3017.17 2503.48 3093.29 2548.2 2958.42 2570.43 2891.37 2437.76 2847.24 2503.48 2930.17 2471.97 2748.13 2596.07 2769.4 2518.65 2853.15 2448.63 2959.1 2477.01 3093.29 2518.65 3034.77" style="fill:none;stroke:#6a43b3;stroke-miterlimit:10;stroke-width:5px;fill-rule:evenodd"/><line x1="2507.78" y1="2935.89" x2="2445.73" y2="3093.29" style="fill:none;stroke:#6a43b3;stroke-miterlimit:10;stroke-width:5px"/><polygon points="2471.97 2748.13 2676.88 2627.19 2374.09 2424.32 2456.33 2606.69 2406.51 2658.2 2471.97 2748.13" style="fill:none;stroke:#6a43b3;stroke-miterlimit:10;stroke-width:5px;fill-rule:evenodd"/><polygon points="2516.91 2575.68 2713.29 2542.44 2503.48 2684.73 2516.91 2575.68" style="fill:none;stroke:#6a43b3;stroke-miterlimit:10;stroke-width:5px;fill-rule:evenodd"/><polygon points="2616.25 2704.88 2525.97 2750.12 2570.43 2891.37 2605.59 2783.11 2616.25 2704.88" style="fill:none;stroke:#6a43b3;stroke-miterlimit:10;stroke-width:5px;fill-rule:evenodd"/><path d="M2676.88,2627.19" transform="translate(0 0)" style="fill:none;stroke:#6a43b3;stroke-miterlimit:10;stroke-width:5px;fill-rule:evenodd"/><polygon points="2602.06 2470.01 2576.24 2559.76 2652.07 2510.18 2602.06 2470.01" style="fill:none;stroke:#6a43b3;stroke-miterlimit:10;stroke-width:5px;fill-rule:evenodd"/><polygon points="2693.31 2542.44 2652.07 2510.18 2694.99 2453.45 2693.31 2542.44" style="fill:none;stroke:#6a43b3;stroke-miterlimit:10;stroke-width:5px;fill-rule:evenodd"/><polygon points="2730.83 2497.95 2693.31 2542.44 2725.52 2442.2 2730.83 2497.95" style="fill:none;stroke:#6a43b3;stroke-miterlimit:10;stroke-width:5px;fill-rule:evenodd"/><polygon points="2261.99 2280.97 2278.24 2293.87 2278.24 2272.47 2261.99 2280.97" style="fill:none;stroke:#6a43b3;stroke-miterlimit:10;stroke-width:5px;fill-rule:evenodd"/><polygon points="2278.24 2320.4 2278.24 2283.17 2296.4 2320.4 2285.92 2381.02 2270.11 2312.83 2278.24 2320.4" style="fill:none;stroke:#6a43b3;stroke-miterlimit:10;stroke-width:5px;fill-rule:evenodd"/><polygon points="2296.4 2381.02 2313.05 2354.66 2278.24 2320.4 2296.4 2381.02" style="fill:none;stroke:#6a43b3;stroke-miterlimit:10;stroke-width:5px;fill-rule:evenodd"/><polyline points="2298.37 2424.32 2298.37 2397.13 2283.26 2369.52 2325.16 2453.45 2320.53 2492.32 2350.89 2528.65 2374.09 2572.04 2437.76 2775.96 2471.97 2748.13 2437.76 2847.24 2437.76 2798.13 2413.77 2737.24 2364.51 2571.64 2348.54 2565.65 2349.37 2542.44 2344.76 2485.41" style="fill:none;stroke:#6a43b3;stroke-miterlimit:10;stroke-width:5px;fill-rule:evenodd"/><polygon points="2429.59 2453.45 2407.08 2416.12 2374.09 2424.32 2429.59 2453.45" style="fill:none;stroke:#6a43b3;stroke-miterlimit:10;stroke-width:5px;fill-rule:evenodd"/><polygon points="2476.76 2453.45 2490.13 2492.32 2525.97 2482.34 2476.76 2453.45" style="fill:none;stroke:#6a43b3;stroke-miterlimit:10;stroke-width:5px;fill-rule:evenodd"/><polygon points="2564.29 2510.18 2525.97 2482.34 2523.19 2524.22 2564.29 2510.18" style="fill:none;stroke:#6a43b3;stroke-miterlimit:10;stroke-width:5px;fill-rule:evenodd"/><polyline points="2548.2 2467.85 2564.29 2510.18 2576.24 2559.76 2456.33 2606.69" style="fill:none;stroke:#6a43b3;stroke-miterlimit:10;stroke-width:5px;fill-rule:evenodd"/></g><g id="LEFT_HAND-2" data-name="LEFT HAND"><polygon points="18.52 2835.05 130.22 2799.39 99.28 2851.86 18.52 2835.05" style="fill:none;stroke:#f3587d;stroke-miterlimit:10;stroke-width:5px"/><polygon points="120.13 2942 161.84 2894.91 99.28 2851.86 120.13 2942" style="fill:none;stroke:#f3587d;stroke-miterlimit:10;stroke-width:5px"/><polygon points="99.28 3055.01 120.13 2942 190.09 2947.38 99.28 3055.01" style="fill:none;stroke:#f3587d;stroke-miterlimit:10;stroke-width:5px"/><polygon points="130.22 3110.84 128.32 3107.41 99.28 3055.01 205.56 3079.9 130.22 3110.84" style="fill:none;stroke:#f3587d;stroke-miterlimit:10;stroke-width:5px"/><polygon points="18.52 3342.57 58.92 3288.09 176.97 3205.35 276.86 3205.35 116.43 3273.96 18.52 3342.57" style="fill:none;stroke:#f3587d;stroke-miterlimit:10;stroke-width:5px"/><polyline points="286.95 3088.3 176.97 3205.35 255.67 3168.01 286.95 3094.36 345.48 3127.66 421.15 3171.04 439.31 3088.3 352.54 3124.63 263.75 3167.01 345.48 3214.43 415.1 3175.08 486.74 3235.62 344.47 3205.35 276.86 3198.28 276.86 3168.01 404 3170.03 482.7 3135.73 440.32 3082.92" style="fill:none;stroke:#f3587d;stroke-miterlimit:10;stroke-width:5px"/><polygon points="240.54 3055.01 246.59 3159.27 283.93 3082.92 240.54 3055.01" style="fill:none;stroke:#f3587d;stroke-miterlimit:10;stroke-width:5px"/><polygon points="395.93 3049.96 245.94 3058.48 391.89 2962.18 395.93 3049.96" style="fill:none;stroke:#f3587d;stroke-miterlimit:10;stroke-width:5px"/><polygon points="371.71 2896.93 391.89 2962.18 283.93 2919.8 371.71 2896.93" style="fill:none;stroke:#f3587d;stroke-miterlimit:10;stroke-width:5px"/><polygon points="325.97 2812.17 283.93 2919.8 266.77 2876.08 325.97 2812.17" style="fill:none;stroke:#f3587d;stroke-miterlimit:10;stroke-width:5px"/><polygon points="240.54 2825.63 262.23 2880.79 190.09 2947.38 161.84 2894.91 257.36 2880.11 240.54 2825.63" style="fill:none;stroke:#f3587d;stroke-miterlimit:10;stroke-width:5px"/><polygon points="190.09 2802.08 240.54 2825.63 320.93 2700.85 228.97 2748.37 130.22 2799.39 190.09 2802.08" style="fill:none;stroke:#f3587d;stroke-miterlimit:10;stroke-width:5px"/><polyline points="231.12 2750.96 190.09 2802.08 234.99 2751.47 372.72 2747.26 320.93 2700.85 454.45 2724.05 454.45 2781.9 376.42 2746.93 447.05 2728.09 457.14 2869.35 514.99 2869.35 486.74 2830.34 458.48 2779.89 514.99 2799.39 453.77 2869.35" style="fill:none;stroke:#f3587d;stroke-miterlimit:10;stroke-width:5px"/><polygon points="615.89 2869.35 514.99 2869.35 514.99 2799.39 615.89 2869.35" style="fill:none;stroke:#f3587d;stroke-miterlimit:10;stroke-width:5px"/><polygon points="528.1 2700.85 514.99 2799.39 593.18 2750.12 593.18 2666.04 528.1 2700.85" style="fill:none;stroke:#f3587d;stroke-miterlimit:10;stroke-width:5px"/><path d="M644.64,2716l-51.46,34.14Z" transform="translate(0 0)" style="fill:none;stroke:#f3587d;stroke-miterlimit:10;stroke-width:5px"/><polyline points="475.13 2635.77 486.74 2600.96 395.93 2659.98 472.11 2644.85 554.09 2631.23 644.64 2715.98 593.18 2666.04 618.91 2577.36 560.39 2626.18 492.79 2609.03 520.28 2589.35 618.91 2577.36 638.76 2509.47 514.99 2589.35" style="fill:none;stroke:#f3587d;stroke-miterlimit:10;stroke-width:5px"/><polygon points="593.18 3055.01 514.99 3138.25 615.89 3168.52 514.99 3129.17 526.59 3205.35 593.18 3055.01" style="fill:none;stroke:#f3587d;stroke-miterlimit:10;stroke-width:5px"/><polygon points="732.43 2998.5 730.45 3005.6 702.16 3107.14 702.16 3176.09 818.7 3176.09 712.75 3110.84 779.35 3087.3 732.43 2998.5" style="fill:none;stroke:#f3587d;stroke-miterlimit:10;stroke-width:5px"/><polygon points="74.37 3342.57 60.94 3426.32 130.56 3373.85 74.37 3342.57" style="fill:none;stroke:#f3587d;stroke-miterlimit:10;stroke-width:5px"/><polygon points="99.28 3176.09 60.94 3196.27 26.63 3176.09 99.28 3176.09" style="fill:none;stroke:#f3587d;stroke-miterlimit:10;stroke-width:5px"/><polygon points="60.94 2998.5 26.63 3010.33 26.63 2980.34 60.94 2998.5" style="fill:none;stroke:#f3587d;stroke-miterlimit:10;stroke-width:5px"/><polygon points="99.28 2685.71 99.28 2724.05 60.94 2700.85 99.28 2685.71" style="fill:none;stroke:#f3587d;stroke-miterlimit:10;stroke-width:5px"/><polygon points="337.91 3285.06 371.71 3307.26 395.93 3285.06 337.91 3285.06" style="fill:none;stroke:#f3587d;stroke-miterlimit:10;stroke-width:5px"/><polygon points="514.99 3307.26 634.05 3307.26 554.09 3273.96 514.99 3307.26" style="fill:none;stroke:#f3587d;stroke-miterlimit:10;stroke-width:5px"/><polyline points="496.82 3235.62 565.44 3235.62 644.64 3273.96 818.7 3290.61 738.99 3235.62 634.05 3263.11" style="fill:none;stroke:#f3587d;stroke-miterlimit:10;stroke-width:5px"/><polygon points="818.7 3176.09 738.99 3235.62 825.76 3235.62 818.7 3176.09" style="fill:none;stroke:#f3587d;stroke-miterlimit:10;stroke-width:5px"/><polyline points="812.64 3363.76 885.29 3371.83 847.96 3422.28 805.58 3365.78 876.77 3408.16 876.77 3337.53 818.7 3337.53 805.58 3370.82" style="fill:none;stroke:#f3587d;stroke-miterlimit:10;stroke-width:5px"/><polyline points="615.89 3168.52 547.78 3058.48 597.73 3048.95 514.99 3129.17 541.73 3065.6" style="fill:none;stroke:#f3587d;stroke-miterlimit:10;stroke-width:5px"/><polygon points="825.76 3235.62 944.32 3205.85 944.32 3263.11 825.76 3235.62" style="fill:none;stroke:#f3587d;stroke-miterlimit:10;stroke-width:5px"/><polygon points="818.7 3290.61 959.45 3321.38 885.29 3273.96 818.7 3290.61" style="fill:none;stroke:#f3587d;stroke-miterlimit:10;stroke-width:5px"/><line x1="944.32" y1="3263.11" x2="885.29" y2="3273.96" style="fill:none;stroke:#f3587d;stroke-miterlimit:10;stroke-width:5px"/><polygon points="989.72 3297.67 1035.13 3321.38 959.45 3321.38 894.84 3307.26 989.72 3297.67" style="fill:none;stroke:#f3587d;stroke-miterlimit:10;stroke-width:5px"/><polyline points="615.89 2869.35 640.1 2896.93 691.56 2865.99 520.28 2799.39" style="fill:none;stroke:#f3587d;stroke-miterlimit:10;stroke-width:5px"/><polygon points="777.33 2848.16 691.56 2865.99 777.33 2903.66 777.33 2848.16" style="fill:none;stroke:#f3587d;stroke-miterlimit:10;stroke-width:5px"/><polygon points="856.03 2792.67 777.33 2848.16 920.61 2820.41 856.03 2792.67" style="fill:none;stroke:#f3587d;stroke-miterlimit:10;stroke-width:5px"/><polygon points="760.43 2750.12 856.03 2792.67 795.49 2715.98 760.43 2750.12" style="fill:none;stroke:#f3587d;stroke-miterlimit:10;stroke-width:5px"/><polygon points="760.43 2686.72 795.49 2715.98 760.43 2750.12 760.43 2686.72" style="fill:none;stroke:#f3587d;stroke-miterlimit:10;stroke-width:5px"/><polygon points="720.82 2666.04 760.43 2686.72 720.82 2621.14 720.82 2666.04" style="fill:none;stroke:#f3587d;stroke-miterlimit:10;stroke-width:5px"/><polygon points="618.91 2577.36 720.82 2621.14 702.16 2557.57 618.91 2577.36" style="fill:none;stroke:#f3587d;stroke-miterlimit:10;stroke-width:5px"/><polygon points="777.96 2422.36 687.53 2475.07 681.42 2479.38 699.63 2552.52 777.96 2487.44 674.41 2491.98 638.76 2509.47 691.56 2552.52 817.69 2552.52 777.96 2495.01 777.96 2422.36" style="fill:none;stroke:#f3587d;stroke-miterlimit:10;stroke-width:5px"/><polygon points="878.23 2397.14 777.96 2422.36 777.33 2482.9 878.23 2397.14" style="fill:none;stroke:#f3587d;stroke-miterlimit:10;stroke-width:5px"/><polygon points="916.57 2422.36 878.23 2397.14 963.99 2390.07 916.57 2422.36" style="fill:none;stroke:#f3587d;stroke-miterlimit:10;stroke-width:5px"/><polygon points="817.69 2552.52 954.91 2440.02 929.69 2496.27 817.69 2552.52" style="fill:none;stroke:#f3587d;stroke-miterlimit:10;stroke-width:5px"/><polygon points="795.49 2627.19 835.85 2598.94 808.23 2552.52 795.49 2627.19" style="fill:none;stroke:#f3587d;stroke-miterlimit:10;stroke-width:5px"/><polygon points="817.69 2658.47 795.49 2627.19 760.43 2686.72 817.69 2658.47" style="fill:none;stroke:#f3587d;stroke-miterlimit:10;stroke-width:5px"/><polyline points="848.97 2732.72 817.69 2658.47 795.49 2715.98 870.16 2785.1 974.08 2732.72 912.53 2700.85 986.19 2666.04 1002.34 2721.78 963.99 2815.87 920.61 2820.41 972.07 2739.44 978.12 2700.85 994.26 2727.08" style="fill:none;stroke:#f3587d;stroke-miterlimit:10;stroke-width:5px"/><polygon points="954.91 2896.93 920.61 2820.41 963.99 2815.87 954.91 2896.93" style="fill:none;stroke:#f3587d;stroke-miterlimit:10;stroke-width:5px"/><path d="M886.3,2937l34.31-116.54Z" transform="translate(0 0)" style="fill:none;stroke:#f3587d;stroke-miterlimit:10;stroke-width:5px"/><polyline points="954.91 2896.93 886.3 2936.95 777.33 2848.16 818.7 2962.18 878.23 2973.28 963.99 3017.17 954.91 2968.74 898.91 2947.38 870.66 2962.18 864.1 3055.01 818.7 2970.25" style="fill:none;stroke:#f3587d;stroke-miterlimit:10;stroke-width:5px"/><polygon points="979.13 3159.27 864.1 3055.01 963.99 3017.17 1009.4 3017.17 964.99 3041.39 964.99 3097.39 979.46 3099.04 1050.26 3107.14 1133.51 3176.09 1092.64 3218.47 1012.42 3186.18 944.32 3205.85 979.13 3159.27" style="fill:none;stroke:#f3587d;stroke-miterlimit:10;stroke-width:5px"/><polyline points="977.61 3145.82 979.46 3099.04 876.77 3066.49 1016.97 3055.01 1035.13 3105.41 1168.32 3117.82 1133.51 3176.09 988.21 3107.14 1145.61 3273.96 1098.69 3297.67 1091.13 3234.48 1198.59 3244.2 1142.59 3186.18 1251.56 3176.09 1175.88 3130.18 1309.07 3159.27 1309.07 3205.35 1286.37 3235.62 1175.88 3196.27 1209.18 3159.27 1236.42 3130.18 1275.78 3321.38 1280.32 3256.3 1213.72 3263.11 1240.96 3342.57 1151.67 3397.06 1218.26 3397.06 1133.51 3333.49 1035.13 3309.53 1212.21 3290.61 1262.15 3307.26 1234.91 3357.71 1349.94 3371.83 1375.67 3321.38 1440.75 3384.45 1269.72 3371.83 1435.2 3352.66 1440.75 3379.91 1546.19 3397.06 1511.88 3309.53 1450.33 3309.53 1486.66 3264.88 1414.01 3231.58 1271.74 3243.69 1379.7 3174.07 1317.14 3160.95 1384.75 3178.11 1451.34 3321.38 1446.3 3203.33 1385.76 3173.06" style="fill:none;stroke:#f3587d;stroke-miterlimit:10;stroke-width:5px"/><polyline points="1586.55 3366.79 1546.19 3397.06 1511.88 3309.53 1581.5 3360.74 1577.47 3309.53 1511.88 3248.74 1446.3 3203.33 1486.66 3264.88 1516.42 3257.82 1506.84 3305.24 1487.66 3273.96" style="fill:none;stroke:#f3587d;stroke-miterlimit:10;stroke-width:5px"/><polyline points="1002.34 2704.88 1057.83 2666.04 986.19 2666.04 1057.83 2557.57 808.23 2552.52 1002.34 2482.9 1035.13 2627.19 1109.29 2640.31 1002.34 2653.93 1067.92 2663.51 1280.82 2563.62 1238.44 2536.38 1101.22 2563.62 1052.79 2621.14 1088.1 2621.14 1196.06 2482.9 1176.89 2535.37 1280.82 2422.36 1158.73 2295.57 1074.65 2393.1 1147.3 2513.51 1168.82 2539.07 1092.81 2475.07 1001.33 2471.8 1069.27 2400.5 1096.17 2471.13 1090.12 2344 1003.34 2397.14 954.91 2440.02 963.99 2390.07 1063.21 2399.16 957.6 2446.91 1001.33 2477.86" style="fill:none;stroke:#f3587d;stroke-miterlimit:10;stroke-width:5px"/><polyline points="1196.06 2482.9 1240.12 2475.07 1321.18 2349.72 1393.83 2349.72 1301.34 2409.25 1213.22 2422.36 1259.63 2325.84 1174.2 2325.84 1224.65 2247.13 1090.12 2344" style="fill:none;stroke:#f3587d;stroke-miterlimit:10;stroke-width:5px"/><polygon points="1295.45 2564.63 1298.74 2539.65 1310.59 2449.61 1238.44 2536.38 1330.26 2509.47 1310.59 2406.22 1365.07 2397.14 1336.32 2500.22 1351.45 2552.52 1306.05 2540.42 1384.75 2466.26 1451.34 2475.07 1393.83 2500.22 1357.5 2544.96 1471.02 2500.22 1360.53 2500.22 1295.45 2564.63" style="fill:none;stroke:#f3587d;stroke-miterlimit:10;stroke-width:5px"/><polyline points="1238.44 2225.61 1251.82 2215.74 1618.84 1945.11 1651.12 1930.98 1689.46 1916.85 1709.64 1928.96 1719.73 1943.09 1719.73 1971.34 1719.73 2009.68 1693.5 2048.02 1626.91 2126.72 1393.83 2349.72 1368.6 2310.36 1425.11 2247.13 1426.65 2318.31 1326.22 2295.57 1280.82 2276.06 1291.92 2233.68 1241.97 2261.93 1269.72 2295.57 1346.4 2205.43 1321.18 2349.72" style="fill:none;stroke:#f3587d;stroke-miterlimit:10;stroke-width:5px"/><polyline points="1295.95 2205.43 1354.73 2215.52 1340.35 2159.01 1393.83 2118.65 1453.36 2118.65 1393.83 2181.21 1314.52 2169.51 1393.83 2144.89 1453.36 2076.28 1471.02 2102.51 1514.58 2021.99 1594.62 2090.4 1584.42 1970.48 1649.11 1981.43 1651.12 1930.98 1523.99 2133.28 1572.42 2148.92 1564.35 2098.47 1636.7 2115.15 1651.12 2021.79 1719.73 1997.57 1691.48 1959.23 1641.03 2017.75 1689.46 1916.85" style="fill:none;stroke:#f3587d;stroke-miterlimit:10;stroke-width:5px"/><polygon points="1544.17 2156.99 1488.64 2259.01 1568.08 2183 1544.17 2156.99" style="fill:none;stroke:#f3587d;stroke-miterlimit:10;stroke-width:5px"/><polygon points="1471.02 2233.68 1441.22 2304.37 1441.22 2247.13 1471.02 2233.68" style="fill:none;stroke:#f3587d;stroke-miterlimit:10;stroke-width:5px"/><line x1="1488.64" y1="2215.52" x2="1544.17" y2="2157" style="fill:none;stroke:#f3587d;stroke-miterlimit:10;stroke-width:5px"/><polyline points="1741.93 2338.62 1719.73 2342.65 1714.21 2362.16 1751.93 2309.23" style="fill:none;stroke:#f3587d;stroke-miterlimit:10;stroke-width:5px"/><polyline points="1405.08 2526.21 1441.22 2479.49 1617.41 2424.91 1516.4 2480.89 1643.05 2397.14 1714.21 2362.16 1682.4 2365.02" style="fill:none;stroke:#f3587d;stroke-miterlimit:10;stroke-width:5px"/><path d="M1739.92,2282.11,1653.14,2269q9.09,40.33,18.16,80.68l78.71-116q10.08,30.95,20.18,61.89l-30.27-13.46,30.27,13.46c1.25-2.09,17.69-30.41,4-54.83a44.81,44.81,0,0,0-14.12-15.13,35.92,35.92,0,0,0-40.36-10.09l-58.53,18.16L1594.62,2259,1431,2314.19l97.4,2.23,25.9-36.33L1544.17,2365h-88.05l-14.9,75-47.39-33.8,162.45-41.2s48.43,18,66.59,25.05-12.11-53.47-12.11-53.47l-42.68,85.76h-70.32l-46.42,52.71,65.06-24.57,27.77-10.48,133.19-75,92.83-69.45c-14.84,5.36-18.06,10.21-18.26,13.66-.23,3.92,3.45,6.41,4.13,13.24a23,23,0,0,1-1.57,10.57l-58,41.9-95.86,60.54L1471,2500.22" transform="translate(0 0)" style="fill:none;stroke:#f3587d;stroke-miterlimit:10;stroke-width:5px"/><polygon points="615.89 2962.18 634.05 2980.34 657.76 2951.58 615.89 2962.18" style="fill:none;stroke:#f3587d;stroke-miterlimit:10;stroke-width:5px"/><polygon points="1133.51 2718.42 1184.96 2750.12 1225.32 2635.26 1170.84 2715.98 1133.51 2718.42" style="fill:none;stroke:#f3587d;stroke-miterlimit:10;stroke-width:5px"/><path d="M1090.12,2269" transform="translate(0 0)" style="fill:none;stroke:#f3587d;stroke-miterlimit:10;stroke-width:5px"/><polygon points="808.23 2335.69 760.43 2365.02 760.43 2309.23 795.49 2390.07 808.23 2335.69" style="fill:none;stroke:#f3587d;stroke-miterlimit:10;stroke-width:5px"/></g><g id="RIGHT_HAND-2" data-name="RIGHT HAND"><polygon points="4982.48 2833.05 4870.77 2797.4 4901.72 2849.87 4982.48 2833.05" style="fill:none;stroke:#f3587d;stroke-miterlimit:10;stroke-width:5px"/><polygon points="4880.86 2940.01 4839.16 2892.92 4901.72 2849.87 4880.86 2940.01" style="fill:none;stroke:#f3587d;stroke-miterlimit:10;stroke-width:5px"/><polygon points="4901.72 3053.02 4880.86 2940.01 4810.91 2945.39 4901.72 3053.02" style="fill:none;stroke:#f3587d;stroke-miterlimit:10;stroke-width:5px"/><polygon points="4870.77 3108.85 4872.67 3105.42 4901.72 3053.02 4795.44 3077.91 4870.77 3108.85" style="fill:none;stroke:#f3587d;stroke-miterlimit:10;stroke-width:5px"/><polygon points="4982.48 3340.58 4942.08 3286.1 4824.02 3203.36 4724.13 3203.36 4884.56 3271.97 4982.48 3340.58" style="fill:none;stroke:#f3587d;stroke-miterlimit:10;stroke-width:5px"/><polyline points="4714.04 3086.31 4824.02 3203.36 4745.32 3166.03 4714.04 3092.37 4655.52 3125.66 4579.85 3169.05 4561.68 3086.31 4648.46 3122.64 4737.25 3165.02 4655.52 3212.44 4585.9 3173.09 4514.26 3233.63 4656.53 3203.36 4724.13 3196.3 4724.13 3166.03 4597 3168.04 4518.3 3133.74 4560.67 3080.93" style="fill:none;stroke:#f3587d;stroke-miterlimit:10;stroke-width:5px"/><polygon points="4760.46 3053.02 4754.4 3157.28 4717.07 3080.93 4760.46 3053.02" style="fill:none;stroke:#f3587d;stroke-miterlimit:10;stroke-width:5px"/><polygon points="4605.07 3047.97 4755.05 3056.49 4609.11 2960.19 4605.07 3047.97" style="fill:none;stroke:#f3587d;stroke-miterlimit:10;stroke-width:5px"/><polygon points="4629.29 2894.94 4609.11 2960.19 4717.07 2917.81 4629.29 2894.94" style="fill:none;stroke:#f3587d;stroke-miterlimit:10;stroke-width:5px"/><polygon points="4675.03 2810.18 4717.07 2917.81 4734.22 2874.09 4675.03 2810.18" style="fill:none;stroke:#f3587d;stroke-miterlimit:10;stroke-width:5px"/><polygon points="4760.46 2823.64 4738.76 2878.8 4810.91 2945.39 4839.16 2892.92 4743.64 2878.12 4760.46 2823.64" style="fill:none;stroke:#f3587d;stroke-miterlimit:10;stroke-width:5px"/><polygon points="4810.91 2800.09 4760.46 2823.64 4680.06 2698.86 4772.03 2746.38 4870.77 2797.4 4810.91 2800.09" style="fill:none;stroke:#f3587d;stroke-miterlimit:10;stroke-width:5px"/><polyline points="4769.87 2748.97 4810.91 2800.09 4766.01 2749.48 4628.28 2745.27 4680.06 2698.86 4546.55 2722.07 4546.55 2779.91 4624.58 2744.93 4553.95 2726.1 4543.86 2867.36 4486.01 2867.36 4514.26 2828.35 4542.51 2777.9 4486.01 2797.4 4547.22 2867.36" style="fill:none;stroke:#f3587d;stroke-miterlimit:10;stroke-width:5px"/><polygon points="4385.11 2867.36 4486.01 2867.36 4486.01 2797.4 4385.11 2867.36" style="fill:none;stroke:#f3587d;stroke-miterlimit:10;stroke-width:5px"/><polygon points="4472.89 2698.86 4486.01 2797.4 4407.81 2748.13 4407.81 2664.05 4472.89 2698.86" style="fill:none;stroke:#f3587d;stroke-miterlimit:10;stroke-width:5px"/><path d="M4356.35,2714l51.46,34.14Z" transform="translate(0 0)" style="fill:none;stroke:#f3587d;stroke-miterlimit:10;stroke-width:5px"/><polyline points="4525.86 2633.78 4514.26 2598.97 4605.07 2657.99 4528.89 2642.86 4446.91 2629.24 4356.35 2713.99 4407.81 2664.05 4382.08 2575.37 4440.6 2624.19 4508.21 2607.04 4480.71 2587.36 4382.08 2575.37 4362.24 2507.48 4486.01 2587.36" style="fill:none;stroke:#f3587d;stroke-miterlimit:10;stroke-width:5px"/><polygon points="4407.81 3053.02 4486.01 3136.26 4385.11 3166.53 4486.01 3127.18 4474.4 3203.36 4407.81 3053.02" style="fill:none;stroke:#f3587d;stroke-miterlimit:10;stroke-width:5px"/><polygon points="4268.57 2996.51 4270.55 3003.61 4298.84 3105.15 4298.84 3174.1 4182.3 3174.1 4288.24 3108.85 4221.65 3085.3 4268.57 2996.51" style="fill:none;stroke:#f3587d;stroke-miterlimit:10;stroke-width:5px"/><polygon points="4926.63 3340.58 4940.06 3424.33 4870.44 3371.86 4926.63 3340.58" style="fill:none;stroke:#f3587d;stroke-miterlimit:10;stroke-width:5px"/><polygon points="4901.72 3174.1 4940.06 3194.28 4974.36 3174.1 4901.72 3174.1" style="fill:none;stroke:#f3587d;stroke-miterlimit:10;stroke-width:5px"/><polygon points="4940.06 2996.51 4974.36 3008.34 4974.36 2978.35 4940.06 2996.51" style="fill:none;stroke:#f3587d;stroke-miterlimit:10;stroke-width:5px"/><polygon points="4901.72 2683.72 4901.72 2722.07 4940.06 2698.86 4901.72 2683.72" style="fill:none;stroke:#f3587d;stroke-miterlimit:10;stroke-width:5px"/><polygon points="4663.09 3283.07 4629.29 3305.27 4605.07 3283.07 4663.09 3283.07" style="fill:none;stroke:#f3587d;stroke-miterlimit:10;stroke-width:5px"/><polygon points="4486.01 3305.27 4366.95 3305.27 4446.91 3271.97 4486.01 3305.27" style="fill:none;stroke:#f3587d;stroke-miterlimit:10;stroke-width:5px"/><polyline points="4504.17 3233.63 4435.56 3233.63 4356.35 3271.97 4182.3 3288.62 4262.01 3233.63 4366.95 3261.12" style="fill:none;stroke:#f3587d;stroke-miterlimit:10;stroke-width:5px"/><polygon points="4182.3 3174.1 4262.01 3233.63 4175.23 3233.63 4182.3 3174.1" style="fill:none;stroke:#f3587d;stroke-miterlimit:10;stroke-width:5px"/><polyline points="4188.35 3361.77 4115.7 3369.84 4153.04 3420.29 4195.41 3363.79 4124.22 3406.17 4124.22 3335.54 4182.3 3335.54 4195.41 3368.84" style="fill:none;stroke:#f3587d;stroke-miterlimit:10;stroke-width:5px"/><polyline points="4385.11 3166.53 4453.22 3056.49 4403.27 3046.96 4486.01 3127.18 4459.27 3063.61" style="fill:none;stroke:#f3587d;stroke-miterlimit:10;stroke-width:5px"/><polygon points="4175.23 3233.63 4056.68 3203.86 4056.68 3261.12 4175.23 3233.63" style="fill:none;stroke:#f3587d;stroke-miterlimit:10;stroke-width:5px"/><polygon points="4182.3 3288.62 4041.54 3319.39 4115.7 3271.97 4182.3 3288.62" style="fill:none;stroke:#f3587d;stroke-miterlimit:10;stroke-width:5px"/><line x1="4056.68" y1="3261.12" x2="4115.7" y2="3271.97" style="fill:none;stroke:#f3587d;stroke-miterlimit:10;stroke-width:5px"/><polygon points="4011.27 3295.68 3965.87 3319.39 4041.54 3319.39 4106.15 3305.27 4011.27 3295.68" style="fill:none;stroke:#f3587d;stroke-miterlimit:10;stroke-width:5px"/><polyline points="4385.11 2867.36 4360.89 2894.94 4309.43 2864 4480.71 2797.4" style="fill:none;stroke:#f3587d;stroke-miterlimit:10;stroke-width:5px"/><polygon points="4223.67 2846.17 4309.43 2864 4223.67 2901.67 4223.67 2846.17" style="fill:none;stroke:#f3587d;stroke-miterlimit:10;stroke-width:5px"/><polygon points="4144.97 2790.68 4223.67 2846.17 4080.39 2818.42 4144.97 2790.68" style="fill:none;stroke:#f3587d;stroke-miterlimit:10;stroke-width:5px"/><polygon points="4240.57 2748.13 4144.97 2790.68 4205.51 2713.99 4240.57 2748.13" style="fill:none;stroke:#f3587d;stroke-miterlimit:10;stroke-width:5px"/><polygon points="4240.57 2684.73 4205.51 2713.99 4240.57 2748.13 4240.57 2684.73" style="fill:none;stroke:#f3587d;stroke-miterlimit:10;stroke-width:5px"/><polygon points="4280.17 2664.05 4240.57 2684.73 4280.17 2619.15 4280.17 2664.05" style="fill:none;stroke:#f3587d;stroke-miterlimit:10;stroke-width:5px"/><polygon points="4382.08 2575.37 4280.17 2619.15 4298.84 2555.58 4382.08 2575.37" style="fill:none;stroke:#f3587d;stroke-miterlimit:10;stroke-width:5px"/><polygon points="4223.04 2420.37 4313.47 2473.08 4319.58 2477.39 4301.36 2550.53 4223.04 2485.45 4326.59 2489.99 4362.24 2507.48 4309.43 2550.53 4183.31 2550.53 4223.04 2493.02 4223.04 2420.37" style="fill:none;stroke:#f3587d;stroke-miterlimit:10;stroke-width:5px"/><polygon points="4122.77 2395.15 4223.04 2420.37 4223.67 2480.91 4122.77 2395.15" style="fill:none;stroke:#f3587d;stroke-miterlimit:10;stroke-width:5px"/><polygon points="4084.43 2420.37 4122.77 2395.15 4037 2388.09 4084.43 2420.37" style="fill:none;stroke:#f3587d;stroke-miterlimit:10;stroke-width:5px"/><polygon points="4183.31 2550.53 4046.08 2438.03 4071.31 2494.28 4183.31 2550.53" style="fill:none;stroke:#f3587d;stroke-miterlimit:10;stroke-width:5px"/><polygon points="4205.51 2625.2 4165.15 2596.95 4192.77 2550.53 4205.51 2625.2" style="fill:none;stroke:#f3587d;stroke-miterlimit:10;stroke-width:5px"/><polygon points="4183.31 2656.48 4205.51 2625.2 4240.57 2684.73 4183.31 2656.48" style="fill:none;stroke:#f3587d;stroke-miterlimit:10;stroke-width:5px"/><polyline points="4152.03 2730.72 4183.31 2656.48 4205.51 2713.99 4130.84 2783.11 4026.91 2730.72 4088.46 2698.86 4014.8 2664.05 3998.66 2719.79 4037 2813.88 4080.39 2818.42 4028.93 2737.45 4022.88 2698.86 4006.73 2725.09" style="fill:none;stroke:#f3587d;stroke-miterlimit:10;stroke-width:5px"/><polygon points="4046.08 2894.94 4080.39 2818.42 4037 2813.88 4046.08 2894.94" style="fill:none;stroke:#f3587d;stroke-miterlimit:10;stroke-width:5px"/><path d="M4114.7,2935l-34.31-116.54Z" transform="translate(0 0)" style="fill:none;stroke:#f3587d;stroke-miterlimit:10;stroke-width:5px"/><polyline points="4046.08 2894.94 4114.69 2934.96 4223.67 2846.17 4182.3 2960.19 4122.77 2971.29 4037 3015.18 4046.08 2966.75 4102.08 2945.39 4130.34 2960.19 4136.89 3053.02 4182.3 2968.26" style="fill:none;stroke:#f3587d;stroke-miterlimit:10;stroke-width:5px"/><polygon points="4021.87 3157.28 4136.89 3053.02 4037 3015.18 3991.6 3015.18 4036.01 3039.4 4036.01 3095.39 4021.54 3097.05 3950.73 3105.15 3867.49 3174.1 3908.35 3216.47 3988.57 3184.19 4056.68 3203.86 4021.87 3157.28" style="fill:none;stroke:#f3587d;stroke-miterlimit:10;stroke-width:5px"/><polyline points="4023.38 3143.83 4021.54 3097.05 4124.22 3064.5 3984.03 3053.02 3965.87 3103.42 3832.68 3115.83 3867.49 3174.1 4012.79 3105.15 3855.38 3271.97 3902.3 3295.68 3909.87 3232.49 3802.41 3242.2 3858.41 3184.19 3749.44 3174.1 3825.11 3128.19 3691.92 3157.28 3691.92 3203.36 3714.63 3233.63 3825.11 3194.28 3791.82 3157.28 3764.57 3128.19 3725.22 3319.39 3720.68 3254.31 3787.27 3261.12 3760.03 3340.58 3849.33 3395.07 3782.73 3395.07 3867.49 3331.5 3965.87 3307.54 3788.79 3288.62 3738.84 3305.27 3766.09 3355.72 3651.06 3369.84 3625.33 3319.39 3560.25 3382.46 3731.27 3369.84 3565.8 3350.67 3560.25 3377.92 3454.81 3395.07 3489.11 3307.54 3550.66 3307.54 3514.34 3262.89 3586.99 3229.59 3729.26 3241.7 3621.29 3172.08 3683.85 3158.96 3616.25 3176.11 3549.65 3319.39 3554.7 3201.34 3615.24 3171.07" style="fill:none;stroke:#f3587d;stroke-miterlimit:10;stroke-width:5px"/><polyline points="3414.45 3364.8 3454.81 3395.07 3489.11 3307.54 3419.49 3358.74 3423.53 3307.54 3489.11 3246.75 3554.7 3201.34 3514.34 3262.89 3484.57 3255.83 3494.16 3303.25 3513.33 3271.97" style="fill:none;stroke:#f3587d;stroke-miterlimit:10;stroke-width:5px"/><polyline points="3998.66 2702.89 3943.16 2664.05 4014.8 2664.05 3943.16 2555.58 4192.77 2550.53 3998.66 2480.91 3965.87 2625.2 3891.71 2638.32 3998.66 2651.94 3933.07 2661.52 3720.18 2561.63 3762.55 2534.39 3899.78 2561.63 3948.21 2619.15 3912.89 2619.15 3804.93 2480.91 3824.1 2533.38 3720.18 2420.37 3842.26 2293.57 3926.35 2391.11 3853.7 2511.52 3832.18 2537.08 3908.19 2473.08 3999.67 2469.81 3931.73 2398.51 3904.82 2469.14 3910.88 2342.01 3997.65 2395.15 4046.08 2438.03 4037 2388.09 3937.78 2397.17 4043.39 2444.93 3999.67 2475.87" style="fill:none;stroke:#f3587d;stroke-miterlimit:10;stroke-width:5px"/><polyline points="3804.93 2480.91 3760.87 2473.08 3679.82 2347.72 3607.17 2347.72 3699.66 2407.26 3787.78 2420.37 3741.36 2323.84 3826.79 2323.84 3776.34 2245.14 3910.88 2342.01" style="fill:none;stroke:#f3587d;stroke-miterlimit:10;stroke-width:5px"/><polygon points="3705.55 2562.64 3702.26 2537.66 3690.41 2447.62 3762.55 2534.39 3670.73 2507.48 3690.41 2404.23 3635.92 2395.15 3664.68 2498.23 3649.55 2550.53 3694.95 2538.43 3616.25 2464.26 3549.65 2473.08 3607.17 2498.23 3643.49 2542.97 3529.98 2498.23 3640.46 2498.23 3705.55 2562.64" style="fill:none;stroke:#f3587d;stroke-miterlimit:10;stroke-width:5px"/><polyline points="3762.55 2223.62 3749.17 2213.75 3382.16 1943.12 3349.87 1928.99 3311.53 1914.86 3291.35 1926.97 3281.26 1941.1 3281.26 1969.35 3281.26 2007.69 3307.49 2046.03 3374.09 2124.74 3607.17 2347.72 3632.39 2308.37 3575.89 2245.14 3574.34 2316.32 3674.77 2293.57 3720.18 2274.07 3709.08 2231.69 3759.02 2259.94 3731.27 2293.57 3654.59 2203.44 3679.82 2347.72" style="fill:none;stroke:#f3587d;stroke-miterlimit:10;stroke-width:5px"/><polyline points="3705.04 2203.44 3646.27 2213.53 3660.64 2157.02 3607.17 2116.66 3547.64 2116.66 3607.17 2179.22 3686.48 2167.52 3607.17 2142.9 3547.64 2074.28 3529.98 2100.52 3486.42 2020 3406.38 2088.41 3416.57 1968.49 3351.89 1979.44 3349.87 1928.99 3477.01 2131.29 3428.57 2146.93 3436.65 2096.48 3364.29 2113.16 3349.87 2019.8 3281.26 1995.58 3309.51 1957.24 3359.96 2015.76 3311.53 1914.86" style="fill:none;stroke:#f3587d;stroke-miterlimit:10;stroke-width:5px"/><polygon points="3456.83 2155.01 3512.36 2257.02 3432.91 2181.01 3456.83 2155.01" style="fill:none;stroke:#f3587d;stroke-miterlimit:10;stroke-width:5px"/><polygon points="3529.98 2231.69 3559.77 2302.38 3559.77 2245.14 3529.98 2231.69" style="fill:none;stroke:#f3587d;stroke-miterlimit:10;stroke-width:5px"/><line x1="3512.35" y1="2213.53" x2="3456.83" y2="2155.01" style="fill:none;stroke:#f3587d;stroke-miterlimit:10;stroke-width:5px"/><polyline points="3259.06 2336.63 3281.26 2340.66 3286.79 2360.17 3249.07 2307.24" style="fill:none;stroke:#f3587d;stroke-miterlimit:10;stroke-width:5px"/><polyline points="3595.92 2524.22 3559.77 2477.51 3383.58 2422.92 3484.59 2478.89 3357.94 2395.15 3286.79 2360.17 3318.59 2363.03" style="fill:none;stroke:#f3587d;stroke-miterlimit:10;stroke-width:5px"/><path d="M3261.08,2280.12l86.77-13.08q-9.07,40.34-18.16,80.68l-78.7-116q-10.09,30.95-20.18,61.89l30.27-13.46-30.27,13.46c-1.25-2.09-17.69-30.41-4-54.83a44.83,44.83,0,0,1,14.13-15.13,35.91,35.91,0,0,1,40.36-10.09l58.52,18.16,66.6,25.33L3570,2312.2l-97.4,2.23-25.89-36.33,10.09,84.93h88.05l14.89,75,47.4-33.8L3444.72,2363s-48.43,18-66.6,25,12.11-53.47,12.11-53.47l42.68,85.76h70.33l46.41,52.71-65.06-24.57L3456.83,2438l-133.19-75-92.83-69.45c14.83,5.36,18.06,10.21,18.26,13.66.23,3.92-3.46,6.41-4.13,13.24a22.88,22.88,0,0,0,1.57,10.57l58,41.9,95.85,60.54L3530,2498.23" transform="translate(0 0)" style="fill:none;stroke:#f3587d;stroke-miterlimit:10;stroke-width:5px"/><polygon points="4385.11 2960.19 4366.95 2978.35 4343.23 2949.59 4385.11 2960.19" style="fill:none;stroke:#f3587d;stroke-miterlimit:10;stroke-width:5px"/><polygon points="3867.49 2716.43 3816.03 2748.13 3775.67 2633.27 3830.16 2713.99 3867.49 2716.43" style="fill:none;stroke:#f3587d;stroke-miterlimit:10;stroke-width:5px"/><path d="M3910.88,2267" transform="translate(0 0)" style="fill:none;stroke:#f3587d;stroke-miterlimit:10;stroke-width:5px"/><polygon points="4192.77 2333.7 4240.57 2363.03 4240.57 2307.24 4205.51 2388.09 4192.77 2333.7" style="fill:none;stroke:#f3587d;stroke-miterlimit:10;stroke-width:5px"/></g><polygon points="1903.88 1916.85 2006.8 2184.27 2037.07 1969.27 1903.88 1916.85" style="fill:none;stroke:#02e2ac;stroke-miterlimit:10;stroke-width:5px"/><polygon points="1422.59 2066.18 1516.4 1975.32 1607.24 1878.45 1507.85 1916.85 1422.59 2066.18" style="fill:none;stroke:#02e2ac;stroke-miterlimit:10;stroke-width:5px"/><polygon points="1852.42 1560.62 1779.61 1624.19 1816.02 1645.38 1852.42 1560.62" style="fill:none;stroke:#02e2ac;stroke-miterlimit:10;stroke-width:5px"/><polygon points="1676.86 1711.97 1607.24 1878.45 1816.02 1645.38 1676.86 1711.97" style="fill:none;stroke:#02e2ac;stroke-miterlimit:10;stroke-width:5px"/><polyline points="1779.61 1624.19 1676.86 1711.97 1507.85 1916.85 1733.07 1724.08 1852.42 1715 1852.42 1575.75 1982.59 1603 1903.88 1518.24 1982.59 1478.89 1982.59 1584.84 2085.5 1663.54 1816.02 1645.38 2194.48 1478.89 2412.42 1463.76 2524.9 1539.43 2278.56 1527.32 2415.78 1463.76" style="fill:none;stroke:#02e2ac;stroke-miterlimit:10;stroke-width:5px"/><polygon points="2275.87 1378.66 2278.56 1527.32 2167.57 1470.14 2275.87 1378.66" style="fill:none;stroke:#02e2ac;stroke-miterlimit:10;stroke-width:5px"/><path d="M2219.36,1392.79l-51.79,77.36,127.81-61.89L2442,1427.77q-29.94-34-59.87-67.94l-103.93,12.11L2216,1390.77l-236.91,89.87,181.75-11.17L2442,1431.13l44.56-15.81-93.84-47.42-10.59-8.07a678.33,678.33,0,0,1,117-7.07c15.94.46,25.94,1.34,81.4,4.38,29.83,1.63,54.39,2.88,71,3.7l-126.65,34.81-95.83-17,177.08,85.09,45.4,71.14,72.65-101.41-109,30.27,12.11-51.45-81.73-12.11,119.57-36.33-30.28,40.87,89.3,19.67q-2.19-28.58-4.37-57.17l-48.6-33.64,6.05,53s-24.21-18.84,59-7.91,125.62,21.53,125.62,21.53l-62,71.13L2759,1421.38l-22.7,21.19v-63.91l119.57,97.2,46.91-33.29-112-8.33,122.59-25,62.05,25-10.59,50.7-48.43-40.86,86.27,8.91,46.91,19.85-77.18,28.75s40.86,81.73,43.89,93.84l43.89,7.57-19.68,62-3-8.86L3019.33,1603l-56-13.62v-90.06L2871,1477.38l151.35,174,27.24-178.59" transform="translate(0 0)" style="fill:none;stroke:#02e2ac;stroke-miterlimit:10;stroke-width:5px"/><path d="M2223.06,1690.3,2136,1729.12l87.11,32.8Z" transform="translate(0 0)" style="fill:none;stroke:#02e2ac;stroke-miterlimit:10;stroke-width:5px"/><path d="M3079.87,1489.48l69.12,155.9,72.39-73Z" transform="translate(0 0)" style="fill:none;stroke:#02e2ac;stroke-miterlimit:10;stroke-width:5px"/><polygon points="3342.72 1678.76 3221.38 1572.35 3286.79 1878.45 3342.72 1678.76" style="fill:none;stroke:#02e2ac;stroke-miterlimit:10;stroke-width:5px"/><polygon points="3073.82 1716.51 3190.36 1787.64 3190.36 1716.51 3073.82 1716.51" style="fill:none;stroke:#02e2ac;stroke-miterlimit:10;stroke-width:5px"/><polygon points="2999.66 1752.08 3190.36 1787.64 3073.82 1716.51 2999.66 1752.08" style="fill:none;stroke:#02e2ac;stroke-miterlimit:10;stroke-width:5px"/><polygon points="3148.99 1645.38 3266.29 1782.51 3245.68 1686.06 3148.99 1645.38" style="fill:none;stroke:#02e2ac;stroke-miterlimit:10;stroke-width:5px"/><path d="M3306.9,1665.05l-148.32-19.67q-4.62-55.17-9.22-110.33l72,37.3,121.34,106.41Z" transform="translate(0 0)" style="fill:none;stroke:#02e2ac;stroke-miterlimit:10;stroke-width:5px"/><path d="M3286.79,1878.45,3481,1861.3l-22.2-31.28-116-151.26,85.26,177-109-48.43-6.06-99.89-67.27-21.37,59.14,128,98.94-35.45,40.87,136.25,50.45-35.4,42.38,51.46,35.31,51.46,57.52,75.68-175.07-93.34,82.24-33.8q10.59,32.3,21.19,64.58l-45.41,23.21L3649,2081.26l-90.3-85.76-86.24-100.13q-3.3,20.3-6.59,40.6l57.51-22.2" transform="translate(0 0)" style="fill:none;stroke:#02e2ac;stroke-miterlimit:10;stroke-width:5px"/><polygon points="1637.51 2783.11 1559.64 3017.17 1751.93 2903.66 1637.51 2783.11" style="fill:none;stroke:#02e2ac;stroke-miterlimit:10;stroke-width:5px"/><polygon points="1393.83 2823.64 1393.83 2818.84 1393.83 2690.7 1637.51 2783.11 1496.71 2806.53 1393.83 2823.64" style="fill:none;stroke:#42afa9;stroke-miterlimit:10;stroke-width:5px"/><polygon points="1312.23 2548.02 1316.48 2555.45 1393.83 2690.7 1335.82 2769.4 1312.23 2548.02" style="fill:none;stroke:#02e2ac;stroke-miterlimit:10;stroke-width:5px"/><polygon points="1364.07 2900.14 1335.82 2769.4 1386.27 2818.84 1364.07 2900.14" style="fill:none;stroke:#02e2ac;stroke-miterlimit:10;stroke-width:5px"/><polygon points="3728.16 2575.68 3728.16 2625.2 3720.18 2717.94 3711.01 2827.93 3663.58 2684.73 3714.03 2737.45 3728.16 2575.68" style="fill:none;stroke:#02e2ac;stroke-miterlimit:10;stroke-width:5px"/><polygon points="3714.03 2599.89 3663.58 2684.73 3607.17 2528.65 3714.03 2599.89" style="fill:none;stroke:#42afa9;stroke-miterlimit:10;stroke-width:5px"/><polyline points="3374 2737.45 3281.26 2761.33 3281.26 2656.48 3544.88 2721.98 3435.55 2785.55 3382.07 2737.45 3603.04 2702.89 3663.58 2684.73 3607.17 2528.65 3544.88 2713.99 3603.04 2876.69 3667.62 2846.17 3714.03 2599.89 3728.16 2575.68" style="fill:none;stroke:#02e2ac;stroke-miterlimit:10;stroke-width:5px"/><polyline points="3334.65 2701.8 3281.26 2656.48 3600.38 2869.24 3529.98 3053.02 3617.17 2987.85 3608.91 2873.92 3646.27 2887.96 3630.79 3006.01 3679.22 2894.94 3711.01 2827.93 3667.62 2846.17 3554.7 3174.1 3618.68 3065.04 3615.66 3015.18 3462.79 2901.67 3435.55 2785.55 3340.2 2915.29 3403.76 3115.83 3441.35 3121.04 3461.28 2915.29 3349.28 2915.29 3471.87 2915.29 3518.79 3115.83 3484.57 3192.18 3595.92 3015.18 3518.79 3203.86 3484.57 3201.34 3441.35 3128.61 3523.33 3063.53 3529.98 3101.36" style="fill:none;stroke:#02e2ac;stroke-miterlimit:10;stroke-width:5px"/><polyline points="3403.76 3127.09 3376.52 3271.97 3420.41 3266.55 3441.35 3128.61 3496.13 3233.63 3365.93 3279.96 3359.87 3377.92 3414.45 3279.96 3470.36 3307.54 3484.57 3184.61 3549.12 3209.85 3490 3282.69 3388.63 3402.55 3303.87 3479.74 3148.99 3591.74 3112.67 3609.9 3066.25 3640.17 3048.09 3619.99 3086.43 3611.92 3155.05 3527.16 3187.66 3515.65 3257.96 3490.84 3338.68 3408.1 3375.01 3395.07 3395.19 3353.62 3312.45 3395.07 3187.33 3440.39 2961.32 3541.29 2991.59 3589.72 3126.79 3543.31 3195.41 3474.7 3281.26 3420.29 3255.22 3468.64 3128.81 3509 3076.34 3539.27 2961.32 3523.13 3193.39 3307.54 3340.7 3367.74 3189.35 3216.47 3362.9 3261.12 3213.57 3307.54" style="fill:none;stroke:#02e2ac;stroke-miterlimit:10;stroke-width:5px"/><polyline points="3179.26 3216.47 3179.26 3541.29 3218.76 3541.29 3142.94 3575.6 2878.58 3712.82 2991.59 3589.72 3066.25 3640.17 3007.73 3664.39 2904.81 3628.06 2832.16 3670.44 2860.42 3712.82 2743.37 3741.07 2638.44 3755.2 2834.18 3640.17 2961.32 3541.29" style="fill:none;stroke:#02e2ac;stroke-miterlimit:10;stroke-width:5px"/><polygon points="2652.56 3383.63 2820.06 3640.17 2765.57 3718.87 2616.24 3668.42 2765.57 3587.7 2730.88 3700.88 2567.81 3597.79 2504.48 3513.04 2753.46 3551.25 2456.82 3670.44 2483.05 3595.78 2483.05 3515.06 2652.56 3383.63" style="fill:none;stroke:#02e2ac;stroke-miterlimit:10;stroke-width:5px"/><polyline points="2638.44 3755.2 2554.69 3767.31 2433.61 3767.31 2433.61 3740.06 2456.82 3670.44 2600.09 3755.2 2616.24 3668.42 2385.18 3668.42 2483.05 3595.78 2483.05 3515.06 2276.2 3515.06 2638.44 3397.06" style="fill:none;stroke:#02e2ac;stroke-miterlimit:10;stroke-width:5px"/><path d="M2040.1,3377.92,2288.31,3401h0l-124.1,57.51Z" transform="translate(0 0)" style="fill:none;stroke:#02e2ac;stroke-miterlimit:10;stroke-width:5px"/><polygon points="2103.66 3485.84 1958.37 3551.25 2040.1 3377.92 2103.66 3485.84" style="fill:none;stroke:#02e2ac;stroke-miterlimit:10;stroke-width:5px"/><polyline points="2164.21 3582.18 2103.66 3485.84 2164.21 3597.79 2251.99 3625.04 2276.2 3515.06 2164.21 3458.55 2118.8 3485.84" style="fill:none;stroke:#02e2ac;stroke-miterlimit:10;stroke-width:5px"/><polygon points="2433.61 3767.31 2227.77 3730.98 2357.93 3691.63 2433.61 3767.31" style="fill:none;stroke:#02e2ac;stroke-miterlimit:10;stroke-width:5px"/><polygon points="2385.18 3668.42 2251.99 3625.04 2357.93 3691.63 2385.18 3668.42" style="fill:none;stroke:#02e2ac;stroke-miterlimit:10;stroke-width:5px"/><line x1="2433.61" y1="3767.31" x2="2385.18" y2="3668.42" style="fill:none;stroke:#02e2ac;stroke-miterlimit:10;stroke-width:5px"/><polyline points="2218.69 3700.71 2138.01 3697.25 2139.99 3668.42 2040.1 3625.04 1994.69 3640.17 2061.29 3668.42 2227.77 3730.98 2236.87 3691.63 2318.58 3755.2 2604.88 3729.47 2456.82 3743.09" style="fill:none;stroke:#02e2ac;stroke-miterlimit:10;stroke-width:5px"/><path d="M2081.47,3668.42l-110.4-101.66,23.62,73.41L1921,3592.75l-129.16-78.7,154.38,37.2,118,73.79s39.36,24.27,125.63-42.86l86.26-67.12-45.4,203.81-40.86-113.09-231.57-41.28L1916,3446.44l124.11-68.52" transform="translate(0 0)" style="fill:none;stroke:#02e2ac;stroke-miterlimit:10;stroke-width:5px"/><polyline points="1709.15 3404.07 1946.26 3551.25 1782.8 3512.03 1852.42 3428.28 1703.09 3404.07 1650.62 3404.07 1716.21 3464.59 1773.72 3506.98" style="fill:none;stroke:#02e2ac;stroke-miterlimit:10;stroke-width:5px"/><polygon points="1668.79 3482.77 1716.21 3582.18 1761.61 3532.47 1668.79 3482.77" style="fill:none;stroke:#02e2ac;stroke-miterlimit:10;stroke-width:5px"/><polygon points="1682.91 3203.33 1682.91 3321.33 1594.12 3246.66 1682.91 3190.16 1559.64 3017.17 1491.2 3038.81 1682.91 3203.33" style="fill:none;stroke:#02e2ac;stroke-miterlimit:10;stroke-width:5px"/><polygon points="1478.08 3158.88 1483.13 3034.77 1594.12 3246.66 1478.08 3158.88" style="fill:none;stroke:#02e2ac;stroke-miterlimit:10;stroke-width:5px"/><polygon points="1430.66 3055.01 1478.08 3158.88 1483.13 3034.77 1446.3 3008.54 1430.66 3055.01" style="fill:none;stroke:#02e2ac;stroke-miterlimit:10;stroke-width:5px"/><polyline points="1424.61 2988.36 1430.66 3055.01 1446.3 3008.54 1388.28 2951.02 1422.59 3048.9 1483.13 3040.82" style="fill:none;stroke:#02e2ac;stroke-miterlimit:10;stroke-width:5px"/><polyline points="1471.02 2911.67 1388.28 2823.64 1496.71 2806.53 1393.83 2704.88" style="fill:none;stroke:#02e2ac;stroke-miterlimit:10;stroke-width:5px"/><polyline points="1554.77 3008.54 1496.71 2812.79 1452.86 3003.01 1413.12 2975.65 1491.2 2801.08" style="fill:none;stroke:#02e2ac;stroke-miterlimit:10;stroke-width:5px"/><polyline points="1364.07 2900.14 1386.27 2959.1 1388.28 2823.64 1417.54 2951.02" style="fill:none;stroke:#02e2ac;stroke-miterlimit:10;stroke-width:5px"/><polyline points="1078.52 2677.58 1133.51 2718.42 1147.13 2642.51 1258.12 2627.19 1312.23 2692.69 1280.34 2697.96 1238.44 2704.88 1250.05 2769.4 1195.38 2757.17 1312.23 2823.64 1320.68 2754.32 1280.82 2799.39" style="fill:none;stroke:#f3587d;stroke-miterlimit:10;stroke-width:5px"/><path d="M1216.75,2120.62" transform="translate(0 0)" style="fill:none;stroke:#6a43b3;stroke-miterlimit:10;stroke-width:3px;fill-rule:evenodd"/><path d="M2638.92,2140.2a113.63,113.63,0,0,1,0,131.8l28.73,21.87a149.84,149.84,0,0,0-2.17-178.29L2649,2130.43Z" transform="translate(0 0)" style="fill:none;stroke:#6a43b3;stroke-miterlimit:10;stroke-width:5px;fill-rule:evenodd"/><path d="M2691.05,2311.63l-96.61-73.48a55.81,55.81,0,0,0,2.76-63.83l46.24-41.77,48.4-45.31a7.85,7.85,0,0,0,.2-11.23l-6.69-6.69a191,191,0,0,0-129.67-56.74l.2-26.6a16.17,16.17,0,0,0-.39-5.31,13.73,13.73,0,0,0-2.56-4.73,11.64,11.64,0,0,0-4.33-3.15,11.59,11.59,0,0,0-10.23,0,13.4,13.4,0,0,0-4.33,3.15,11.62,11.62,0,0,0-2.56,4.53,9.78,9.78,0,0,0-.39,5.32l-.2,27.38a186.28,186.28,0,0,0-34.43,6.7l.19-34.08a16.21,16.21,0,0,0-.39-5.32,13.82,13.82,0,0,0-2.56-4.73,11.75,11.75,0,0,0-4.33-3.15,11.68,11.68,0,0,0-10.23,0,13.77,13.77,0,0,0-4.33,3.15,11.66,11.66,0,0,0-2.55,4.53,9.79,9.79,0,0,0-.4,5.32l-.59,43.54a192.08,192.08,0,0,0,74.38,367.41l140.68.59a7.9,7.9,0,0,0,7.87-7.88v-71.12A8.3,8.3,0,0,0,2691.05,2311.63Zm-142.65,50.63a157.79,157.79,0,0,1-77.72-294.52l-.2,51.81a16.22,16.22,0,0,0,.4,5.32,13.82,13.82,0,0,0,2.56,4.73,11.75,11.75,0,0,0,4.33,3.15,11.68,11.68,0,0,0,10.23,0,13.62,13.62,0,0,0,4.32-3.15,11.69,11.69,0,0,0,2.56-4.53,9.89,9.89,0,0,0,.4-5.32l.19-63.63a157.75,157.75,0,0,1,54.11-9.26,155.53,155.53,0,0,1,94.05,31.72,4,4,0,0,1,.4,6.1l-73.59,67.57a56.27,56.27,0,0,0-21.25-4.33,57.82,57.82,0,0,0-23.61,4.92,55.76,55.76,0,0,0-19.29,14.39,58.21,58.21,0,0,0-11.6,21.08,55.09,55.09,0,0,0-1.78,24,56.26,56.26,0,0,0,47.82,48.26,54.75,54.75,0,0,0,24-1.77l94.06,71.51a4.12,4.12,0,0,1,1.57,3.15l-.2,25.22a4,4,0,0,1-3.93,3.94Zm23-157.6a23.52,23.52,0,0,1-3.73,12.41,22.86,22.86,0,0,1-10,8.27,20.52,20.52,0,0,1-12.79,1.18,23.93,23.93,0,0,1-11.41-6.1,21.95,21.95,0,0,1-4.72-24.24,22.84,22.84,0,0,1,8.26-10,23.38,23.38,0,0,1,12.4-3.74,22.15,22.15,0,0,1,22,22.26Z" transform="translate(0 0)" style="fill:none;stroke:#6a43b3;stroke-miterlimit:10;stroke-width:5px;fill-rule:evenodd"/><path d="M2240.89,2140.8c3.62,33.78,19.94,145.68,114,234.08,72.34,68,151.64,85.38,168.5,88.8,115.93,23.46,207.48-21.9,234.09-36.33-9.29,26.91-23.72,67.07-43.21,115.09-39.81,98.06-74.05,163-85.94,187.61-27.7,57.21-54.22,142.92-55.44,273-.26,28,.65,58,3,90.26H2446.73c11.75-143.2-6-253.24-24.22-326.91-34-137.41-81.06-186.63-135.59-385.36A1558.15,1558.15,0,0,1,2240.89,2140.8Z" transform="translate(0 0)" style="fill:none;stroke:#6a43b3;stroke-miterlimit:10;stroke-width:5px;fill-rule:evenodd"/><path d="M2307.87,2362.15c7.8,27.13,17.1,58.27,28,92.65,10.77,33.95,18.86,57.67,31.14,93.63,25.17,73.67,37.81,110.49,40.49,109.77,3.92-1.06-13.27-63.07-25.35-162.24-3.63-29.81-5.78-54.6-7.06-71.64-7.36-5.37-14.92-11.28-22.58-17.77A398.55,398.55,0,0,1,2307.87,2362.15Z" transform="translate(0 0)" style="fill:none;stroke:#6a43b3;stroke-miterlimit:10;stroke-width:5px;fill-rule:evenodd"/><rect x="2422.51" y="3093.29" width="174.56" height="47.42" rx="16.73" style="fill:none;stroke:#6a43b3;stroke-miterlimit:10;stroke-width:5px"/><rect x="2400.31" y="3140.72" width="216.94" height="47.42" rx="16.73" style="fill:none;stroke:#6a43b3;stroke-miterlimit:10;stroke-width:5px"/><polygon points="2519.64 3034.77 2580.42 3093.29 2571.42 3017.17 2504.48 3093.29 2549.19 2958.42 2571.42 2891.37 2438.75 2847.24 2504.48 2930.17 2472.96 2748.13 2597.07 2769.4 2519.64 2853.15 2449.63 2959.1 2478.01 3093.29 2519.64 3034.77" style="fill:none;stroke:#6a43b3;stroke-miterlimit:10;stroke-width:5px;fill-rule:evenodd"/><line x1="2508.78" y1="2935.89" x2="2446.73" y2="3093.29" style="fill:none;stroke:#6a43b3;stroke-miterlimit:10;stroke-width:5px"/><polygon points="2472.96 2748.13 2677.87 2627.19 2375.09 2424.32 2457.32 2606.69 2407.5 2658.2 2472.96 2748.13" style="fill:none;stroke:#6a43b3;stroke-miterlimit:10;stroke-width:5px;fill-rule:evenodd"/><polygon points="2517.91 2575.68 2714.29 2542.44 2504.48 2684.73 2517.91 2575.68" style="fill:none;stroke:#6a43b3;stroke-miterlimit:10;stroke-width:5px;fill-rule:evenodd"/><polygon points="2617.25 2704.88 2526.96 2750.12 2571.42 2891.37 2606.59 2783.11 2617.25 2704.88" style="fill:none;stroke:#6a43b3;stroke-miterlimit:10;stroke-width:5px;fill-rule:evenodd"/><path d="M2677.87,2627.19" transform="translate(0 0)" style="fill:none;stroke:#6a43b3;stroke-miterlimit:10;stroke-width:5px;fill-rule:evenodd"/><polygon points="2603.05 2470.01 2577.24 2559.76 2653.07 2510.18 2603.05 2470.01" style="fill:none;stroke:#6a43b3;stroke-miterlimit:10;stroke-width:5px;fill-rule:evenodd"/><polygon points="2694.3 2542.44 2653.07 2510.18 2695.98 2453.45 2694.3 2542.44" style="fill:none;stroke:#6a43b3;stroke-miterlimit:10;stroke-width:5px;fill-rule:evenodd"/><polygon points="2731.82 2497.95 2694.3 2542.44 2726.52 2442.2 2731.82 2497.95" style="fill:none;stroke:#6a43b3;stroke-miterlimit:10;stroke-width:5px;fill-rule:evenodd"/><polygon points="2262.98 2280.97 2279.23 2293.87 2279.23 2272.47 2262.98 2280.97" style="fill:none;stroke:#6a43b3;stroke-miterlimit:10;stroke-width:5px;fill-rule:evenodd"/><polygon points="2279.23 2320.4 2279.23 2283.17 2297.39 2320.4 2286.91 2381.02 2271.11 2312.83 2279.23 2320.4" style="fill:none;stroke:#6a43b3;stroke-miterlimit:10;stroke-width:5px;fill-rule:evenodd"/><polygon points="2297.39 2381.02 2314.04 2354.66 2279.23 2320.4 2297.39 2381.02" style="fill:none;stroke:#6a43b3;stroke-miterlimit:10;stroke-width:5px;fill-rule:evenodd"/><polyline points="2299.36 2424.32 2299.36 2397.13 2284.25 2369.52 2326.15 2453.45 2321.53 2492.32 2351.88 2528.65 2375.09 2572.04 2438.75 2775.96 2472.96 2748.13 2438.75 2847.24 2438.75 2798.13 2414.76 2737.24 2365.5 2571.64 2349.53 2565.65 2350.37 2542.44 2345.75 2485.41" style="fill:none;stroke:#6a43b3;stroke-miterlimit:10;stroke-width:5px;fill-rule:evenodd"/><polygon points="2430.58 2453.45 2408.07 2416.12 2375.09 2424.32 2430.58 2453.45" style="fill:none;stroke:#6a43b3;stroke-miterlimit:10;stroke-width:5px;fill-rule:evenodd"/><polygon points="2477.75 2453.45 2491.12 2492.32 2526.96 2482.34 2477.75 2453.45" style="fill:none;stroke:#6a43b3;stroke-miterlimit:10;stroke-width:5px;fill-rule:evenodd"/><polygon points="2565.28 2510.18 2526.96 2482.34 2524.18 2524.22 2565.28 2510.18" style="fill:none;stroke:#6a43b3;stroke-miterlimit:10;stroke-width:5px;fill-rule:evenodd"/><polyline points="2549.19 2467.85 2565.28 2510.18 2577.24 2559.76 2457.32 2606.69" style="fill:none;stroke:#6a43b3;stroke-miterlimit:10;stroke-width:5px;fill-rule:evenodd"/><path d="M2330.69,1248.84l54.5-16.15,26.24,31.28Z" transform="translate(0 0)" style="fill:none;stroke:#02e2ac;stroke-miterlimit:10;stroke-width:5px"/><polygon points="1816.02 1499.32 1778.62 1394.13 1875.64 1446.73 1816.02 1499.32" style="fill:none;stroke:#02e2ac;stroke-miterlimit:10;stroke-width:5px"/><polygon points="2941.15 1333.59 3060.2 1409.27 3013.8 1333.59 2941.15 1333.59" style="fill:none;stroke:#02e2ac;stroke-miterlimit:10;stroke-width:5px"/><circle cx="106.9" cy="92.98" r="23.98" style="fill:none"/><circle cx="23.98" cy="5000" r="23.98" style="fill:none"/><circle cx="4976.02" cy="45.02" r="23.98" style="fill:none"/><circle cx="23.98" cy="47.95" r="23.98" style="fill:none"/><rect width="5000" height="5000" style="fill:none"/></g></g></svg>