<svg id="Layer_1" data-name="Layer 1" xmlns="http://www.w3.org/2000/svg" viewBox="0 0 5011.35 2455"><title>BOUNTY LINE ART 2</title><g id="LEFT_HAND" data-name="LEFT HAND"><polygon points="11.19 1514.21 123.46 1478.38 92.36 1531.11 11.19 1514.21" style="fill:none;stroke:#f3587d;stroke-miterlimit:10;stroke-width:5px"/><polygon points="113.32 1621.7 155.23 1574.38 92.36 1531.11 113.32 1621.7" style="fill:none;stroke:#f3587d;stroke-miterlimit:10;stroke-width:5px"/><polygon points="92.36 1735.28 113.32 1621.7 183.63 1627.11 92.36 1735.28" style="fill:none;stroke:#f3587d;stroke-miterlimit:10;stroke-width:5px"/><polygon points="123.46 1791.39 121.55 1787.94 92.36 1735.28 199.18 1760.29 123.46 1791.39" style="fill:none;stroke:#f3587d;stroke-miterlimit:10;stroke-width:5px"/><polygon points="11.19 2024.29 51.8 1969.53 170.44 1886.38 270.84 1886.38 109.6 1955.33 11.19 2024.29" style="fill:none;stroke:#f3587d;stroke-miterlimit:10;stroke-width:5px"/><polyline points="280.98 1768.74 170.44 1886.38 249.54 1848.85 280.98 1774.83 339.8 1808.29 415.85 1851.9 434.11 1768.74 346.89 1805.25 257.65 1847.84 339.8 1895.5 409.77 1855.95 481.77 1916.8 338.78 1886.38 270.84 1879.28 270.84 1848.85 398.61 1850.88 477.71 1816.4 435.12 1763.33" style="fill:none;stroke:#f3587d;stroke-miterlimit:10;stroke-width:5px"/><polygon points="234.33 1735.28 240.42 1840.07 277.94 1763.33 234.33 1735.28" style="fill:none;stroke:#f3587d;stroke-miterlimit:10;stroke-width:5px"/><polygon points="390.5 1730.21 239.76 1738.77 386.44 1641.98 390.5 1730.21" style="fill:none;stroke:#f3587d;stroke-miterlimit:10;stroke-width:5px"/><polygon points="366.16 1576.4 386.44 1641.98 277.94 1599.39 366.16 1576.4" style="fill:none;stroke:#f3587d;stroke-miterlimit:10;stroke-width:5px"/><polygon points="320.19 1491.22 277.94 1599.39 260.7 1555.45 320.19 1491.22" style="fill:none;stroke:#f3587d;stroke-miterlimit:10;stroke-width:5px"/><polygon points="234.33 1504.74 256.13 1560.18 183.63 1627.11 155.23 1574.38 251.23 1559.5 234.33 1504.74" style="fill:none;stroke:#f3587d;stroke-miterlimit:10;stroke-width:5px"/><polygon points="183.63 1481.08 234.33 1504.74 315.13 1379.33 222.7 1427.09 123.46 1478.38 183.63 1481.08" style="fill:none;stroke:#f3587d;stroke-miterlimit:10;stroke-width:5px"/><polyline points="224.87 1429.7 183.63 1481.08 228.75 1430.21 367.18 1425.98 315.13 1379.33 449.32 1402.66 449.32 1460.8 370.89 1425.64 441.88 1406.71 452.02 1548.68 510.16 1548.68 481.77 1509.47 453.37 1458.77 510.16 1478.38 448.64 1548.68" style="fill:none;stroke:#f3587d;stroke-miterlimit:10;stroke-width:5px"/><polygon points="611.57 1548.68 510.16 1548.68 510.16 1478.38 611.57 1548.68" style="fill:none;stroke:#f3587d;stroke-miterlimit:10;stroke-width:5px"/><polygon points="523.35 1379.33 510.16 1478.38 588.75 1428.85 588.75 1344.35 523.35 1379.33" style="fill:none;stroke:#f3587d;stroke-miterlimit:10;stroke-width:5px"/><path d="M630.8,2573.85l-51.72,34.3Z" transform="translate(9.67 -1179.3)" style="fill:none;stroke:#f3587d;stroke-miterlimit:10;stroke-width:5px"/><polyline points="470.11 1313.92 481.77 1278.94 390.5 1338.26 467.06 1323.05 549.46 1309.36 640.47 1394.54 588.75 1344.35 614.61 1255.22 555.8 1304.29 487.85 1287.05 515.49 1267.28 614.61 1255.22 634.56 1186.99 510.16 1267.28" style="fill:none;stroke:#f3587d;stroke-miterlimit:10;stroke-width:5px"/><polygon points="588.75 1735.28 510.16 1818.94 611.57 1849.36 510.16 1809.81 521.82 1886.38 588.75 1735.28" style="fill:none;stroke:#f3587d;stroke-miterlimit:10;stroke-width:5px"/><polygon points="728.7 1678.49 726.71 1685.62 698.27 1787.67 698.27 1856.97 815.4 1856.97 708.92 1791.39 775.85 1767.73 728.7 1678.49" style="fill:none;stroke:#f3587d;stroke-miterlimit:10;stroke-width:5px"/><polygon points="67.32 2024.29 53.82 2108.46 123.8 2055.73 67.32 2024.29" style="fill:none;stroke:#f3587d;stroke-miterlimit:10;stroke-width:5px"/><polygon points="92.36 1856.97 53.82 1877.25 19.34 1856.97 92.36 1856.97" style="fill:none;stroke:#f3587d;stroke-miterlimit:10;stroke-width:5px"/><polygon points="53.82 1678.49 19.34 1690.38 19.34 1660.23 53.82 1678.49" style="fill:none;stroke:#f3587d;stroke-miterlimit:10;stroke-width:5px"/><polygon points="92.36 1364.12 92.36 1402.66 53.82 1379.33 92.36 1364.12" style="fill:none;stroke:#f3587d;stroke-miterlimit:10;stroke-width:5px"/><polygon points="332.19 1966.49 366.16 1988.8 390.5 1966.49 332.19 1966.49" style="fill:none;stroke:#f3587d;stroke-miterlimit:10;stroke-width:5px"/><polygon points="510.16 1988.8 629.82 1988.8 549.46 1955.33 510.16 1988.8" style="fill:none;stroke:#f3587d;stroke-miterlimit:10;stroke-width:5px"/><polyline points="491.91 1916.8 560.87 1916.8 640.47 1955.33 815.4 1972.07 735.29 1916.8 629.82 1944.43" style="fill:none;stroke:#f3587d;stroke-miterlimit:10;stroke-width:5px"/><polygon points="815.4 1856.97 735.29 1916.8 822.5 1916.8 815.4 1856.97" style="fill:none;stroke:#f3587d;stroke-miterlimit:10;stroke-width:5px"/><polyline points="809.32 2045.59 882.33 2053.7 844.81 2104.4 802.22 2047.62 873.77 2090.21 873.77 2019.22 815.4 2019.22 802.22 2052.68" style="fill:none;stroke:#f3587d;stroke-miterlimit:10;stroke-width:5px"/><polyline points="611.57 1849.36 543.12 1738.77 593.32 1729.19 510.16 1809.81 537.04 1745.92" style="fill:none;stroke:#f3587d;stroke-miterlimit:10;stroke-width:5px"/><polygon points="822.5 1916.8 941.65 1886.88 941.65 1944.43 822.5 1916.8" style="fill:none;stroke:#f3587d;stroke-miterlimit:10;stroke-width:5px"/><polygon points="815.4 1972.07 956.87 2002.99 882.33 1955.33 815.4 1972.07" style="fill:none;stroke:#f3587d;stroke-miterlimit:10;stroke-width:5px"/><line x1="941.66" y1="1944.43" x2="882.33" y2="1955.33" style="fill:none;stroke:#f3587d;stroke-miterlimit:10;stroke-width:5px"/><polygon points="987.29 1979.16 1032.92 2002.99 956.87 2002.99 891.93 1988.8 987.29 1979.16" style="fill:none;stroke:#f3587d;stroke-miterlimit:10;stroke-width:5px"/><polyline points="611.57 1548.68 635.91 1576.4 687.63 1545.31 515.49 1478.38" style="fill:none;stroke:#f3587d;stroke-miterlimit:10;stroke-width:5px"/><polygon points="773.82 1527.39 687.63 1545.31 773.82 1583.16 773.82 1527.39" style="fill:none;stroke:#f3587d;stroke-miterlimit:10;stroke-width:5px"/><polygon points="852.92 1471.62 773.82 1527.39 917.82 1499.5 852.92 1471.62" style="fill:none;stroke:#f3587d;stroke-miterlimit:10;stroke-width:5px"/><polygon points="756.84 1428.85 852.92 1471.62 792.08 1394.54 756.84 1428.85" style="fill:none;stroke:#f3587d;stroke-miterlimit:10;stroke-width:5px"/><polygon points="756.84 1365.14 792.08 1394.54 756.84 1428.85 756.84 1365.14" style="fill:none;stroke:#f3587d;stroke-miterlimit:10;stroke-width:5px"/><polygon points="717.04 1344.35 756.84 1365.14 717.04 1299.22 717.04 1344.35" style="fill:none;stroke:#f3587d;stroke-miterlimit:10;stroke-width:5px"/><polygon points="614.61 1255.22 717.04 1299.22 698.27 1235.33 614.61 1255.22" style="fill:none;stroke:#f3587d;stroke-miterlimit:10;stroke-width:5px"/><polygon points="774.46 1099.45 683.57 1152.42 677.43 1156.75 695.74 1230.26 774.46 1164.85 670.39 1169.42 634.56 1186.99 687.63 1230.26 814.39 1230.26 774.46 1172.46 774.46 1099.45" style="fill:none;stroke:#f3587d;stroke-miterlimit:10;stroke-width:5px"/><polygon points="875.23 1074.09 774.46 1099.45 773.82 1160.29 875.23 1074.09" style="fill:none;stroke:#f3587d;stroke-miterlimit:10;stroke-width:5px"/><polygon points="913.77 1099.45 875.23 1074.09 961.43 1066.99 913.77 1099.45" style="fill:none;stroke:#f3587d;stroke-miterlimit:10;stroke-width:5px"/><polygon points="814.39 1230.26 952.3 1117.19 926.95 1173.73 814.39 1230.26" style="fill:none;stroke:#f3587d;stroke-miterlimit:10;stroke-width:5px"/><polygon points="792.08 1305.31 832.64 1276.91 804.88 1230.26 792.08 1305.31" style="fill:none;stroke:#f3587d;stroke-miterlimit:10;stroke-width:5px"/><polygon points="814.39 1336.74 792.08 1305.31 756.84 1365.14 814.39 1336.74" style="fill:none;stroke:#f3587d;stroke-miterlimit:10;stroke-width:5px"/><polyline points="845.82 1411.36 814.39 1336.74 792.08 1394.54 867.12 1464.01 971.57 1411.36 909.71 1379.33 983.74 1344.35 999.97 1400.38 961.43 1494.94 917.82 1499.5 969.54 1418.12 975.63 1379.33 991.85 1405.7" style="fill:none;stroke:#f3587d;stroke-miterlimit:10;stroke-width:5px"/><polygon points="952.3 1576.4 917.82 1499.5 961.43 1494.94 952.3 1576.4" style="fill:none;stroke:#f3587d;stroke-miterlimit:10;stroke-width:5px"/><path d="M873.67,2795.93l34.48-117.13Z" transform="translate(9.67 -1179.3)" style="fill:none;stroke:#f3587d;stroke-miterlimit:10;stroke-width:5px"/><polyline points="952.3 1576.4 883.35 1616.63 773.82 1527.39 815.4 1641.98 875.23 1653.14 961.43 1697.25 952.3 1648.57 896.02 1627.11 867.63 1641.98 861.04 1735.28 815.4 1650.09" style="fill:none;stroke:#f3587d;stroke-miterlimit:10;stroke-width:5px"/><polygon points="976.64 1840.07 861.04 1735.28 961.43 1697.25 1007.06 1697.25 962.43 1721.59 962.43 1777.87 976.97 1779.53 1048.13 1787.67 1131.8 1856.97 1090.73 1899.56 1010.11 1867.11 941.65 1886.88 976.64 1840.07" style="fill:none;stroke:#f3587d;stroke-miterlimit:10;stroke-width:5px"/><polyline points="975.12 1826.54 976.97 1779.53 873.77 1746.82 1014.67 1735.28 1032.92 1785.93 1166.78 1798.4 1131.8 1856.97 985.77 1787.67 1143.96 1955.33 1096.81 1979.16 1089.2 1915.66 1197.2 1925.42 1140.92 1867.11 1250.44 1856.97 1174.39 1810.83 1308.25 1840.07 1308.25 1886.38 1285.43 1916.8 1174.39 1877.25 1207.85 1840.07 1235.23 1810.83 1274.78 2002.99 1279.35 1937.59 1212.42 1944.43 1239.8 2024.29 1150.05 2079.05 1216.98 2079.05 1131.8 2015.16 1032.92 1991.08 1210.89 1972.07 1261.09 1988.8 1233.71 2039.5 1349.32 2053.7 1375.18 2002.99 1440.59 2066.38 1268.7 2053.7 1435.01 2034.43 1440.59 2061.81 1546.56 2079.05 1512.08 1991.08 1450.22 1991.08 1486.73 1946.21 1413.71 1912.74 1270.73 1924.91 1379.23 1854.94 1316.36 1841.76 1384.3 1858.99 1451.23 2002.99 1446.16 1884.35 1385.32 1853.92" style="fill:none;stroke:#f3587d;stroke-miterlimit:10;stroke-width:5px"/><polyline points="1587.12 2048.63 1546.56 2079.05 1512.08 1991.08 1582.05 2042.54 1577.99 1991.08 1512.08 1929.98 1446.16 1884.35 1486.73 1946.21 1516.64 1939.11 1507.01 1986.77 1487.74 1955.33" style="fill:none;stroke:#f3587d;stroke-miterlimit:10;stroke-width:5px"/><polyline points="999.97 1383.39 1055.74 1344.35 983.74 1344.35 1055.74 1235.33 804.88 1230.26 999.97 1160.29 1032.92 1305.31 1107.46 1318.49 999.97 1332.18 1065.88 1341.81 1279.85 1241.42 1237.26 1214.04 1099.35 1241.42 1050.67 1299.22 1086.16 1299.22 1194.67 1160.29 1175.4 1213.02 1279.85 1099.45 1157.15 972.01 1072.64 1070.04 1145.65 1191.05 1167.29 1216.74 1090.89 1152.42 998.95 1149.14 1067.23 1077.47 1094.28 1148.46 1088.19 1020.68 1000.98 1074.09 952.3 1117.19 961.43 1066.99 1061.15 1076.12 955.01 1124.12 998.95 1155.22" style="fill:none;stroke:#f3587d;stroke-miterlimit:10;stroke-width:5px"/><polyline points="1194.67 1160.29 1238.95 1152.42 1320.42 1026.43 1393.43 1026.43 1300.47 1086.26 1211.91 1099.45 1258.56 1002.43 1172.7 1002.43 1223.4 923.33 1088.19 1020.68" style="fill:none;stroke:#f3587d;stroke-miterlimit:10;stroke-width:5px"/><polygon points="1294.56 1242.43 1297.86 1217.33 1309.77 1126.83 1237.26 1214.04 1329.54 1186.99 1309.77 1083.22 1364.53 1074.09 1335.63 1177.7 1350.84 1230.26 1305.2 1218.09 1384.3 1143.56 1451.23 1152.42 1393.43 1177.7 1356.92 1222.66 1471.01 1177.7 1359.96 1177.7 1294.56 1242.43" style="fill:none;stroke:#f3587d;stroke-miterlimit:10;stroke-width:5px"/><polyline points="1237.26 901.7 1250.71 891.78 1619.57 619.78 1652.02 605.59 1690.56 591.39 1710.84 603.56 1720.98 617.76 1720.98 646.15 1720.98 684.68 1694.61 723.22 1627.68 802.32 1393.43 1026.43 1368.08 986.88 1424.87 923.33 1426.42 994.87 1325.49 972.01 1279.85 952.4 1291.01 909.81 1240.81 938.21 1268.7 972.01 1345.77 881.42 1320.42 1026.43" style="fill:none;stroke:#f3587d;stroke-miterlimit:10;stroke-width:5px"/><polyline points="1295.06 881.42 1354.13 891.56 1339.68 834.77 1393.43 794.21 1453.26 794.21 1393.43 857.08 1313.72 845.32 1393.43 820.57 1453.26 751.62 1471.01 777.98 1514.79 697.05 1595.23 765.81 1584.99 645.29 1649.99 656.29 1652.02 605.59 1524.25 808.91 1572.92 824.63 1564.81 773.92 1637.53 790.68 1652.02 696.85 1720.98 672.52 1692.59 633.98 1641.88 692.8 1690.56 591.39" style="fill:none;stroke:#f3587d;stroke-miterlimit:10;stroke-width:5px"/><polygon points="1544.53 832.74 1488.72 935.27 1568.56 858.88 1544.53 832.74" style="fill:none;stroke:#f3587d;stroke-miterlimit:10;stroke-width:5px"/><polygon points="1471.01 909.81 1441.06 980.86 1441.06 923.33 1471.01 909.81" style="fill:none;stroke:#f3587d;stroke-miterlimit:10;stroke-width:5px"/><line x1="1488.72" y1="891.56" x2="1544.53" y2="832.74" style="fill:none;stroke:#f3587d;stroke-miterlimit:10;stroke-width:5px"/><polyline points="1743.29 1015.28 1720.98 1019.33 1715.42 1038.94 1753.33 985.74" style="fill:none;stroke:#f3587d;stroke-miterlimit:10;stroke-width:5px"/><polyline points="1404.74 1203.82 1441.06 1156.87 1618.14 1102 1516.62 1158.26 1643.91 1074.09 1715.42 1038.94 1683.46 1041.81" style="fill:none;stroke:#f3587d;stroke-miterlimit:10;stroke-width:5px"/><path d="M1731.59,2137.79l-87.21-13.15q9.12,40.55,18.25,81.09l79.1-116.62,20.28,62.2-30.42-13.52,30.42,13.52c1.26-2.09,17.78-30.56,4.06-55.1a45.2,45.2,0,0,0-14.2-15.21,36.12,36.12,0,0,0-40.57-10.14l-58.81,18.25-66.93,25.46L1421.08,2170l97.89,2.24,26-36.51-10.15,85.35h-88.49l-15,75.38-47.63-34L1547,2221.11s48.68,18.09,66.93,25.19-12.17-53.75-12.17-53.75l-42.89,86.2h-70.68l-46.65,53L1507,2307l27.9-10.54,133.86-75.38,93.3-69.8c-14.91,5.39-18.15,10.27-18.35,13.73-.23,3.94,3.47,6.44,4.15,13.31a23,23,0,0,1-1.58,10.63l-58.25,42.1-96.34,60.85L1461.33,2357" transform="translate(9.67 -1179.3)" style="fill:none;stroke:#f3587d;stroke-miterlimit:10;stroke-width:5px"/><polygon points="611.57 1641.98 629.82 1660.23 653.65 1631.33 611.57 1641.98" style="fill:none;stroke:#f3587d;stroke-miterlimit:10;stroke-width:5px"/><polygon points="1131.8 1396.99 1183.51 1428.85 1224.08 1313.42 1169.32 1394.54 1131.8 1396.99" style="fill:none;stroke:#f3587d;stroke-miterlimit:10;stroke-width:5px"/><path d="M1078.52,2124.64" transform="translate(9.67 -1179.3)" style="fill:none;stroke:#f3587d;stroke-miterlimit:10;stroke-width:5px"/><polygon points="804.88 1012.34 756.84 1041.81 756.84 985.74 792.08 1066.99 804.88 1012.34" style="fill:none;stroke:#f3587d;stroke-miterlimit:10;stroke-width:5px"/></g><g id="RIGHT_HAND" data-name="RIGHT HAND"><polygon points="5000.16 1512.21 4887.89 1476.38 4918.99 1529.11 5000.16 1512.21" style="fill:none;stroke:#f3587d;stroke-miterlimit:10;stroke-width:5px"/><polygon points="4898.03 1619.7 4856.12 1572.38 4918.99 1529.11 4898.03 1619.7" style="fill:none;stroke:#f3587d;stroke-miterlimit:10;stroke-width:5px"/><polygon points="4918.99 1733.28 4898.03 1619.7 4827.72 1625.11 4918.99 1733.28" style="fill:none;stroke:#f3587d;stroke-miterlimit:10;stroke-width:5px"/><polygon points="4887.89 1789.39 4889.8 1785.94 4918.99 1733.28 4812.17 1758.29 4887.89 1789.39" style="fill:none;stroke:#f3587d;stroke-miterlimit:10;stroke-width:5px"/><polygon points="5000.16 2022.29 4959.55 1967.53 4840.9 1884.38 4740.51 1884.38 4901.75 1953.33 5000.16 2022.29" style="fill:none;stroke:#f3587d;stroke-miterlimit:10;stroke-width:5px"/><polyline points="4730.37 1766.74 4840.9 1884.38 4761.81 1846.85 4730.37 1772.83 4671.55 1806.29 4595.5 1849.9 4577.24 1766.74 4664.45 1803.25 4753.69 1845.84 4671.55 1893.5 4601.58 1853.95 4529.58 1914.8 4672.57 1884.38 4740.51 1877.28 4740.51 1846.85 4612.73 1848.88 4533.64 1814.4 4576.23 1761.33" style="fill:none;stroke:#f3587d;stroke-miterlimit:10;stroke-width:5px"/><polygon points="4777.02 1733.28 4770.93 1838.07 4733.41 1761.33 4777.02 1733.28" style="fill:none;stroke:#f3587d;stroke-miterlimit:10;stroke-width:5px"/><polygon points="4620.85 1728.21 4771.59 1736.77 4624.9 1639.98 4620.85 1728.21" style="fill:none;stroke:#f3587d;stroke-miterlimit:10;stroke-width:5px"/><polygon points="4645.19 1574.4 4624.9 1639.98 4733.41 1597.39 4645.19 1574.4" style="fill:none;stroke:#f3587d;stroke-miterlimit:10;stroke-width:5px"/><polygon points="4691.16 1489.22 4733.41 1597.39 4750.65 1553.45 4691.16 1489.22" style="fill:none;stroke:#f3587d;stroke-miterlimit:10;stroke-width:5px"/><polygon points="4777.02 1502.74 4755.21 1558.18 4827.72 1625.11 4856.12 1572.38 4760.12 1557.5 4777.02 1502.74" style="fill:none;stroke:#f3587d;stroke-miterlimit:10;stroke-width:5px"/><polygon points="4827.72 1479.08 4777.02 1502.74 4696.22 1377.33 4788.65 1425.09 4887.89 1476.38 4827.72 1479.08" style="fill:none;stroke:#f3587d;stroke-miterlimit:10;stroke-width:5px"/><polyline points="4786.48 1427.7 4827.72 1479.08 4782.6 1428.21 4644.17 1423.98 4696.22 1377.33 4562.03 1400.66 4562.03 1458.8 4640.45 1423.64 4569.47 1404.71 4559.33 1546.68 4501.19 1546.68 4529.58 1507.47 4557.98 1456.77 4501.19 1476.38 4562.71 1546.68" style="fill:none;stroke:#f3587d;stroke-miterlimit:10;stroke-width:5px"/><polygon points="4399.78 1546.68 4501.19 1546.68 4501.19 1476.38 4399.78 1546.68" style="fill:none;stroke:#f3587d;stroke-miterlimit:10;stroke-width:5px"/><polygon points="4488 1377.33 4501.19 1476.38 4422.6 1426.85 4422.6 1342.35 4488 1377.33" style="fill:none;stroke:#f3587d;stroke-miterlimit:10;stroke-width:5px"/><path d="M4361.2,2571.85l51.72,34.3Z" transform="translate(9.67 -1179.3)" style="fill:none;stroke:#f3587d;stroke-miterlimit:10;stroke-width:5px"/><polyline points="4541.24 1311.92 4529.58 1276.94 4620.85 1336.26 4544.28 1321.05 4461.89 1307.36 4370.88 1392.54 4422.6 1342.35 4396.73 1253.22 4455.55 1302.29 4523.5 1285.05 4495.86 1265.28 4396.73 1253.22 4376.79 1184.99 4501.19 1265.28" style="fill:none;stroke:#f3587d;stroke-miterlimit:10;stroke-width:5px"/><polygon points="4422.6 1733.28 4501.19 1816.94 4399.78 1847.36 4501.19 1807.81 4489.52 1884.38 4422.6 1733.28" style="fill:none;stroke:#f3587d;stroke-miterlimit:10;stroke-width:5px"/><polygon points="4282.65 1676.49 4284.64 1683.62 4313.07 1785.67 4313.07 1854.97 4195.95 1854.97 4302.43 1789.39 4235.5 1765.73 4282.65 1676.49" style="fill:none;stroke:#f3587d;stroke-miterlimit:10;stroke-width:5px"/><polygon points="4944.02 2022.29 4957.52 2106.46 4887.55 2053.73 4944.02 2022.29" style="fill:none;stroke:#f3587d;stroke-miterlimit:10;stroke-width:5px"/><polygon points="4918.99 1854.97 4957.52 1875.25 4992 1854.97 4918.99 1854.97" style="fill:none;stroke:#f3587d;stroke-miterlimit:10;stroke-width:5px"/><polygon points="4957.52 1676.49 4992 1688.38 4992 1658.23 4957.52 1676.49" style="fill:none;stroke:#f3587d;stroke-miterlimit:10;stroke-width:5px"/><polygon points="4918.99 1362.12 4918.99 1400.66 4957.52 1377.33 4918.99 1362.12" style="fill:none;stroke:#f3587d;stroke-miterlimit:10;stroke-width:5px"/><polygon points="4679.16 1964.49 4645.19 1986.8 4620.85 1964.49 4679.16 1964.49" style="fill:none;stroke:#f3587d;stroke-miterlimit:10;stroke-width:5px"/><polygon points="4501.19 1986.8 4381.52 1986.8 4461.89 1953.33 4501.19 1986.8" style="fill:none;stroke:#f3587d;stroke-miterlimit:10;stroke-width:5px"/><polyline points="4519.44 1914.8 4450.48 1914.8 4370.88 1953.33 4195.95 1970.07 4276.06 1914.8 4381.52 1942.43" style="fill:none;stroke:#f3587d;stroke-miterlimit:10;stroke-width:5px"/><polygon points="4195.95 1854.97 4276.06 1914.8 4188.85 1914.8 4195.95 1854.97" style="fill:none;stroke:#f3587d;stroke-miterlimit:10;stroke-width:5px"/><polyline points="4202.03 2043.59 4129.02 2051.7 4166.54 2102.4 4209.13 2045.62 4137.58 2088.21 4137.58 2017.22 4195.95 2017.22 4209.13 2050.68" style="fill:none;stroke:#f3587d;stroke-miterlimit:10;stroke-width:5px"/><polyline points="4399.78 1847.36 4468.23 1736.77 4418.03 1727.19 4501.19 1807.81 4474.31 1743.92" style="fill:none;stroke:#f3587d;stroke-miterlimit:10;stroke-width:5px"/><polygon points="4188.85 1914.8 4069.69 1884.88 4069.69 1942.43 4188.85 1914.8" style="fill:none;stroke:#f3587d;stroke-miterlimit:10;stroke-width:5px"/><polygon points="4195.95 1970.07 4054.48 2000.99 4129.02 1953.33 4195.95 1970.07" style="fill:none;stroke:#f3587d;stroke-miterlimit:10;stroke-width:5px"/><line x1="4069.69" y1="1942.43" x2="4129.02" y2="1953.33" style="fill:none;stroke:#f3587d;stroke-miterlimit:10;stroke-width:5px"/><polygon points="4024.06 1977.16 3978.43 2000.99 4054.48 2000.99 4119.42 1986.8 4024.06 1977.16" style="fill:none;stroke:#f3587d;stroke-miterlimit:10;stroke-width:5px"/><polyline points="4399.78 1546.68 4375.44 1574.4 4323.72 1543.31 4495.86 1476.38" style="fill:none;stroke:#f3587d;stroke-miterlimit:10;stroke-width:5px"/><polygon points="4237.52 1525.39 4323.72 1543.31 4237.52 1581.16 4237.52 1525.39" style="fill:none;stroke:#f3587d;stroke-miterlimit:10;stroke-width:5px"/><polygon points="4158.43 1469.62 4237.52 1525.39 4093.52 1497.5 4158.43 1469.62" style="fill:none;stroke:#f3587d;stroke-miterlimit:10;stroke-width:5px"/><polygon points="4254.51 1426.85 4158.43 1469.62 4219.27 1392.54 4254.51 1426.85" style="fill:none;stroke:#f3587d;stroke-miterlimit:10;stroke-width:5px"/><polygon points="4254.51 1363.14 4219.27 1392.54 4254.51 1426.85 4254.51 1363.14" style="fill:none;stroke:#f3587d;stroke-miterlimit:10;stroke-width:5px"/><polygon points="4294.31 1342.35 4254.51 1363.14 4294.31 1297.22 4294.31 1342.35" style="fill:none;stroke:#f3587d;stroke-miterlimit:10;stroke-width:5px"/><polygon points="4396.73 1253.22 4294.31 1297.22 4313.07 1233.33 4396.73 1253.22" style="fill:none;stroke:#f3587d;stroke-miterlimit:10;stroke-width:5px"/><polygon points="4236.89 1097.45 4327.78 1150.42 4333.92 1154.75 4315.61 1228.26 4236.89 1162.85 4340.96 1167.42 4376.79 1184.99 4323.72 1228.26 4196.96 1228.26 4236.89 1170.46 4236.89 1097.45" style="fill:none;stroke:#f3587d;stroke-miterlimit:10;stroke-width:5px"/><polygon points="4136.12 1072.09 4236.89 1097.45 4237.52 1158.29 4136.12 1072.09" style="fill:none;stroke:#f3587d;stroke-miterlimit:10;stroke-width:5px"/><polygon points="4097.58 1097.45 4136.12 1072.09 4049.92 1064.99 4097.58 1097.45" style="fill:none;stroke:#f3587d;stroke-miterlimit:10;stroke-width:5px"/><polygon points="4196.96 1228.26 4059.05 1115.19 4084.4 1171.73 4196.96 1228.26" style="fill:none;stroke:#f3587d;stroke-miterlimit:10;stroke-width:5px"/><polygon points="4219.27 1303.31 4178.71 1274.91 4206.47 1228.26 4219.27 1303.31" style="fill:none;stroke:#f3587d;stroke-miterlimit:10;stroke-width:5px"/><polygon points="4196.96 1334.74 4219.27 1303.31 4254.51 1363.14 4196.96 1334.74" style="fill:none;stroke:#f3587d;stroke-miterlimit:10;stroke-width:5px"/><polyline points="4165.52 1409.36 4196.96 1334.74 4219.27 1392.54 4144.23 1462.01 4039.78 1409.36 4101.64 1377.33 4027.61 1342.35 4011.38 1398.38 4049.92 1492.94 4093.52 1497.5 4041.81 1416.12 4035.72 1377.33 4019.5 1403.7" style="fill:none;stroke:#f3587d;stroke-miterlimit:10;stroke-width:5px"/><polygon points="4059.05 1574.4 4093.52 1497.5 4049.92 1492.94 4059.05 1574.4" style="fill:none;stroke:#f3587d;stroke-miterlimit:10;stroke-width:5px"/><path d="M4118.33,2793.93l-34.48-117.13Z" transform="translate(9.67 -1179.3)" style="fill:none;stroke:#f3587d;stroke-miterlimit:10;stroke-width:5px"/><polyline points="4059.05 1574.4 4128 1614.63 4237.52 1525.39 4195.95 1639.98 4136.12 1651.14 4049.92 1695.25 4059.05 1646.57 4115.33 1625.11 4143.72 1639.98 4150.31 1733.28 4195.95 1648.09" style="fill:none;stroke:#f3587d;stroke-miterlimit:10;stroke-width:5px"/><polygon points="4034.71 1838.07 4150.31 1733.28 4049.92 1695.25 4004.28 1695.25 4048.92 1719.59 4048.92 1775.87 4034.38 1777.53 3963.21 1785.67 3879.55 1854.97 3920.62 1897.56 4001.24 1865.11 4069.69 1884.88 4034.71 1838.07" style="fill:none;stroke:#f3587d;stroke-miterlimit:10;stroke-width:5px"/><polyline points="4036.23 1824.54 4034.38 1777.53 4137.58 1744.82 3996.68 1733.28 3978.43 1783.93 3844.57 1796.4 3879.55 1854.97 4025.58 1785.67 3867.38 1953.33 3914.54 1977.16 3922.14 1913.66 3814.14 1923.42 3870.43 1865.11 3760.9 1854.97 3836.96 1808.83 3703.1 1838.07 3703.1 1884.38 3725.92 1914.8 3836.96 1875.25 3803.5 1838.07 3776.12 1808.83 3736.57 2000.99 3732 1935.59 3798.93 1942.43 3771.55 2022.29 3861.3 2077.05 3794.37 2077.05 3879.55 2013.16 3978.43 1989.08 3800.45 1970.07 3750.26 1986.8 3777.64 2037.5 3662.03 2051.7 3636.17 2000.99 3570.76 2064.38 3742.65 2051.7 3576.34 2032.43 3570.76 2059.81 3464.79 2077.05 3499.27 1989.08 3561.13 1989.08 3524.62 1944.21 3597.64 1910.74 3740.62 1922.91 3632.12 1852.94 3694.99 1839.76 3627.05 1856.99 3560.12 2000.99 3565.19 1882.35 3626.03 1851.92" style="fill:none;stroke:#f3587d;stroke-miterlimit:10;stroke-width:5px"/><polyline points="3424.23 2046.63 3464.79 2077.05 3499.27 1989.08 3429.3 2040.54 3433.36 1989.08 3499.27 1927.98 3565.19 1882.35 3524.62 1944.21 3494.71 1937.11 3504.34 1984.77 3523.61 1953.33" style="fill:none;stroke:#f3587d;stroke-miterlimit:10;stroke-width:5px"/><polyline points="4011.38 1381.39 3955.61 1342.35 4027.61 1342.35 3955.61 1233.33 4206.47 1228.26 4011.38 1158.29 3978.43 1303.31 3903.89 1316.49 4011.38 1330.18 3945.47 1339.81 3731.5 1239.42 3774.09 1212.04 3912 1239.42 3960.68 1297.22 3925.19 1297.22 3816.68 1158.29 3835.95 1211.02 3731.5 1097.45 3854.2 970.01 3938.71 1068.04 3865.69 1189.05 3844.06 1214.74 3920.45 1150.42 4012.4 1147.14 3944.12 1075.47 3917.07 1146.46 3923.16 1018.68 4010.37 1072.09 4059.05 1115.19 4049.92 1064.99 3950.2 1074.12 4056.34 1122.12 4012.4 1153.22" style="fill:none;stroke:#f3587d;stroke-miterlimit:10;stroke-width:5px"/><polyline points="3816.68 1158.29 3772.4 1150.42 3690.93 1024.43 3617.92 1024.43 3710.88 1084.26 3799.44 1097.45 3752.79 1000.43 3838.65 1000.43 3787.95 921.33 3923.16 1018.68" style="fill:none;stroke:#f3587d;stroke-miterlimit:10;stroke-width:5px"/><polygon points="3716.79 1240.43 3713.49 1215.33 3701.58 1124.83 3774.09 1212.04 3681.81 1184.99 3701.58 1081.22 3646.82 1072.09 3675.72 1175.7 3660.51 1228.26 3706.14 1216.09 3627.05 1141.56 3560.12 1150.42 3617.92 1175.7 3654.43 1220.66 3540.34 1175.7 3651.38 1175.7 3716.79 1240.43" style="fill:none;stroke:#f3587d;stroke-miterlimit:10;stroke-width:5px"/><polyline points="3774.09 899.7 3760.64 889.78 3391.78 617.78 3359.33 603.59 3320.79 589.39 3300.51 601.56 3290.37 615.76 3290.37 644.15 3290.37 682.68 3316.74 721.22 3383.66 800.32 3617.92 1024.43 3643.27 984.88 3586.48 921.33 3584.93 992.87 3685.86 970.01 3731.5 950.4 3720.34 907.81 3770.54 936.21 3742.65 970.01 3665.58 879.42 3690.93 1024.43" style="fill:none;stroke:#f3587d;stroke-miterlimit:10;stroke-width:5px"/><polyline points="3716.28 879.42 3657.21 889.56 3671.66 832.77 3617.92 792.21 3558.09 792.21 3617.92 855.08 3697.63 843.32 3617.92 818.57 3558.09 749.62 3540.34 775.98 3496.56 695.05 3416.12 763.81 3426.36 643.29 3361.36 654.29 3359.33 603.59 3487.1 806.91 3438.43 822.63 3446.54 771.92 3373.82 788.68 3359.33 694.85 3290.37 670.52 3318.76 631.98 3369.47 690.8 3320.79 589.39" style="fill:none;stroke:#f3587d;stroke-miterlimit:10;stroke-width:5px"/><polygon points="3466.82 830.74 3522.63 933.27 3442.79 856.88 3466.82 830.74" style="fill:none;stroke:#f3587d;stroke-miterlimit:10;stroke-width:5px"/><polygon points="3540.34 907.81 3570.28 978.86 3570.28 921.33 3540.34 907.81" style="fill:none;stroke:#f3587d;stroke-miterlimit:10;stroke-width:5px"/><line x1="3522.63" y1="889.56" x2="3466.82" y2="830.74" style="fill:none;stroke:#f3587d;stroke-miterlimit:10;stroke-width:5px"/><polyline points="3268.06 1013.28 3290.37 1017.33 3295.93 1036.94 3258.02 983.74" style="fill:none;stroke:#f3587d;stroke-miterlimit:10;stroke-width:5px"/><polyline points="3606.61 1201.82 3570.28 1154.87 3393.21 1100 3494.72 1156.26 3367.44 1072.09 3295.93 1036.94 3327.89 1039.81" style="fill:none;stroke:#f3587d;stroke-miterlimit:10;stroke-width:5px"/><path d="M3260.41,2135.79l87.21-13.15q-9.12,40.55-18.25,81.09l-79.1-116.62-20.28,62.2,30.42-13.52L3230,2149.31c-1.26-2.09-17.78-30.56-4.06-55.1a45.2,45.2,0,0,1,14.2-15.21,36.12,36.12,0,0,1,40.57-10.14l58.81,18.25,66.93,25.46L3570.92,2168l-97.89,2.24-26-36.51,10.15,85.35h88.49l15,75.38,47.63-34L3445,2219.11s-48.68,18.09-66.93,25.19,12.17-53.75,12.17-53.75l42.89,86.2h70.68l46.65,53L3485.05,2305l-27.9-10.54-133.86-75.38-93.3-69.8c14.91,5.39,18.15,10.27,18.35,13.73.23,3.94-3.47,6.44-4.15,13.31a23,23,0,0,0,1.58,10.63l58.25,42.1,96.34,60.85L3530.67,2355" transform="translate(9.67 -1179.3)" style="fill:none;stroke:#f3587d;stroke-miterlimit:10;stroke-width:5px"/><polygon points="4399.78 1639.98 4381.52 1658.23 4357.69 1629.33 4399.78 1639.98" style="fill:none;stroke:#f3587d;stroke-miterlimit:10;stroke-width:5px"/><polygon points="3879.55 1394.99 3827.83 1426.85 3787.27 1311.42 3842.03 1392.54 3879.55 1394.99" style="fill:none;stroke:#f3587d;stroke-miterlimit:10;stroke-width:5px"/><path d="M3913.48,2122.64" transform="translate(9.67 -1179.3)" style="fill:none;stroke:#f3587d;stroke-miterlimit:10;stroke-width:5px"/><polygon points="4206.47 1010.34 4254.51 1039.81 4254.51 983.74 4219.27 1064.99 4206.47 1010.34" style="fill:none;stroke:#f3587d;stroke-miterlimit:10;stroke-width:5px"/></g><polygon points="1906.06 591.39 2009.49 860.15 2039.91 644.07 1906.06 591.39" style="fill:none;stroke:#42afa9;stroke-miterlimit:10;stroke-width:5px"/><polygon points="1422.34 741.47 1516.62 650.15 1607.91 552.8 1508.02 591.39 1422.34 741.47" style="fill:none;stroke:#42afa9;stroke-miterlimit:10;stroke-width:5px"/><polygon points="1854.34 233.36 1781.16 297.25 1817.75 318.54 1854.34 233.36" style="fill:none;stroke:#42afa9;stroke-miterlimit:10;stroke-width:5px"/><polygon points="1677.89 385.47 1607.91 552.8 1817.75 318.54 1677.89 385.47" style="fill:none;stroke:#42afa9;stroke-miterlimit:10;stroke-width:5px"/><polyline points="1781.16 297.25 1677.89 385.47 1508.02 591.39 1734.38 397.64 1854.34 388.52 1854.34 248.57 1985.15 275.95 1906.06 190.77 1985.15 151.22 1985.15 257.7 2088.59 336.8 1817.75 318.54 2198.11 151.22 2417.15 136.01 2530.2 212.07 2282.62 199.9 2420.53 136.01" style="fill:none;stroke:#42afa9;stroke-miterlimit:10;stroke-width:5px"/><polygon points="2279.91 50.49 2282.62 199.9 2171.07 142.43 2279.91 50.49" style="fill:none;stroke:#42afa9;stroke-miterlimit:10;stroke-width:5px"/><path d="M2213.45,1244l-52.06,77.74,128.45-62.19,147.39,19.6-60.17-68.28L2272.61,1223,2210.07,1242,1972,1332.28l182.67-11.22,282.6-38.54,44.78-15.89L2387.7,1219l-10.64-8.11a680.54,680.54,0,0,1,117.63-7.1c16,.46,26.07,1.34,81.8,4.39,30,1.65,54.67,2.9,71.33,3.72l-127.29,35-96.32-17.07,178,85.52,45.64,71.49,73-101.91-109.52,30.42,12.17-51.72-82.14-12.17,120.17-36.5L2631.08,1256l89.75,19.77q-2.19-28.73-4.39-57.46l-48.85-33.81,6.09,53.24s-24.34-18.93,59.32-7.94,126.25,21.63,126.25,21.63l-62.36,71.5-41.07-50.2L2733,1294v-64.22l120.17,97.69,47.15-33.47-112.56-8.36,123.21-25.1,62.37,25.1-10.65,51L2914,1295.54l86.71,9,47.15,20-77.57,28.9s41.07,82.14,44.11,94.31l44.11,7.6-19.77,62.37-3.05-8.91-18.25-53.46-56.28-13.69v-90.5L2868.38,1329l152.11,174.93q13.7-89.75,27.38-179.49" transform="translate(9.67 -1179.3)" style="fill:none;stroke:#42afa9;stroke-miterlimit:10;stroke-width:5px"/><path d="M2217.17,1543l-87.55,39,87.55,33Z" transform="translate(9.67 -1179.3)" style="fill:none;stroke:#42afa9;stroke-miterlimit:10;stroke-width:5px"/><path d="M3078.3,1341.17q34.72,78.33,69.46,156.68l72.76-73.4Z" transform="translate(9.67 -1179.3)" style="fill:none;stroke:#42afa9;stroke-miterlimit:10;stroke-width:5px"/><polygon points="3352.14 352.09 3230.19 245.15 3295.93 552.8 3352.14 352.09" style="fill:none;stroke:#42afa9;stroke-miterlimit:10;stroke-width:5px"/><polygon points="3081.89 390.04 3199.01 461.53 3199.01 390.04 3081.89 390.04" style="fill:none;stroke:#42afa9;stroke-miterlimit:10;stroke-width:5px"/><polygon points="3007.35 425.78 3199.01 461.53 3081.89 390.04 3007.35 425.78" style="fill:none;stroke:#42afa9;stroke-miterlimit:10;stroke-width:5px"/><polygon points="3157.43 318.54 3275.32 456.37 3254.61 359.44 3157.43 318.54" style="fill:none;stroke:#42afa9;stroke-miterlimit:10;stroke-width:5px"/><path d="M3306.46,1517.62l-149.07-19.77q-4.62-55.45-9.26-110.89l72.39,37.49,121.94,106.94Z" transform="translate(9.67 -1179.3)" style="fill:none;stroke:#42afa9;stroke-miterlimit:10;stroke-width:5px"/><path d="M3286.25,1732.1l195.14-17.24-22.31-31.44-116.62-152,85.7,177.89-109.53-48.67-6.08-100.4-67.61-21.47,59.44,128.64,99.44-35.63,41.07,136.94,50.7-35.58,42.59,51.72,35.5,51.72,57.8,76.06-175.94-93.81,82.64-34,21.3,64.9-45.64,23.33,136.4,62.87-90.76-86.2-86.67-100.63-6.63,40.8,57.81-22.31" transform="translate(9.67 -1179.3)" style="fill:none;stroke:#42afa9;stroke-miterlimit:10;stroke-width:5px"/><polygon points="1638.34 1462.01 1560.08 1697.25 1753.33 1583.16 1638.34 1462.01" style="fill:none;stroke:#42afa9;stroke-miterlimit:10;stroke-width:5px"/><polygon points="1393.43 1502.74 1393.43 1497.92 1393.43 1369.14 1638.34 1462.01 1496.84 1485.54 1393.43 1502.74" style="fill:none;stroke:#42afa9;stroke-miterlimit:10;stroke-width:5px"/><polygon points="1311.42 1225.74 1315.69 1233.2 1393.43 1369.14 1335.13 1448.23 1311.42 1225.74" style="fill:none;stroke:#42afa9;stroke-miterlimit:10;stroke-width:5px"/><polygon points="1363.52 1579.63 1335.13 1448.23 1385.83 1497.92 1363.52 1579.63" style="fill:none;stroke:#42afa9;stroke-miterlimit:10;stroke-width:5px"/><polygon points="3739.52 1253.53 3739.52 1303.31 3731.5 1396.52 3722.28 1507.05 3674.62 1363.14 3725.32 1416.12 3739.52 1253.53" style="fill:none;stroke:#42afa9;stroke-miterlimit:10;stroke-width:5px"/><polygon points="3725.32 1277.87 3674.62 1363.14 3617.92 1206.27 3725.32 1277.87" style="fill:none;stroke:#42afa9;stroke-miterlimit:10;stroke-width:5px"/><polyline points="3383.58 1416.12 3290.37 1440.12 3290.37 1334.74 3555.31 1400.57 3445.43 1464.46 3391.69 1416.12 3613.77 1381.39 3674.62 1363.14 3617.92 1206.27 3555.31 1392.54 3613.77 1556.07 3678.67 1525.39 3725.32 1277.87 3739.52 1253.53" style="fill:none;stroke:#42afa9;stroke-miterlimit:10;stroke-width:5px"/><polyline points="3344.03 1380.29 3290.37 1334.74 3611.09 1548.57 3540.34 1733.28 3627.97 1667.78 3619.67 1553.28 3657.21 1567.39 3641.66 1686.04 3690.34 1574.4 3722.28 1507.05 3678.67 1525.39 3565.19 1854.97 3629.49 1745.36 3626.45 1695.25 3472.82 1581.16 3445.43 1464.46 3349.6 1594.85 3413.49 1796.4 3451.27 1801.64 3471.29 1594.85 3358.73 1594.85 3481.94 1594.85 3529.1 1796.4 3494.71 1873.14 3606.61 1695.25 3529.1 1884.88 3494.71 1882.35 3451.27 1809.25 3533.66 1743.84 3540.34 1781.87" style="fill:none;stroke:#42afa9;stroke-miterlimit:10;stroke-width:5px"/><polyline points="3413.49 1807.73 3386.11 1953.33 3430.22 1947.88 3451.27 1809.25 3506.32 1914.8 3375.46 1961.36 3369.38 2059.81 3424.23 1961.36 3480.42 1989.08 3494.71 1865.53 3559.58 1890.9 3500.16 1964.1 3398.28 2084.57 3313.1 2162.15 3157.43 2274.71 3120.93 2292.97 3074.28 2323.39 3056.03 2303.11 3094.56 2294.99 3163.52 2209.81 3196.3 2198.24 3266.96 2173.3 3348.08 2090.15 3384.59 2077.05 3404.87 2035.39 3321.72 2077.05 3195.97 2122.6 2968.82 2224.01 2999.24 2272.68 3135.13 2226.04 3204.08 2157.08 3290.37 2102.4 3264.2 2150.99 3137.15 2191.56 3084.42 2221.98 2968.82 2205.76 3202.05 1989.08 3350.11 2049.59 3198 1897.56 3372.42 1942.43 3222.34 1989.08" style="fill:none;stroke:#42afa9;stroke-miterlimit:10;stroke-width:5px"/><polyline points="3187.86 1897.56 3187.86 2224.01 3227.55 2224.01 3151.35 2258.49 2885.66 2396.4 2999.24 2272.68 3074.28 2323.39 3015.46 2347.73 2912.03 2311.22 2839.01 2353.81 2867.41 2396.4 2749.77 2424.8 2644.31 2438.99 2841.04 2323.39 2968.82 2224.01" style="fill:none;stroke:#42afa9;stroke-miterlimit:10;stroke-width:5px"/><polygon points="2658.51 2065.56 2826.84 2323.39 2772.08 2402.49 2622 2351.78 2772.08 2270.66 2737.22 2384.4 2573.32 2280.8 2509.67 2195.61 2759.91 2234.02 2461.77 2353.81 2488.14 2278.77 2488.14 2197.64 2658.51 2065.56" style="fill:none;stroke:#42afa9;stroke-miterlimit:10;stroke-width:5px"/><polyline points="2644.31 2438.99 2560.14 2451.16 2438.45 2451.16 2438.45 2423.78 2461.77 2353.81 2605.77 2438.99 2622 2351.78 2389.77 2351.78 2488.14 2278.77 2488.14 2197.64 2280.25 2197.64 2644.31 2079.05" style="fill:none;stroke:#42afa9;stroke-miterlimit:10;stroke-width:5px"/><path d="M2033.28,3239.11l249.47,23.24h0L2158,3320.15Z" transform="translate(9.67 -1179.3)" style="fill:none;stroke:#42afa9;stroke-miterlimit:10;stroke-width:5px"/><polygon points="2106.84 2168.28 1960.82 2234.02 2042.96 2059.81 2106.84 2168.28" style="fill:none;stroke:#42afa9;stroke-miterlimit:10;stroke-width:5px"/><polyline points="2167.69 2265.11 2106.84 2168.28 2167.69 2280.8 2255.91 2308.18 2280.25 2197.64 2167.69 2140.85 2122.05 2168.28" style="fill:none;stroke:#42afa9;stroke-miterlimit:10;stroke-width:5px"/><polygon points="2438.45 2451.16 2231.58 2414.66 2362.39 2375.11 2438.45 2451.16" style="fill:none;stroke:#42afa9;stroke-miterlimit:10;stroke-width:5px"/><polygon points="2389.77 2351.78 2255.91 2308.18 2362.39 2375.11 2389.77 2351.78" style="fill:none;stroke:#42afa9;stroke-miterlimit:10;stroke-width:5px"/><line x1="2438.45" y1="2451.16" x2="2389.77" y2="2351.78" style="fill:none;stroke:#42afa9;stroke-miterlimit:10;stroke-width:5px"/><polyline points="2222.45 2384.24 2141.36 2380.76 2143.35 2351.78 2042.96 2308.18 1997.32 2323.39 2064.25 2351.78 2231.58 2414.66 2240.72 2375.11 2322.84 2438.99 2610.58 2413.14 2461.77 2426.83" style="fill:none;stroke:#42afa9;stroke-miterlimit:10;stroke-width:5px"/><path d="M2074.86,3531.08l-111-102.17,23.74,73.78-74-47.66-129.8-79.1L1939,3413.32l118.65,74.16s39.55,24.39,126.25-43.07l86.71-67.47-45.64,204.85-41.07-113.67-232.73-41.49L1908.55,3308l124.73-68.88" transform="translate(9.67 -1179.3)" style="fill:none;stroke:#42afa9;stroke-miterlimit:10;stroke-width:5px"/><polyline points="1710.34 2086.09 1948.65 2234.02 1784.36 2194.6 1854.34 2110.43 1704.25 2086.09 1651.52 2086.09 1717.43 2146.92 1775.24 2189.53" style="fill:none;stroke:#42afa9;stroke-miterlimit:10;stroke-width:5px"/><polygon points="1669.77 2165.19 1717.43 2265.11 1763.07 2215.15 1669.77 2165.19" style="fill:none;stroke:#42afa9;stroke-miterlimit:10;stroke-width:5px"/><polygon points="1683.97 1884.35 1683.97 2002.94 1594.73 1927.9 1683.97 1871.11 1560.08 1697.25 1491.29 1718.99 1683.97 1884.35" style="fill:none;stroke:#42afa9;stroke-miterlimit:10;stroke-width:5px"/><polygon points="1478.11 1839.67 1483.18 1714.94 1594.73 1927.9 1478.11 1839.67" style="fill:none;stroke:#42afa9;stroke-miterlimit:10;stroke-width:5px"/><polygon points="1430.45 1735.28 1478.11 1839.67 1483.18 1714.94 1446.16 1688.57 1430.45 1735.28" style="fill:none;stroke:#42afa9;stroke-miterlimit:10;stroke-width:5px"/><polyline points="1424.36 1668.29 1430.45 1735.28 1446.16 1688.57 1387.86 1630.77 1422.34 1729.14 1483.18 1721.02" style="fill:none;stroke:#42afa9;stroke-miterlimit:10;stroke-width:5px"/><polyline points="1471.01 1591.22 1387.86 1502.74 1496.84 1485.54 1393.43 1383.39" style="fill:none;stroke:#42afa9;stroke-miterlimit:10;stroke-width:5px"/><polyline points="1555.18 1688.57 1496.84 1491.84 1452.76 1683.02 1412.82 1655.52 1491.29 1480.07" style="fill:none;stroke:#42afa9;stroke-miterlimit:10;stroke-width:5px"/><polyline points="1363.52 1579.63 1385.83 1638.88 1387.86 1502.74 1417.27 1630.77" style="fill:none;stroke:#42afa9;stroke-miterlimit:10;stroke-width:5px"/><polyline points="1076.53 1355.95 1131.8 1396.99 1145.49 1320.7 1257.04 1305.31 1311.42 1371.14 1279.37 1376.43 1237.26 1383.39 1248.93 1448.23 1193.98 1435.94 1311.42 1502.74 1319.91 1433.08 1279.85 1478.38" style="fill:none;stroke:#f3587d;stroke-miterlimit:10;stroke-width:5px"/><path d="M1205.79,1975.48" transform="translate(9.67 -1179.3)" style="fill:none;stroke:#6a43b3;stroke-miterlimit:10;stroke-width:3px;fill-rule:evenodd"/><path d="M2635.12,1995.17a114.22,114.22,0,0,1,0,132.46l28.87,22a150.57,150.57,0,0,0-2.17-179.18l-16.56,14.92Z" transform="translate(9.67 -1179.3)" style="fill:none;stroke:#6a43b3;stroke-miterlimit:10;stroke-width:3px;fill-rule:evenodd"/><path d="M2687.52,2167.45l-97.1-73.85a56.11,56.11,0,0,0,2.77-64.15l46.47-42,48.65-45.54a7.9,7.9,0,0,0,.19-11.29l-6.72-6.73a191.92,191.92,0,0,0-130.32-57l.2-26.73a16.43,16.43,0,0,0-.39-5.35,14,14,0,0,0-2.58-4.75,11.9,11.9,0,0,0-4.35-3.17,11.78,11.78,0,0,0-10.28,0,14,14,0,0,0-4.35,3.17,11.62,11.62,0,0,0-2.57,4.56,10,10,0,0,0-.4,5.34l-.19,27.52a187.41,187.41,0,0,0-34.61,6.74l.2-34.26a16.09,16.09,0,0,0-.4-5.34,13.72,13.72,0,0,0-2.57-4.76,11.76,11.76,0,0,0-4.35-3.16,11.7,11.7,0,0,0-10.28,0,13.66,13.66,0,0,0-4.35,3.16,11.62,11.62,0,0,0-2.57,4.56,9.77,9.77,0,0,0-.4,5.34l-.59,43.76a193,193,0,0,0,74.75,369.26l141.39.59a7.94,7.94,0,0,0,7.91-7.92V2174A8.39,8.39,0,0,0,2687.52,2167.45Zm-143.37,50.89a158.59,158.59,0,0,1-78.12-296l-.19,52.07a16.35,16.35,0,0,0,.39,5.34,13.89,13.89,0,0,0,2.57,4.76,12,12,0,0,0,4.35,3.17,11.81,11.81,0,0,0,10.29,0,14,14,0,0,0,4.35-3.17,11.88,11.88,0,0,0,2.57-4.56,9.86,9.86,0,0,0,.39-5.34l.2-63.95a158.52,158.52,0,0,1,54.38-9.31,156.36,156.36,0,0,1,94.53,31.88,4,4,0,0,1,.39,6.13l-74,67.92a56.42,56.42,0,0,0-21.35-4.36,58.05,58.05,0,0,0-23.73,4.95,56.07,56.07,0,0,0-19.38,14.45,58.62,58.62,0,0,0-11.67,21.19,55.51,55.51,0,0,0-1.78,24.15,56.52,56.52,0,0,0,48,48.51,55,55,0,0,0,24.13-1.78l94.52,71.87a4.15,4.15,0,0,1,1.59,3.17l-.2,25.34a4,4,0,0,1-4,4Zm23.13-158.4a23.66,23.66,0,0,1-3.75,12.48,23,23,0,0,1-10.09,8.31,20.64,20.64,0,0,1-12.85,1.19,24,24,0,0,1-11.47-6.14,21.72,21.72,0,0,1-6.13-11.48,22,22,0,0,1,1.38-12.87,23,23,0,0,1,8.31-10.1,23.54,23.54,0,0,1,12.45-3.76,22.29,22.29,0,0,1,22.15,22.37Z" transform="translate(9.67 -1179.3)" style="fill:none;stroke:#6a43b3;stroke-miterlimit:10;stroke-width:3px;fill-rule:evenodd"/><path d="M2235.08,1995.76c3.64,34,20,146.42,114.6,235.27,72.71,68.32,152.41,85.81,169.35,89.24,116.52,23.58,208.52-22,235.27-36.51-9.34,27-23.84,67.41-43.43,115.67-40,98.55-74.42,163.87-86.38,188.56-27.84,57.49-54.49,143.63-55.71,274.35-.27,28.12.65,58.31,3,90.72H2442c11.81-143.92-6.05-254.53-24.34-328.57-34.12-138.1-81.47-187.56-136.28-387.3A1568,1568,0,0,1,2235.08,1995.76Z" transform="translate(9.67 -1179.3)" style="fill:none;stroke:#6a43b3;stroke-miterlimit:10;stroke-width:3px;fill-rule:evenodd"/><path d="M2302.4,2218.23c7.84,27.26,17.19,58.56,28.15,93.11,10.82,34.13,18.95,58,31.29,94.11,25.3,74,38,111,40.7,110.32,3.94-1.06-13.34-63.38-25.48-163.05-3.65-30-5.81-54.88-7.1-72-7.4-5.4-15-11.34-22.69-17.87A400.08,400.08,0,0,1,2302.4,2218.23Z" transform="translate(9.67 -1179.3)" style="fill:none;stroke:#6a43b3;stroke-miterlimit:10;stroke-width:3px;fill-rule:evenodd"/><rect x="2427.29" y="1773.76" width="175.44" height="47.66" rx="16.73" style="fill:none;stroke:#6a43b3;stroke-miterlimit:10;stroke-width:3px"/><rect x="2404.98" y="1821.42" width="218.03" height="47.66" rx="16.73" style="fill:none;stroke:#6a43b3;stroke-miterlimit:10;stroke-width:3px"/><polygon points="2524.92 1714.94 2586 1773.76 2576.96 1697.25 2509.67 1773.76 2554.61 1638.2 2576.96 1570.81 2443.62 1526.46 2509.67 1609.81 2478 1426.85 2602.73 1448.23 2524.92 1532.4 2454.55 1638.88 2483.07 1773.76 2524.92 1714.94" style="fill:none;stroke:#6a43b3;stroke-miterlimit:10;stroke-width:3px;fill-rule:evenodd"/><line x1="2514" y1="1615.56" x2="2451.63" y2="1773.76" style="fill:none;stroke:#6a43b3;stroke-miterlimit:10;stroke-width:3px"/><polygon points="2478 1426.85 2683.94 1305.31 2379.63 1101.42 2462.28 1284.7 2412.21 1336.47 2478 1426.85" style="fill:none;stroke:#6a43b3;stroke-miterlimit:10;stroke-width:3px;fill-rule:evenodd"/><polygon points="2523.17 1253.53 2720.54 1220.13 2509.67 1363.14 2523.17 1253.53" style="fill:none;stroke:#6a43b3;stroke-miterlimit:10;stroke-width:3px;fill-rule:evenodd"/><polygon points="2623.01 1383.39 2532.27 1428.85 2576.96 1570.81 2612.3 1462.01 2623.01 1383.39" style="fill:none;stroke:#6a43b3;stroke-miterlimit:10;stroke-width:3px;fill-rule:evenodd"/><path d="M2674.27,2484.61" transform="translate(9.67 -1179.3)" style="fill:none;stroke:#6a43b3;stroke-miterlimit:10;stroke-width:3px;fill-rule:evenodd"/><polygon points="2608.75 1147.34 2582.8 1237.54 2659.01 1187.7 2608.75 1147.34" style="fill:none;stroke:#6a43b3;stroke-miterlimit:10;stroke-width:3px;fill-rule:evenodd"/><polygon points="2700.45 1220.13 2659.01 1187.7 2702.14 1130.69 2700.45 1220.13" style="fill:none;stroke:#6a43b3;stroke-miterlimit:10;stroke-width:3px;fill-rule:evenodd"/><polygon points="2738.16 1175.41 2700.45 1220.13 2732.83 1119.38 2738.16 1175.41" style="fill:none;stroke:#6a43b3;stroke-miterlimit:10;stroke-width:3px;fill-rule:evenodd"/><polygon points="2266.96 957.34 2283.29 970.3 2283.29 948.79 2266.96 957.34" style="fill:none;stroke:#6a43b3;stroke-miterlimit:10;stroke-width:3px;fill-rule:evenodd"/><polygon points="2283.29 996.97 2283.29 959.55 2301.55 996.97 2291.02 1057.89 2275.13 989.36 2283.29 996.97" style="fill:none;stroke:#6a43b3;stroke-miterlimit:10;stroke-width:3px;fill-rule:evenodd"/><polygon points="2301.55 1057.89 2318.28 1031.4 2283.29 996.97 2301.55 1057.89" style="fill:none;stroke:#6a43b3;stroke-miterlimit:10;stroke-width:3px;fill-rule:evenodd"/><polyline points="2303.53 1101.42 2303.53 1074.08 2288.34 1046.34 2330.45 1130.69 2325.8 1169.75 2356.31 1206.27 2379.63 1249.88 2443.62 1454.83 2478 1426.85 2443.62 1526.46 2443.62 1477.1 2419.51 1415.91 2370 1249.47 2353.95 1243.46 2354.79 1220.13 2350.15 1162.81" style="fill:none;stroke:#6a43b3;stroke-miterlimit:10;stroke-width:3px;fill-rule:evenodd"/><polygon points="2435.41 1130.69 2412.78 1093.17 2379.63 1101.42 2435.41 1130.69" style="fill:none;stroke:#6a43b3;stroke-miterlimit:10;stroke-width:3px;fill-rule:evenodd"/><polygon points="2482.82 1130.69 2496.25 1169.75 2532.27 1159.73 2482.82 1130.69" style="fill:none;stroke:#6a43b3;stroke-miterlimit:10;stroke-width:3px;fill-rule:evenodd"/><polygon points="2570.79 1187.7 2532.27 1159.73 2529.48 1201.82 2570.79 1187.7" style="fill:none;stroke:#6a43b3;stroke-miterlimit:10;stroke-width:3px;fill-rule:evenodd"/><polyline points="2554.61 1145.16 2570.79 1187.7 2582.8 1237.54 2462.28 1284.7" style="fill:none;stroke:#6a43b3;stroke-miterlimit:10;stroke-width:3px;fill-rule:evenodd"/></svg>