<svg id="Layer_1" data-name="Layer 1" xmlns="http://www.w3.org/2000/svg" viewBox="0 0 5011.35 3034.79"><title>BOUNTY LINE ART 1</title><polygon points="11.19 1711.56 123.46 1675.73 92.36 1728.46 11.19 1711.56" style="fill:none;stroke:#f3587d;stroke-miterlimit:10;stroke-width:5px"/><polygon points="113.32 1819.05 155.23 1771.73 92.36 1728.46 113.32 1819.05" style="fill:none;stroke:#f3587d;stroke-miterlimit:10;stroke-width:5px"/><polygon points="92.36 1932.63 113.32 1819.05 183.63 1824.46 92.36 1932.63" style="fill:none;stroke:#f3587d;stroke-miterlimit:10;stroke-width:5px"/><polygon points="123.46 1988.74 121.55 1985.3 92.36 1932.63 199.18 1957.65 123.46 1988.74" style="fill:none;stroke:#f3587d;stroke-miterlimit:10;stroke-width:5px"/><polygon points="11.19 2221.65 51.8 2166.89 170.44 2083.73 270.84 2083.73 109.6 2152.69 11.19 2221.65" style="fill:none;stroke:#f3587d;stroke-miterlimit:10;stroke-width:5px"/><polyline points="280.98 1966.1 170.44 2083.73 249.54 2046.21 280.98 1972.18 339.8 2005.65 415.85 2049.25 434.11 1966.1 346.89 2002.6 257.65 2045.19 339.8 2092.86 409.77 2053.31 481.77 2114.15 338.78 2083.73 270.84 2076.63 270.84 2046.21 398.61 2048.24 477.71 2013.76 435.12 1960.69" style="fill:none;stroke:#f3587d;stroke-miterlimit:10;stroke-width:5px"/><polygon points="234.33 1932.63 240.42 2037.42 277.94 1960.69 234.33 1932.63" style="fill:none;stroke:#f3587d;stroke-miterlimit:10;stroke-width:5px"/><polygon points="390.5 1927.56 239.76 1936.13 386.44 1839.34 390.5 1927.56" style="fill:none;stroke:#f3587d;stroke-miterlimit:10;stroke-width:5px"/><polygon points="366.16 1773.76 386.44 1839.34 277.94 1796.74 366.16 1773.76" style="fill:none;stroke:#f3587d;stroke-miterlimit:10;stroke-width:5px"/><polygon points="320.19 1688.58 277.94 1796.74 260.7 1752.8 320.19 1688.58" style="fill:none;stroke:#f3587d;stroke-miterlimit:10;stroke-width:5px"/><polygon points="234.33 1702.1 256.13 1757.53 183.63 1824.46 155.23 1771.73 251.23 1756.86 234.33 1702.1" style="fill:none;stroke:#f3587d;stroke-miterlimit:10;stroke-width:5px"/><polygon points="183.63 1678.43 234.33 1702.1 315.13 1576.69 222.7 1624.45 123.46 1675.73 183.63 1678.43" style="fill:none;stroke:#f3587d;stroke-miterlimit:10;stroke-width:5px"/><polyline points="224.87 1627.05 183.63 1678.43 228.75 1627.56 367.18 1623.34 315.13 1576.69 449.32 1600.01 449.32 1658.15 370.89 1623 441.88 1604.07 452.02 1746.04 510.16 1746.04 481.77 1706.83 453.37 1656.13 510.16 1675.73 448.64 1746.04" style="fill:none;stroke:#f3587d;stroke-miterlimit:10;stroke-width:5px"/><polygon points="611.57 1746.04 510.16 1746.04 510.16 1675.73 611.57 1746.04" style="fill:none;stroke:#f3587d;stroke-miterlimit:10;stroke-width:5px"/><polygon points="523.35 1576.69 510.16 1675.73 588.75 1626.21 588.75 1541.7 523.35 1576.69" style="fill:none;stroke:#f3587d;stroke-miterlimit:10;stroke-width:5px"/><path d="M630.8,2573.85l-51.72,34.3Z" transform="translate(9.67 -981.95)" style="fill:none;stroke:#f3587d;stroke-miterlimit:10;stroke-width:5px"/><polyline points="470.11 1511.28 481.77 1476.29 390.5 1535.62 467.06 1520.41 549.46 1506.72 640.47 1591.9 588.75 1541.7 614.61 1452.58 555.8 1501.65 487.85 1484.41 515.49 1464.63 614.61 1452.58 634.56 1384.35 510.16 1464.63" style="fill:none;stroke:#f3587d;stroke-miterlimit:10;stroke-width:5px"/><polygon points="588.75 1932.63 510.16 2016.29 611.57 2046.72 510.16 2007.17 521.82 2083.73 588.75 1932.63" style="fill:none;stroke:#f3587d;stroke-miterlimit:10;stroke-width:5px"/><polygon points="728.7 1875.84 726.71 1882.98 698.27 1985.03 698.27 2054.32 815.4 2054.32 708.92 1988.74 775.85 1965.08 728.7 1875.84" style="fill:none;stroke:#f3587d;stroke-miterlimit:10;stroke-width:5px"/><polygon points="67.32 2221.65 53.82 2305.82 123.8 2253.08 67.32 2221.65" style="fill:none;stroke:#f3587d;stroke-miterlimit:10;stroke-width:5px"/><polygon points="92.36 2054.32 53.82 2074.6 19.34 2054.32 92.36 2054.32" style="fill:none;stroke:#f3587d;stroke-miterlimit:10;stroke-width:5px"/><polygon points="53.82 1875.84 19.34 1887.73 19.34 1857.59 53.82 1875.84" style="fill:none;stroke:#f3587d;stroke-miterlimit:10;stroke-width:5px"/><polygon points="92.36 1561.48 92.36 1600.01 53.82 1576.69 92.36 1561.48" style="fill:none;stroke:#f3587d;stroke-miterlimit:10;stroke-width:5px"/><polygon points="332.19 2163.84 366.16 2186.15 390.5 2163.84 332.19 2163.84" style="fill:none;stroke:#f3587d;stroke-miterlimit:10;stroke-width:5px"/><polygon points="510.16 2186.15 629.82 2186.15 549.46 2152.69 510.16 2186.15" style="fill:none;stroke:#f3587d;stroke-miterlimit:10;stroke-width:5px"/><polyline points="491.91 2114.15 560.87 2114.15 640.47 2152.69 815.4 2169.42 735.29 2114.15 629.82 2141.79" style="fill:none;stroke:#f3587d;stroke-miterlimit:10;stroke-width:5px"/><polygon points="815.4 2054.32 735.29 2114.15 822.5 2114.15 815.4 2054.32" style="fill:none;stroke:#f3587d;stroke-miterlimit:10;stroke-width:5px"/><polyline points="809.32 2242.94 882.33 2251.05 844.81 2301.76 802.22 2244.97 873.77 2287.56 873.77 2216.57 815.4 2216.57 802.22 2250.04" style="fill:none;stroke:#f3587d;stroke-miterlimit:10;stroke-width:5px"/><polyline points="611.57 2046.72 543.12 1936.13 593.32 1926.55 510.16 2007.17 537.04 1943.28" style="fill:none;stroke:#f3587d;stroke-miterlimit:10;stroke-width:5px"/><polygon points="822.5 2114.15 941.65 2084.24 941.65 2141.79 822.5 2114.15" style="fill:none;stroke:#f3587d;stroke-miterlimit:10;stroke-width:5px"/><polygon points="815.4 2169.42 956.87 2200.35 882.33 2152.69 815.4 2169.42" style="fill:none;stroke:#f3587d;stroke-miterlimit:10;stroke-width:5px"/><line x1="941.66" y1="2141.79" x2="882.33" y2="2152.69" style="fill:none;stroke:#f3587d;stroke-miterlimit:10;stroke-width:5px"/><polygon points="987.29 2176.52 1032.92 2200.35 956.87 2200.35 891.93 2186.15 987.29 2176.52" style="fill:none;stroke:#f3587d;stroke-miterlimit:10;stroke-width:5px"/><polyline points="611.57 1746.04 635.91 1773.76 687.63 1742.66 515.49 1675.73" style="fill:none;stroke:#f3587d;stroke-miterlimit:10;stroke-width:5px"/><polygon points="773.82 1724.74 687.63 1742.66 773.82 1780.52 773.82 1724.74" style="fill:none;stroke:#f3587d;stroke-miterlimit:10;stroke-width:5px"/><polygon points="852.92 1668.97 773.82 1724.74 917.82 1696.86 852.92 1668.97" style="fill:none;stroke:#f3587d;stroke-miterlimit:10;stroke-width:5px"/><polygon points="756.84 1626.21 852.92 1668.97 792.08 1591.9 756.84 1626.21" style="fill:none;stroke:#f3587d;stroke-miterlimit:10;stroke-width:5px"/><polygon points="756.84 1562.49 792.08 1591.9 756.84 1626.21 756.84 1562.49" style="fill:none;stroke:#f3587d;stroke-miterlimit:10;stroke-width:5px"/><polygon points="717.04 1541.7 756.84 1562.49 717.04 1496.58 717.04 1541.7" style="fill:none;stroke:#f3587d;stroke-miterlimit:10;stroke-width:5px"/><polygon points="614.61 1452.58 717.04 1496.58 698.27 1432.69 614.61 1452.58" style="fill:none;stroke:#f3587d;stroke-miterlimit:10;stroke-width:5px"/><polygon points="774.46 1296.8 683.57 1349.77 677.43 1354.1 695.74 1427.62 774.46 1362.21 670.39 1366.77 634.56 1384.35 687.63 1427.62 814.39 1427.62 774.46 1369.82 774.46 1296.8" style="fill:none;stroke:#f3587d;stroke-miterlimit:10;stroke-width:5px"/><polygon points="875.23 1271.45 774.46 1296.8 773.82 1357.65 875.23 1271.45" style="fill:none;stroke:#f3587d;stroke-miterlimit:10;stroke-width:5px"/><polygon points="913.77 1296.8 875.23 1271.45 961.43 1264.35 913.77 1296.8" style="fill:none;stroke:#f3587d;stroke-miterlimit:10;stroke-width:5px"/><polygon points="814.39 1427.62 952.3 1314.55 926.95 1371.08 814.39 1427.62" style="fill:none;stroke:#f3587d;stroke-miterlimit:10;stroke-width:5px"/><polygon points="792.08 1502.66 832.64 1474.27 804.88 1427.62 792.08 1502.66" style="fill:none;stroke:#f3587d;stroke-miterlimit:10;stroke-width:5px"/><polygon points="814.39 1534.1 792.08 1502.66 756.84 1562.49 814.39 1534.1" style="fill:none;stroke:#f3587d;stroke-miterlimit:10;stroke-width:5px"/><polyline points="845.82 1608.72 814.39 1534.1 792.08 1591.9 867.12 1661.36 971.57 1608.72 909.71 1576.69 983.74 1541.7 999.97 1597.73 961.43 1692.29 917.82 1696.86 969.54 1615.48 975.63 1576.69 991.85 1603.05" style="fill:none;stroke:#f3587d;stroke-miterlimit:10;stroke-width:5px"/><polygon points="952.3 1773.76 917.82 1696.86 961.43 1692.29 952.3 1773.76" style="fill:none;stroke:#f3587d;stroke-miterlimit:10;stroke-width:5px"/><path d="M873.67,2795.93l34.48-117.13Z" transform="translate(9.67 -981.95)" style="fill:none;stroke:#f3587d;stroke-miterlimit:10;stroke-width:5px"/><polyline points="952.3 1773.76 883.35 1813.98 773.82 1724.74 815.4 1839.34 875.23 1850.49 961.43 1894.6 952.3 1845.93 896.02 1824.46 867.63 1839.34 861.04 1932.63 815.4 1847.45" style="fill:none;stroke:#f3587d;stroke-miterlimit:10;stroke-width:5px"/><polygon points="976.64 2037.42 861.04 1932.63 961.43 1894.6 1007.06 1894.6 962.43 1918.94 962.43 1975.22 976.97 1976.89 1048.13 1985.03 1131.8 2054.32 1090.73 2096.91 1010.11 2064.46 941.65 2084.24 976.64 2037.42" style="fill:none;stroke:#f3587d;stroke-miterlimit:10;stroke-width:5px"/><polyline points="975.12 2023.9 976.97 1976.89 873.77 1944.18 1014.67 1932.63 1032.92 1983.29 1166.78 1995.76 1131.8 2054.32 985.77 1985.03 1143.96 2152.69 1096.81 2176.52 1089.2 2113.01 1197.2 2122.77 1140.92 2064.46 1250.44 2054.32 1174.39 2008.18 1308.25 2037.42 1308.25 2083.73 1285.43 2114.15 1174.39 2074.6 1207.85 2037.42 1235.23 2008.18 1274.78 2200.35 1279.35 2134.94 1212.42 2141.79 1239.8 2221.65 1150.05 2276.41 1216.98 2276.41 1131.8 2212.52 1032.92 2188.43 1210.89 2169.42 1261.09 2186.15 1233.71 2236.86 1349.32 2251.05 1375.18 2200.35 1440.59 2263.73 1268.7 2251.05 1435.01 2231.79 1440.59 2259.17 1546.56 2276.41 1512.08 2188.43 1450.22 2188.43 1486.73 2143.56 1413.71 2110.1 1270.73 2122.27 1379.23 2052.29 1316.36 2039.11 1384.3 2056.35 1451.23 2200.35 1446.16 2081.7 1385.32 2051.28" style="fill:none;stroke:#f3587d;stroke-miterlimit:10;stroke-width:5px"/><polyline points="1587.12 2245.98 1546.56 2276.41 1512.08 2188.43 1582.05 2239.9 1577.99 2188.43 1512.08 2127.34 1446.16 2081.7 1486.73 2143.56 1516.64 2136.46 1507.01 2184.13 1487.74 2152.69" style="fill:none;stroke:#f3587d;stroke-miterlimit:10;stroke-width:5px"/><polyline points="999.97 1580.74 1055.74 1541.7 983.74 1541.7 1055.74 1432.69 804.88 1427.62 999.97 1357.65 1032.92 1502.66 1107.46 1515.84 999.97 1529.53 1065.88 1539.17 1279.85 1438.77 1237.26 1411.39 1099.35 1438.77 1050.67 1496.58 1086.16 1496.58 1194.67 1357.65 1175.4 1410.38 1279.85 1296.8 1157.15 1169.36 1072.64 1267.39 1145.65 1388.41 1167.29 1414.1 1090.89 1349.77 998.95 1346.49 1067.23 1274.83 1094.28 1345.82 1088.19 1218.04 1000.98 1271.45 952.3 1314.55 961.43 1264.35 1061.15 1273.48 955.01 1321.48 998.95 1352.58" style="fill:none;stroke:#f3587d;stroke-miterlimit:10;stroke-width:5px"/><polyline points="1194.67 1357.65 1238.95 1349.77 1320.42 1223.79 1393.43 1223.79 1300.47 1283.62 1211.91 1296.8 1258.56 1199.79 1172.7 1199.79 1223.4 1120.69 1088.19 1218.04" style="fill:none;stroke:#f3587d;stroke-miterlimit:10;stroke-width:5px"/><polygon points="1294.56 1439.79 1297.86 1414.68 1309.77 1324.18 1237.26 1411.39 1329.54 1384.35 1309.77 1280.58 1364.53 1271.45 1335.63 1375.05 1350.84 1427.62 1305.2 1415.45 1384.3 1340.91 1451.23 1349.77 1393.43 1375.05 1356.92 1420.01 1471.01 1375.05 1359.96 1375.05 1294.56 1439.79" style="fill:none;stroke:#f3587d;stroke-miterlimit:10;stroke-width:5px"/><polyline points="1237.26 1099.05 1250.71 1089.14 1619.57 817.14 1652.02 802.94 1690.56 788.74 1710.84 800.91 1720.98 815.11 1720.98 843.5 1720.98 882.04 1694.61 920.58 1627.68 999.67 1393.43 1223.79 1368.08 1184.24 1424.87 1120.69 1426.42 1192.22 1325.49 1169.36 1279.85 1149.76 1291.01 1107.17 1240.81 1135.56 1268.7 1169.36 1345.77 1078.77 1320.42 1223.79" style="fill:none;stroke:#f3587d;stroke-miterlimit:10;stroke-width:5px"/><polyline points="1295.06 1078.77 1354.13 1088.91 1339.68 1032.13 1393.43 991.56 1453.26 991.56 1393.43 1054.43 1313.72 1042.67 1393.43 1017.93 1453.26 948.97 1471.01 975.34 1514.79 894.41 1595.23 963.17 1584.99 842.64 1649.99 853.65 1652.02 802.94 1524.25 1006.27 1572.92 1021.98 1564.81 971.28 1637.53 988.04 1652.02 894.21 1720.98 869.87 1692.59 831.34 1641.88 890.15 1690.56 788.74" style="fill:none;stroke:#f3587d;stroke-miterlimit:10;stroke-width:5px"/><polygon points="1544.53 1030.1 1488.72 1132.62 1568.56 1056.24 1544.53 1030.1" style="fill:none;stroke:#f3587d;stroke-miterlimit:10;stroke-width:5px"/><polygon points="1471.01 1107.17 1441.06 1178.21 1441.06 1120.69 1471.01 1107.17" style="fill:none;stroke:#f3587d;stroke-miterlimit:10;stroke-width:5px"/><line x1="1488.72" y1="1088.91" x2="1544.53" y2="1030.1" style="fill:none;stroke:#f3587d;stroke-miterlimit:10;stroke-width:5px"/><polyline points="1743.29 1212.63 1720.98 1216.69 1715.42 1236.3 1753.33 1183.09" style="fill:none;stroke:#f3587d;stroke-miterlimit:10;stroke-width:5px"/><polyline points="1404.74 1401.17 1441.06 1354.22 1618.14 1299.36 1516.62 1355.62 1643.91 1271.45 1715.42 1236.3 1683.46 1239.17" style="fill:none;stroke:#f3587d;stroke-miterlimit:10;stroke-width:5px"/><path d="M1731.59,2137.79l-87.21-13.15q9.12,40.55,18.25,81.09l79.1-116.62,20.28,62.2-30.42-13.52,30.42,13.52c1.26-2.09,17.78-30.56,4.06-55.1a45.2,45.2,0,0,0-14.2-15.21,36.12,36.12,0,0,0-40.57-10.14l-58.81,18.25-66.93,25.46L1421.08,2170l97.89,2.24,26-36.51-10.15,85.35h-88.49l-15,75.38-47.63-34L1547,2221.11s48.68,18.09,66.93,25.19-12.17-53.75-12.17-53.75l-42.89,86.2h-70.68l-46.65,53L1507,2307l27.9-10.54,133.86-75.38,93.3-69.8c-14.91,5.39-18.15,10.27-18.35,13.73-.23,3.94,3.47,6.44,4.15,13.31a23,23,0,0,1-1.58,10.63l-58.25,42.1-96.34,60.85L1461.33,2357" transform="translate(9.67 -981.95)" style="fill:none;stroke:#f3587d;stroke-miterlimit:10;stroke-width:5px"/><path d="M422.4,1533.39" transform="translate(9.67 -981.95)" style="fill:none;stroke:#f3587d;stroke-miterlimit:10;stroke-width:5px"/><polygon points="611.57 1839.34 629.82 1857.59 653.65 1828.69 611.57 1839.34" style="fill:none;stroke:#f3587d;stroke-miterlimit:10;stroke-width:5px"/><polygon points="1131.8 1594.35 1183.51 1626.21 1224.08 1510.77 1169.32 1591.9 1131.8 1594.35" style="fill:none;stroke:#f3587d;stroke-miterlimit:10;stroke-width:5px"/><path d="M1078.52,2124.64" transform="translate(9.67 -981.95)" style="fill:none;stroke:#f3587d;stroke-miterlimit:10;stroke-width:5px"/><polygon points="804.88 1209.69 756.84 1239.17 756.84 1183.09 792.08 1264.35 804.88 1209.69" style="fill:none;stroke:#f3587d;stroke-miterlimit:10;stroke-width:5px"/><polygon points="5000.16 1709.56 4887.89 1673.73 4918.99 1726.46 5000.16 1709.56" style="fill:none;stroke:#f3587d;stroke-miterlimit:10;stroke-width:5px"/><polygon points="4898.03 1817.05 4856.12 1769.73 4918.99 1726.46 4898.03 1817.05" style="fill:none;stroke:#f3587d;stroke-miterlimit:10;stroke-width:5px"/><polygon points="4918.99 1930.63 4898.03 1817.05 4827.72 1822.46 4918.99 1930.63" style="fill:none;stroke:#f3587d;stroke-miterlimit:10;stroke-width:5px"/><polygon points="4887.89 1986.74 4889.8 1983.3 4918.99 1930.63 4812.17 1955.65 4887.89 1986.74" style="fill:none;stroke:#f3587d;stroke-miterlimit:10;stroke-width:5px"/><polygon points="5000.16 2219.65 4959.55 2164.89 4840.9 2081.73 4740.51 2081.73 4901.75 2150.69 5000.16 2219.65" style="fill:none;stroke:#f3587d;stroke-miterlimit:10;stroke-width:5px"/><polyline points="4730.37 1964.1 4840.9 2081.73 4761.81 2044.21 4730.37 1970.18 4671.55 2003.65 4595.5 2047.25 4577.24 1964.1 4664.45 2000.6 4753.69 2043.19 4671.55 2090.86 4601.58 2051.31 4529.58 2112.15 4672.57 2081.73 4740.51 2074.63 4740.51 2044.21 4612.73 2046.24 4533.64 2011.76 4576.23 1958.69" style="fill:none;stroke:#f3587d;stroke-miterlimit:10;stroke-width:5px"/><polygon points="4777.02 1930.63 4770.93 2035.42 4733.41 1958.69 4777.02 1930.63" style="fill:none;stroke:#f3587d;stroke-miterlimit:10;stroke-width:5px"/><polygon points="4620.85 1925.56 4771.59 1934.13 4624.9 1837.34 4620.85 1925.56" style="fill:none;stroke:#f3587d;stroke-miterlimit:10;stroke-width:5px"/><polygon points="4645.19 1771.76 4624.9 1837.34 4733.41 1794.74 4645.19 1771.76" style="fill:none;stroke:#f3587d;stroke-miterlimit:10;stroke-width:5px"/><polygon points="4691.16 1686.58 4733.41 1794.74 4750.65 1750.8 4691.16 1686.58" style="fill:none;stroke:#f3587d;stroke-miterlimit:10;stroke-width:5px"/><polygon points="4777.02 1700.1 4755.21 1755.53 4827.72 1822.46 4856.12 1769.73 4760.12 1754.86 4777.02 1700.1" style="fill:none;stroke:#f3587d;stroke-miterlimit:10;stroke-width:5px"/><polygon points="4827.72 1676.43 4777.02 1700.1 4696.22 1574.69 4788.65 1622.45 4887.89 1673.73 4827.72 1676.43" style="fill:none;stroke:#f3587d;stroke-miterlimit:10;stroke-width:5px"/><polyline points="4786.48 1625.05 4827.72 1676.43 4782.6 1625.56 4644.17 1621.34 4696.22 1574.69 4562.03 1598.01 4562.03 1656.15 4640.45 1621 4569.47 1602.07 4559.33 1744.04 4501.19 1744.04 4529.58 1704.83 4557.98 1654.13 4501.19 1673.73 4562.71 1744.04" style="fill:none;stroke:#f3587d;stroke-miterlimit:10;stroke-width:5px"/><polygon points="4399.78 1744.04 4501.19 1744.04 4501.19 1673.73 4399.78 1744.04" style="fill:none;stroke:#f3587d;stroke-miterlimit:10;stroke-width:5px"/><polygon points="4488 1574.69 4501.19 1673.73 4422.6 1624.21 4422.6 1539.7 4488 1574.69" style="fill:none;stroke:#f3587d;stroke-miterlimit:10;stroke-width:5px"/><path d="M4361.2,2571.85l51.72,34.3Z" transform="translate(9.67 -981.95)" style="fill:none;stroke:#f3587d;stroke-miterlimit:10;stroke-width:5px"/><polyline points="4541.24 1509.28 4529.58 1474.29 4620.85 1533.62 4544.28 1518.41 4461.89 1504.72 4370.88 1589.9 4422.6 1539.7 4396.73 1450.58 4455.55 1499.65 4523.5 1482.41 4495.86 1462.63 4396.73 1450.58 4376.79 1382.35 4501.19 1462.63" style="fill:none;stroke:#f3587d;stroke-miterlimit:10;stroke-width:5px"/><polygon points="4422.6 1930.63 4501.19 2014.29 4399.78 2044.72 4501.19 2005.17 4489.52 2081.73 4422.6 1930.63" style="fill:none;stroke:#f3587d;stroke-miterlimit:10;stroke-width:5px"/><polygon points="4282.65 1873.84 4284.64 1880.98 4313.07 1983.03 4313.07 2052.32 4195.95 2052.32 4302.43 1986.74 4235.5 1963.08 4282.65 1873.84" style="fill:none;stroke:#f3587d;stroke-miterlimit:10;stroke-width:5px"/><polygon points="4944.02 2219.65 4957.52 2303.82 4887.55 2251.08 4944.02 2219.65" style="fill:none;stroke:#f3587d;stroke-miterlimit:10;stroke-width:5px"/><polygon points="4918.99 2052.32 4957.52 2072.6 4992 2052.32 4918.99 2052.32" style="fill:none;stroke:#f3587d;stroke-miterlimit:10;stroke-width:5px"/><polygon points="4957.52 1873.84 4992 1885.73 4992 1855.59 4957.52 1873.84" style="fill:none;stroke:#f3587d;stroke-miterlimit:10;stroke-width:5px"/><polygon points="4918.99 1559.48 4918.99 1598.01 4957.52 1574.69 4918.99 1559.48" style="fill:none;stroke:#f3587d;stroke-miterlimit:10;stroke-width:5px"/><polygon points="4679.16 2161.84 4645.19 2184.15 4620.85 2161.84 4679.16 2161.84" style="fill:none;stroke:#f3587d;stroke-miterlimit:10;stroke-width:5px"/><polygon points="4501.19 2184.15 4381.52 2184.15 4461.89 2150.69 4501.19 2184.15" style="fill:none;stroke:#f3587d;stroke-miterlimit:10;stroke-width:5px"/><polyline points="4519.44 2112.15 4450.48 2112.15 4370.88 2150.69 4195.95 2167.42 4276.06 2112.15 4381.52 2139.79" style="fill:none;stroke:#f3587d;stroke-miterlimit:10;stroke-width:5px"/><polygon points="4195.95 2052.32 4276.06 2112.15 4188.85 2112.15 4195.95 2052.32" style="fill:none;stroke:#f3587d;stroke-miterlimit:10;stroke-width:5px"/><polyline points="4202.03 2240.94 4129.02 2249.05 4166.54 2299.76 4209.13 2242.97 4137.58 2285.56 4137.58 2214.57 4195.95 2214.57 4209.13 2248.04" style="fill:none;stroke:#f3587d;stroke-miterlimit:10;stroke-width:5px"/><polyline points="4399.78 2044.72 4468.23 1934.13 4418.03 1924.55 4501.19 2005.17 4474.31 1941.28" style="fill:none;stroke:#f3587d;stroke-miterlimit:10;stroke-width:5px"/><polygon points="4188.85 2112.15 4069.69 2082.24 4069.69 2139.79 4188.85 2112.15" style="fill:none;stroke:#f3587d;stroke-miterlimit:10;stroke-width:5px"/><polygon points="4195.95 2167.42 4054.48 2198.35 4129.02 2150.69 4195.95 2167.42" style="fill:none;stroke:#f3587d;stroke-miterlimit:10;stroke-width:5px"/><line x1="4069.69" y1="2139.79" x2="4129.02" y2="2150.69" style="fill:none;stroke:#f3587d;stroke-miterlimit:10;stroke-width:5px"/><polygon points="4024.06 2174.52 3978.43 2198.35 4054.48 2198.35 4119.42 2184.15 4024.06 2174.52" style="fill:none;stroke:#f3587d;stroke-miterlimit:10;stroke-width:5px"/><polyline points="4399.78 1744.04 4375.44 1771.76 4323.72 1740.66 4495.86 1673.73" style="fill:none;stroke:#f3587d;stroke-miterlimit:10;stroke-width:5px"/><polygon points="4237.52 1722.74 4323.72 1740.66 4237.52 1778.52 4237.52 1722.74" style="fill:none;stroke:#f3587d;stroke-miterlimit:10;stroke-width:5px"/><polygon points="4158.43 1666.97 4237.52 1722.74 4093.52 1694.86 4158.43 1666.97" style="fill:none;stroke:#f3587d;stroke-miterlimit:10;stroke-width:5px"/><polygon points="4254.51 1624.21 4158.43 1666.97 4219.27 1589.9 4254.51 1624.21" style="fill:none;stroke:#f3587d;stroke-miterlimit:10;stroke-width:5px"/><polygon points="4254.51 1560.49 4219.27 1589.9 4254.51 1624.21 4254.51 1560.49" style="fill:none;stroke:#f3587d;stroke-miterlimit:10;stroke-width:5px"/><polygon points="4294.31 1539.7 4254.51 1560.49 4294.31 1494.58 4294.31 1539.7" style="fill:none;stroke:#f3587d;stroke-miterlimit:10;stroke-width:5px"/><polygon points="4396.73 1450.58 4294.31 1494.58 4313.07 1430.69 4396.73 1450.58" style="fill:none;stroke:#f3587d;stroke-miterlimit:10;stroke-width:5px"/><polygon points="4236.89 1294.8 4327.78 1347.77 4333.92 1352.1 4315.61 1425.62 4236.89 1360.21 4340.96 1364.77 4376.79 1382.35 4323.72 1425.62 4196.96 1425.62 4236.89 1367.82 4236.89 1294.8" style="fill:none;stroke:#f3587d;stroke-miterlimit:10;stroke-width:5px"/><polygon points="4136.12 1269.45 4236.89 1294.8 4237.52 1355.65 4136.12 1269.45" style="fill:none;stroke:#f3587d;stroke-miterlimit:10;stroke-width:5px"/><polygon points="4097.58 1294.8 4136.12 1269.45 4049.92 1262.35 4097.58 1294.8" style="fill:none;stroke:#f3587d;stroke-miterlimit:10;stroke-width:5px"/><polygon points="4196.96 1425.62 4059.05 1312.55 4084.4 1369.08 4196.96 1425.62" style="fill:none;stroke:#f3587d;stroke-miterlimit:10;stroke-width:5px"/><polygon points="4219.27 1500.66 4178.71 1472.27 4206.47 1425.62 4219.27 1500.66" style="fill:none;stroke:#f3587d;stroke-miterlimit:10;stroke-width:5px"/><polygon points="4196.96 1532.1 4219.27 1500.66 4254.51 1560.49 4196.96 1532.1" style="fill:none;stroke:#f3587d;stroke-miterlimit:10;stroke-width:5px"/><polyline points="4165.52 1606.72 4196.96 1532.1 4219.27 1589.9 4144.23 1659.36 4039.78 1606.72 4101.64 1574.69 4027.61 1539.7 4011.38 1595.73 4049.92 1690.29 4093.52 1694.86 4041.81 1613.48 4035.72 1574.69 4019.5 1601.05" style="fill:none;stroke:#f3587d;stroke-miterlimit:10;stroke-width:5px"/><polygon points="4059.05 1771.76 4093.52 1694.86 4049.92 1690.29 4059.05 1771.76" style="fill:none;stroke:#f3587d;stroke-miterlimit:10;stroke-width:5px"/><path d="M4118.33,2793.93l-34.48-117.13Z" transform="translate(9.67 -981.95)" style="fill:none;stroke:#f3587d;stroke-miterlimit:10;stroke-width:5px"/><polyline points="4059.05 1771.76 4128 1811.98 4237.52 1722.74 4195.95 1837.34 4136.12 1848.49 4049.92 1892.6 4059.05 1843.93 4115.33 1822.46 4143.72 1837.34 4150.31 1930.63 4195.95 1845.45" style="fill:none;stroke:#f3587d;stroke-miterlimit:10;stroke-width:5px"/><polygon points="4034.71 2035.42 4150.31 1930.63 4049.92 1892.6 4004.28 1892.6 4048.92 1916.94 4048.92 1973.22 4034.38 1974.89 3963.21 1983.03 3879.55 2052.32 3920.62 2094.91 4001.24 2062.46 4069.69 2082.24 4034.71 2035.42" style="fill:none;stroke:#f3587d;stroke-miterlimit:10;stroke-width:5px"/><polyline points="4036.23 2021.9 4034.38 1974.89 4137.58 1942.18 3996.68 1930.63 3978.43 1981.29 3844.57 1993.76 3879.55 2052.32 4025.58 1983.03 3867.38 2150.69 3914.54 2174.52 3922.14 2111.01 3814.14 2120.77 3870.43 2062.46 3760.9 2052.32 3836.96 2006.18 3703.1 2035.42 3703.1 2081.73 3725.92 2112.15 3836.96 2072.6 3803.5 2035.42 3776.12 2006.18 3736.57 2198.35 3732 2132.94 3798.93 2139.79 3771.55 2219.65 3861.3 2274.41 3794.37 2274.41 3879.55 2210.52 3978.43 2186.43 3800.45 2167.42 3750.26 2184.15 3777.64 2234.86 3662.03 2249.05 3636.17 2198.35 3570.76 2261.73 3742.65 2249.05 3576.34 2229.79 3570.76 2257.17 3464.79 2274.41 3499.27 2186.43 3561.13 2186.43 3524.62 2141.56 3597.64 2108.1 3740.62 2120.27 3632.12 2050.29 3694.99 2037.11 3627.05 2054.35 3560.12 2198.35 3565.19 2079.7 3626.03 2049.28" style="fill:none;stroke:#f3587d;stroke-miterlimit:10;stroke-width:5px"/><polyline points="3424.23 2243.98 3464.79 2274.41 3499.27 2186.43 3429.3 2237.9 3433.36 2186.43 3499.27 2125.34 3565.19 2079.7 3524.62 2141.56 3494.71 2134.46 3504.34 2182.13 3523.61 2150.69" style="fill:none;stroke:#f3587d;stroke-miterlimit:10;stroke-width:5px"/><polyline points="4011.38 1578.74 3955.61 1539.7 4027.61 1539.7 3955.61 1430.69 4206.47 1425.62 4011.38 1355.65 3978.43 1500.66 3903.89 1513.84 4011.38 1527.53 3945.47 1537.17 3731.5 1436.77 3774.09 1409.39 3912 1436.77 3960.68 1494.58 3925.19 1494.58 3816.68 1355.65 3835.95 1408.38 3731.5 1294.8 3854.2 1167.36 3938.71 1265.39 3865.69 1386.41 3844.06 1412.1 3920.45 1347.77 4012.4 1344.49 3944.12 1272.83 3917.07 1343.82 3923.16 1216.04 4010.37 1269.45 4059.05 1312.55 4049.92 1262.35 3950.2 1271.48 4056.34 1319.48 4012.4 1350.58" style="fill:none;stroke:#f3587d;stroke-miterlimit:10;stroke-width:5px"/><polyline points="3816.68 1355.65 3772.4 1347.77 3690.93 1221.79 3617.92 1221.79 3710.88 1281.62 3799.44 1294.8 3752.79 1197.79 3838.65 1197.79 3787.95 1118.69 3923.16 1216.04" style="fill:none;stroke:#f3587d;stroke-miterlimit:10;stroke-width:5px"/><polygon points="3716.79 1437.79 3713.49 1412.68 3701.58 1322.18 3774.09 1409.39 3681.81 1382.35 3701.58 1278.58 3646.82 1269.45 3675.72 1373.05 3660.51 1425.62 3706.14 1413.45 3627.05 1338.91 3560.12 1347.77 3617.92 1373.05 3654.43 1418.01 3540.34 1373.05 3651.38 1373.05 3716.79 1437.79" style="fill:none;stroke:#f3587d;stroke-miterlimit:10;stroke-width:5px"/><polyline points="3774.09 1097.05 3760.64 1087.14 3391.78 815.14 3359.33 800.94 3320.79 786.74 3300.51 798.91 3290.37 813.11 3290.37 841.5 3290.37 880.04 3316.74 918.58 3383.66 997.67 3617.92 1221.79 3643.27 1182.24 3586.48 1118.69 3584.93 1190.22 3685.86 1167.36 3731.5 1147.76 3720.34 1105.17 3770.54 1133.56 3742.65 1167.36 3665.58 1076.77 3690.93 1221.79" style="fill:none;stroke:#f3587d;stroke-miterlimit:10;stroke-width:5px"/><polyline points="3716.28 1076.77 3657.21 1086.91 3671.66 1030.13 3617.92 989.56 3558.09 989.56 3617.92 1052.43 3697.63 1040.67 3617.92 1015.93 3558.09 946.97 3540.34 973.34 3496.56 892.41 3416.12 961.17 3426.36 840.64 3361.36 851.65 3359.33 800.94 3487.1 1004.27 3438.43 1019.98 3446.54 969.28 3373.82 986.04 3359.33 892.21 3290.37 867.87 3318.76 829.34 3369.47 888.15 3320.79 786.74" style="fill:none;stroke:#f3587d;stroke-miterlimit:10;stroke-width:5px"/><polygon points="3466.82 1028.1 3522.63 1130.62 3442.79 1054.24 3466.82 1028.1" style="fill:none;stroke:#f3587d;stroke-miterlimit:10;stroke-width:5px"/><polygon points="3540.34 1105.17 3570.28 1176.21 3570.28 1118.69 3540.34 1105.17" style="fill:none;stroke:#f3587d;stroke-miterlimit:10;stroke-width:5px"/><line x1="3522.63" y1="1086.91" x2="3466.82" y2="1028.1" style="fill:none;stroke:#f3587d;stroke-miterlimit:10;stroke-width:5px"/><polyline points="3268.06 1210.63 3290.37 1214.69 3295.93 1234.3 3258.02 1181.09" style="fill:none;stroke:#f3587d;stroke-miterlimit:10;stroke-width:5px"/><polyline points="3606.61 1399.17 3570.28 1352.22 3393.21 1297.36 3494.72 1353.62 3367.44 1269.45 3295.93 1234.3 3327.89 1237.17" style="fill:none;stroke:#f3587d;stroke-miterlimit:10;stroke-width:5px"/><path d="M3260.41,2135.79l87.21-13.15q-9.12,40.55-18.25,81.09l-79.1-116.62-20.28,62.2,30.42-13.52L3230,2149.31c-1.26-2.09-17.78-30.56-4.06-55.1a45.2,45.2,0,0,1,14.2-15.21,36.12,36.12,0,0,1,40.57-10.14l58.81,18.25,66.93,25.46L3570.92,2168l-97.89,2.24-26-36.51,10.15,85.35h88.49l15,75.38,47.63-34L3445,2219.11s-48.68,18.09-66.93,25.19,12.17-53.75,12.17-53.75l42.89,86.2h70.68l46.65,53L3485.05,2305l-27.9-10.54-133.86-75.38-93.3-69.8c14.91,5.39,18.15,10.27,18.35,13.73.23,3.94-3.47,6.44-4.15,13.31a23,23,0,0,0,1.58,10.63l58.25,42.1,96.34,60.85L3530.67,2355" transform="translate(9.67 -981.95)" style="fill:none;stroke:#f3587d;stroke-miterlimit:10;stroke-width:5px"/><path d="M4569.6,1531.39" transform="translate(9.67 -981.95)" style="fill:none;stroke:#f3587d;stroke-miterlimit:10;stroke-width:5px"/><polygon points="4399.78 1837.34 4381.52 1855.59 4357.69 1826.69 4399.78 1837.34" style="fill:none;stroke:#f3587d;stroke-miterlimit:10;stroke-width:5px"/><polygon points="3879.55 1592.35 3827.83 1624.21 3787.27 1508.77 3842.03 1589.9 3879.55 1592.35" style="fill:none;stroke:#f3587d;stroke-miterlimit:10;stroke-width:5px"/><path d="M3913.48,2122.64" transform="translate(9.67 -981.95)" style="fill:none;stroke:#f3587d;stroke-miterlimit:10;stroke-width:5px"/><polygon points="4206.47 1207.69 4254.51 1237.17 4254.51 1181.09 4219.27 1262.35 4206.47 1207.69" style="fill:none;stroke:#f3587d;stroke-miterlimit:10;stroke-width:5px"/><polygon points="2509.67 61.6 1680.93 1381.35 2509.67 968.2 2509.67 61.6" style="fill:none;stroke:#54d8d0;stroke-miterlimit:10;stroke-width:5px"/><polyline points="2100.48 713.23 2411.07 469.27 2509.67 61.6 2509.67 584.87 1680.93 1381.35 1960.74 1241.85 1928.47 987.15 2344.14 868.82 2509.67 968.2 2297.62 1073.91 2095.3 721.48 2133.64 1155.66 2245.1 482.92" style="fill:none;stroke:#54d8d0;stroke-miterlimit:10;stroke-width:5px"/><polyline points="2348.2 858.67 2411.07 469.27 2509.67 968.2" style="fill:none;stroke:#54d8d0;stroke-miterlimit:10;stroke-width:5px"/><line x1="2242.73" y1="497.24" x2="2344.14" y2="868.81" style="fill:none;stroke:#54d8d0;stroke-miterlimit:10;stroke-width:5px"/><circle cx="2509.67" cy="61.6" r="31.6" style="fill:none;stroke:#54d8d0;stroke-miterlimit:10;stroke-width:60px"/><circle cx="2509.67" cy="968.2" r="31.6" style="fill:none;stroke:#54d8d0;stroke-miterlimit:10;stroke-width:60px"/><circle cx="1680.93" cy="1384.35" r="31.6" style="fill:none;stroke:#54d8d0;stroke-miterlimit:10;stroke-width:60px"/><polygon points="2509.67 61.6 3338.42 1381.35 2509.67 968.2 2509.67 61.6" style="fill:none;stroke:#54d8d0;stroke-miterlimit:10;stroke-width:5px"/><polyline points="2918.87 713.23 2608.28 469.27 2509.67 61.6 2509.67 584.87 3338.42 1381.35 3058.61 1241.85 3090.88 987.15 2675.21 868.82 2509.67 968.2 2721.73 1073.91 2924.05 721.48 2885.7 1155.66 2774.25 482.92" style="fill:none;stroke:#54d8d0;stroke-miterlimit:10;stroke-width:5px"/><polyline points="2671.15 858.67 2608.28 469.27 2509.67 968.2" style="fill:none;stroke:#54d8d0;stroke-miterlimit:10;stroke-width:5px"/><line x1="2776.62" y1="497.24" x2="2675.21" y2="868.81" style="fill:none;stroke:#54d8d0;stroke-miterlimit:10;stroke-width:5px"/><circle cx="2509.67" cy="61.6" r="31.6" style="fill:none;stroke:#54d8d0;stroke-miterlimit:10;stroke-width:60px"/><circle cx="3338.42" cy="1384.35" r="31.6" style="fill:none;stroke:#54d8d0;stroke-miterlimit:10;stroke-width:60px"/><polygon points="2509.67 2973.19 1680.93 1653.44 2509.67 2066.6 2509.67 2973.19" style="fill:none;stroke:#54d8d0;stroke-miterlimit:10;stroke-width:5px"/><polyline points="2100.48 2321.57 2411.07 2565.53 2509.67 2973.19 2509.67 2449.92 1680.93 1653.44 1960.74 1792.94 1928.47 2047.64 2344.14 2165.98 2509.67 2066.6 2297.62 1960.88 2095.3 2313.32 2133.64 1879.13 2245.1 2551.87" style="fill:none;stroke:#54d8d0;stroke-miterlimit:10;stroke-width:5px"/><polyline points="2348.2 2176.12 2411.07 2565.53 2509.67 2066.6" style="fill:none;stroke:#54d8d0;stroke-miterlimit:10;stroke-width:5px"/><line x1="2242.73" y1="2537.55" x2="2344.14" y2="2165.98" style="fill:none;stroke:#54d8d0;stroke-miterlimit:10;stroke-width:5px"/><circle cx="2509.67" cy="2973.19" r="31.6" style="fill:none;stroke:#54d8d0;stroke-miterlimit:10;stroke-width:60px"/><circle cx="2509.67" cy="2066.6" r="31.6" style="fill:none;stroke:#54d8d0;stroke-miterlimit:10;stroke-width:60px"/><circle cx="1680.93" cy="1650.44" r="31.6" style="fill:none;stroke:#54d8d0;stroke-miterlimit:10;stroke-width:60px"/><polygon points="2509.67 2973.19 3338.42 1653.44 2509.67 2066.6 2509.67 2973.19" style="fill:none;stroke:#54d8d0;stroke-miterlimit:10;stroke-width:5px"/><polyline points="2918.87 2321.57 2608.28 2565.53 2509.67 2973.19 2509.67 2449.92 3338.42 1653.44 3058.61 1792.94 3090.88 2047.64 2675.21 2165.98 2509.67 2066.6 2721.73 1960.88 2924.05 2313.32 2885.7 1879.13 2774.25 2551.87" style="fill:none;stroke:#54d8d0;stroke-miterlimit:10;stroke-width:5px"/><polyline points="2671.15 2176.12 2608.28 2565.53 2509.67 2066.6" style="fill:none;stroke:#54d8d0;stroke-miterlimit:10;stroke-width:5px"/><line x1="2776.62" y1="2537.55" x2="2675.21" y2="2165.98" style="fill:none;stroke:#54d8d0;stroke-miterlimit:10;stroke-width:5px"/><circle cx="2509.67" cy="2973.19" r="31.6" style="fill:none;stroke:#54d8d0;stroke-miterlimit:10;stroke-width:60px"/><circle cx="3338.42" cy="1650.44" r="31.6" style="fill:none;stroke:#54d8d0;stroke-miterlimit:10;stroke-width:60px"/><polygon points="1839.13 1510.77 1790.02 1479.43 1781.16 1551.99 1839.13 1510.77" style="fill:none;stroke:#7f51d6;stroke-miterlimit:10;stroke-width:5px"/><path d="M1842.88,2569.25l-13.43-76.53,30.42-71,131.83,112.21-152.11-36.28,29.25-20.85,216.79-154.51-106.09,240.39-58,45.46-27.19-74.21,191.28,155.36,106.86-267.57-215.88,213.66-39.27-252.27,73.63,67-120.67,48.37,609.7-22L2219.89,2755.7l59.31-543L2500,2691.42l-151.34,119.21,151.34-14.7-362.47-81L2500,2209,2374.81,2165l12.39,522.33-222.47-304.25,32.83-129.73,53.75,86.2-165.68,121.78V2309.19l394.86,100.37-359.71,297.13-78.37-172.75,168.34,39.91,258.9-421.77,30.35-49.45L1898.41,2397.9l-97.94,152.54L2500,2884.1V2160.16l-56-8.85,56-9.52" transform="translate(9.67 -981.95)" style="fill:none;stroke:#7f51d6;stroke-miterlimit:10;stroke-width:5px"/><polygon points="1712.53 1511.42 1869.54 1439.79 1810.14 1568.49 1712.53 1511.42" style="fill:none;stroke:#7f51d6;stroke-miterlimit:10;stroke-width:5px"/><polygon points="3180.22 1510.13 3229.33 1478.78 3238.19 1551.35 3180.22 1510.13" style="fill:none;stroke:#7f51d6;stroke-miterlimit:10;stroke-width:5px"/><path d="M3157.12,2568.6l13.43-76.53-30.42-71L3008.3,2533.29,3160.41,2497l-29.25-20.85-216.79-154.51L3020.46,2562l58,45.47,27.19-74.22-191.28,155.37-106.86-267.58,215.88,213.66,39.27-252.27-73.63,67,120.67,48.37-609.7-22,280.11,279.27-59.31-543L2500,2690.77,2651.34,2810,2500,2795.28l362.47-81-362.47-506,125.19-43.92-12.39,522.33,222.47-304.25-32.83-129.72-53.75,86.19,165.68,121.78V2308.55l-394.86,100.37L2879.22,2706l78.37-172.75-168.34,39.91-258.9-421.77L2500,2102l601.59,295.26,97.94,152.54L2500,2883.45V2159.51l56-8.85-56-9.52" transform="translate(9.67 -981.95)" style="fill:none;stroke:#7f51d6;stroke-miterlimit:10;stroke-width:5px"/><polygon points="3306.82 1510.77 3149.81 1439.14 3209.21 1567.84 3306.82 1510.77" style="fill:none;stroke:#7f51d6;stroke-miterlimit:10;stroke-width:5px"/><polyline points="2465.83 1873.84 2396.87 1705.42 2320.63 1811.98 2242.73 1673.73 2509.67 1731.03 2450.39 1800.74 2067.29 1624.21 1712.53 1511.42 2509.67 1750.63 2671.15 1702.04 3117.15 1567.84 3306.82 1510.77 2620.48 1697.42 2527.34 1722.74 2567.67 1873.84 2657.49 1722.74 2725.91 1798.36 2757.89 1694.86 2827.86 1722.74 2859.44 1666.97 2970.84 1650.44 2998.22 1560.49" style="fill:none;stroke:#7f51d6;stroke-miterlimit:10;stroke-width:5px"/></svg>